<?xml version="1.0" encoding="UTF-8" standalone="no"?>
<svg
   xmlns:dc="http://purl.org/dc/elements/1.1/"
   xmlns:cc="http://creativecommons.org/ns#"
   xmlns:rdf="http://www.w3.org/1999/02/22-rdf-syntax-ns#"
   xmlns:svg="http://www.w3.org/2000/svg"
   xmlns="http://www.w3.org/2000/svg"
   xmlns:sodipodi="http://sodipodi.sourceforge.net/DTD/sodipodi-0.dtd"
   xmlns:inkscape="http://www.inkscape.org/namespaces/inkscape"
   width="161"
   height="120"
   version="1.1"
   id="svg4"
   sodipodi:docname="leaf-cyan-2.svg"
   inkscape:version="1.0.1 (3bc2e813f5, 2020-09-07)">
  <metadata
     id="metadata10">
    <rdf:RDF>
      <cc:Work
         rdf:about="">
        <dc:format>image/svg+xml</dc:format>
        <dc:type
           rdf:resource="http://purl.org/dc/dcmitype/StillImage" />
        <dc:title></dc:title>
      </cc:Work>
    </rdf:RDF>
  </metadata>
  <defs
     id="defs8" />
  <sodipodi:namedview
     pagecolor="#ffffff"
     bordercolor="#666666"
     borderopacity="1"
     objecttolerance="10"
     gridtolerance="10"
     guidetolerance="10"
     inkscape:pageopacity="0"
     inkscape:pageshadow="2"
     inkscape:window-width="1352"
     inkscape:window-height="817"
     id="namedview6"
     showgrid="false"
     inkscape:zoom="2.2836921"
     inkscape:cx="87.465528"
     inkscape:cy="43.816974"
     inkscape:window-x="0"
     inkscape:window-y="0"
     inkscape:window-maximized="0"
     inkscape:current-layer="svg4" />
  <path
     d="m 68.599829,79.328831 0.04133,28.923999 -7.394667,-4.288 -0.04133,-28.925332 7.394667,4.289333"
     style="fill:#a0a0a0;fill-opacity:1;fill-rule:nonzero;stroke:none;stroke-width:0.133333"
     id="path3926" />
  <path
     d="m 70.018495,78.508831 0.04133,28.923999 -1.418667,0.82 -0.04133,-28.923999 1.418666,-0.82"
     style="fill:#676767;fill-opacity:1;fill-rule:nonzero;stroke:none;stroke-width:0.133333"
     id="path3928" />
  <path
     d="m 61.205162,75.039498 1.418667,-0.818667 7.394666,4.288 -1.418666,0.82 -7.394667,-4.289333"
     style="fill:#676767;fill-opacity:1;fill-rule:nonzero;stroke:none;stroke-width:0.133333"
     id="path3930" />
  <path
     d="m 50.203829,68.666164 0.04133,28.924 -7.394666,-4.288 -0.04133,-28.924 7.394666,4.288"
     style="fill:#a0a0a0;fill-opacity:1;fill-rule:nonzero;stroke:none;stroke-width:0.133333"
     id="path3932" />
  <path
     d="m 51.623829,67.846164 0.04,28.925333 -1.418667,0.818667 -0.04133,-28.924 1.42,-0.82"
     style="fill:#676767;fill-opacity:1;fill-rule:nonzero;stroke:none;stroke-width:0.133333"
     id="path3934" />
  <path
     d="m 42.809163,64.378164 1.418667,-0.82 7.395999,4.288 -1.42,0.82 -7.394666,-4.288"
     style="fill:#676767;fill-opacity:1;fill-rule:nonzero;stroke:none;stroke-width:0.133333"
     id="path3936" />
  <path
     d="m 55.910496,39.230165 0.06933,-0.22 c 0.04533,-0.161333 0.08533,-0.326667 0.150667,-0.465333 l 0.134666,-0.208 0.213334,-0.325334 0.193333,-0.16 c 0.286667,-0.246666 0.633333,-0.396 1.029333,-0.436 -0.324,0.452 -0.524,1.069334 -0.525333,1.86 -0.0067,2.393334 1.674667,5.305334 3.757333,6.508 0.7,0.404 1.348,0.544 1.910667,0.485334 -0.164,0.230666 -0.350667,0.430666 -0.58,0.562666 l -0.322667,0.121334 -0.237333,0.088 c -0.122667,0.024 -0.258667,0.01733 -0.390667,0.02 l -0.252,0.01067 c -0.156,-0.01333 -0.322667,-0.06267 -0.489333,-0.106666 l -0.221334,-0.048 c -0.245333,-0.08533 -0.501333,-0.201334 -0.762666,-0.352 -2.082667,-1.202667 -3.764,-4.114667 -3.757333,-6.508 0.0013,-0.298667 0.02933,-0.574667 0.08,-0.826667"
     style="fill:#676767;fill-opacity:1;fill-rule:nonzero;stroke:none;stroke-width:0.133333"
     id="path3938" />
  <path
     d="m 73.093162,46.604832 -0.04267,14.715999 -1.344,0.781334 0.04133,-14.716 1.345333,-0.781333"
     style="fill:#676767;fill-opacity:1;fill-rule:nonzero;stroke:none;stroke-width:0.133333"
     id="path3940" />
  <path
     d="m 53.018496,31.335499 1.344,-0.781334 14.007999,7.870667 -1.344,0.781333 -14.007999,-7.870666"
     style="fill:#676767;fill-opacity:1;fill-rule:nonzero;stroke:none;stroke-width:0.133333"
     id="path3942" />
  <path
     d="m 67.026495,39.206165 1.344,-0.781333 c 1.845334,3.196 2.877334,4.984 4.722667,8.18 l -1.345333,0.781333 c -1.845334,-3.196 -2.876,-4.984 -4.721334,-8.18"
     style="fill:#676767;fill-opacity:1;fill-rule:nonzero;stroke:none;stroke-width:0.133333"
     id="path3944" />
  <path
     d="m 55.830496,40.056832 c 0.0013,-0.298667 0.02933,-0.574667 0.08,-0.826667 l 0.06933,-0.22 c 0.04533,-0.161333 0.08533,-0.326667 0.150667,-0.465333 l 0.134666,-0.208 0.213334,-0.325334 0.193333,-0.16 c 0.286667,-0.246666 0.633333,-0.396 1.029333,-0.436 0.562667,-0.05867 1.210667,0.08133 1.912,0.486667 2.082667,1.201333 3.764,4.114667 3.757333,6.508 -0.0027,0.790667 -0.202666,1.408 -0.526666,1.858667 -0.164,0.230666 -0.350667,0.430666 -0.58,0.562666 l -0.322667,0.121334 -0.237333,0.088 c -0.122667,0.024 -0.258667,0.01733 -0.390667,0.02 l -0.252,0.01067 c -0.156,-0.01333 -0.322667,-0.06267 -0.489333,-0.106666 l -0.221334,-0.048 c -0.245333,-0.08533 -0.501333,-0.201334 -0.762666,-0.352 -2.082667,-1.202667 -3.764,-4.114667 -3.757333,-6.508 z m -7.606666,8.704 23.482665,13.341333 0.04133,-14.716 c -1.845334,-3.196 -2.876,-4.984 -4.721334,-8.18 L 53.018496,31.335499 c -0.929334,0.529333 -1.652,0.941333 -2.376,1.354666 -0.362667,0.205334 -0.724,0.412 -1.112,0.633334 -0.193333,0.110666 -0.393333,0.224 -0.604,0.344 -0.208,0.118666 -0.425333,0.242666 -0.656,0.373333 l -0.0053,0.004 -0.04133,14.716"
     style="fill:#a0a0a0;fill-opacity:1;fill-rule:nonzero;stroke:none;stroke-width:0.133333"
     id="path3946" />
  <path
     d="m 64.359829,65.808831 0.08133,28.769333 -24.895999,-14.468 -0.08267,-28.769333 24.897333,14.468"
     style="fill:#292c36;fill-opacity:1;fill-rule:nonzero;stroke:none;stroke-width:0.133333"
     id="path3948" />
  <path
     d="m 73.093162,60.767498 0.08133,28.767999 -8.733333,5.042667 -0.08133,-28.769333 8.733333,-5.041333"
     style="fill:#373c48;fill-opacity:1;fill-rule:nonzero;stroke:none;stroke-width:0.133333"
     id="path3950" />
  <path
     d="m 39.462496,51.340831 8.733334,-5.041333 24.897332,14.468 -8.733333,5.041333 -24.897333,-14.468"
     style="fill:#596177;fill-opacity:1;fill-rule:nonzero;stroke:none;stroke-width:0.133333"
     id="path3952" />
  <path
     d="m 60.833162,72.512831 0.0053,-1.998667 -17.725332,-10.177333 -0.0067,2 17.726666,10.176"
     style="fill:#cccccc;fill-opacity:1;fill-rule:nonzero;stroke:none;stroke-width:0.133333"
     id="path3954" />
  <path
     d="m 60.827829,74.514164 -17.726666,-10.178666 -0.0053,2.001333 17.725332,10.176 0.0067,-1.998667"
     style="fill:#cccccc;fill-opacity:1;fill-rule:nonzero;stroke:none;stroke-width:0.133333"
     id="path3956" />
  <path
     d="m 60.810495,80.512831 0.0053,-2 -17.726666,-10.177333 -0.0053,2.001333 17.726665,10.176"
     style="fill:#cccccc;fill-opacity:1;fill-rule:nonzero;stroke:none;stroke-width:0.133333"
     id="path3958" />
  <path
     d="m 95.473161,92.823497 c 0.016,-0.184 -0.096,-0.370667 -0.34,-0.512 -0.454666,-0.262667 -1.190666,-0.262667 -1.642666,0 -0.225334,0.130667 -0.338667,0.302667 -0.337334,0.474667 l -0.0013,-0.0013 -0.0013,19.073336 c -0.0013,0.17333 0.113333,0.34666 0.342666,0.47866 0.454667,0.26267 1.190667,0.26267 1.644,0 0.224,-0.13066 0.336,-0.30133 0.337334,-0.47333 l 0.0027,-19.071999 -0.004,0.032"
     style="fill:#a0a0a0;fill-opacity:1;fill-rule:nonzero;stroke:none;stroke-width:0.133333"
     id="path3960" />
  <path
     d="m 125.21583,92.823497 c 0.0147,-0.184 -0.0973,-0.370667 -0.34,-0.512 -0.456,-0.262667 -1.192,-0.262667 -1.644,0 -0.22667,0.130667 -0.33734,0.302667 -0.33734,0.474667 v -0.0013 l -0.003,19.073336 c -0.001,0.17333 0.11334,0.34666 0.34267,0.47866 0.45467,0.26267 1.19067,0.26267 1.644,0 0.224,-0.13066 0.33733,-0.30133 0.33733,-0.47333 l 0.003,-19.071999 -0.003,0.032"
     style="fill:#a0a0a0;fill-opacity:1;fill-rule:nonzero;stroke:none;stroke-width:0.133333"
     id="path3962" />
  <path
     d="m 110.17583,102.2835 c 0.016,-0.184 -0.096,-0.37067 -0.34,-0.512 -0.45467,-0.26267 -1.19067,-0.26267 -1.644,0 -0.22534,0.13066 -0.33734,0.30266 -0.33734,0.47466 v -0.001 l -0.003,19.07334 c 0,0.17333 0.11467,0.34666 0.344,0.47866 0.45467,0.26267 1.19067,0.26267 1.644,0 0.224,-0.13066 0.336,-0.30133 0.336,-0.472 l 0.003,-19.07333 -0.003,0.032"
     style="fill:#a0a0a0;fill-opacity:1;fill-rule:nonzero;stroke:none;stroke-width:0.133333"
     id="path3964" />
  <path
     d="m 109.05716,95.55283 -0.0413,14.80267 18.75333,-10.89867 0.0413,-14.801333 -18.75333,10.897333"
     style="fill:#0060ad;fill-opacity:1;fill-rule:nonzero;stroke:none;stroke-width:0.133333"
     id="path3966" />
  <path
     d="M 90.181161,84.655497 90.139831,99.45683 109.01583,110.3555 109.05716,95.55283 90.181161,84.655497"
     style="fill:#004b95;fill-opacity:1;fill-rule:nonzero;stroke:none;stroke-width:0.133333"
     id="path3968" />
  <path
     d="M 127.81049,84.655497 108.93449,73.756831 90.181161,84.655497 109.05716,95.55283 127.81049,84.655497"
     style="fill:#1377d9;fill-opacity:1;fill-rule:nonzero;stroke:none;stroke-width:0.133333"
     id="path3970" />
  <path
     d="m 105.91449,87.530164 c -0.28133,-0.113333 -0.54933,-0.234667 -0.796,-0.376 -0.24666,-0.142667 -0.456,-0.297333 -0.652,-0.461333 -1.27733,-1.070667 -1.27866,-2.497334 -0.02,-3.572 0.19334,-0.164 0.40134,-0.318667 0.64667,-0.46 0.24533,-0.142667 0.512,-0.264 0.78533,-0.373334 1.85867,-0.736 4.31467,-0.736 6.176,-0.004 0.28134,0.113334 0.54934,0.234667 0.796,0.377334 0.24534,0.141333 0.456,0.296 0.652,0.46 1.27067,1.074666 1.27867,2.497333 0.0133,3.576 -0.18666,0.16 -0.39466,0.314666 -0.64,0.457333 -0.24533,0.141333 -0.51199,0.262667 -0.79333,0.376 -1.852,0.732 -4.31466,0.736 -6.168,0 z m 3.64534,0.82 0.76,1.622666 1.83333,-0.284 -0.75333,-1.618666 c 0.36,-0.092 0.70666,-0.209333 1.03066,-0.348 l 2.05867,1.188 1.33867,-0.777333 -2.05867,-1.189334 c 0.24533,-0.192 0.43867,-0.388 0.604,-0.601333 l 2.79067,0.434667 0.492,-1.066667 -2.812,-0.430667 c 0.0427,-0.234666 0.0413,-0.461333 -0.004,-0.694666 l 2.8,-0.436 -0.49734,-1.061334 -2.78533,0.434667 c -0.16667,-0.213333 -0.37067,-0.414667 -0.60933,-0.602667 l 3.07333,-1.786666 -1.348,-0.777334 -3.07333,1.785334 c -0.32667,-0.137334 -0.67334,-0.254667 -1.04267,-0.350667 l 0.74267,-1.614667 -1.836,-0.285333 -0.74267,1.624 c -0.404,-0.02533 -0.79467,-0.02533 -1.19867,0 l -0.75333,-1.626667 -1.84,0.288 0.76,1.614667 c -0.368,0.096 -0.70667,0.209333 -1.03733,0.350667 l -2.05867,-1.186667 -0.164,0.09467 -1.17467,0.682666 2.05867,1.188 c -0.23867,0.188 -0.43867,0.389334 -0.59733,0.598667 l -2.79734,-0.430667 -0.48533,1.061334 2.80533,0.436 c -0.0347,0.230666 -0.0413,0.46 0.004,0.694666 l -4.849329,0.753334 0.497334,1.061333 4.834665,-0.752 c 0.29867,0.372 0.69067,0.724 1.21867,1.028 0.52933,0.306667 1.13733,0.532 1.78133,0.704 l -1.27733,2.790666 1.836,0.284 1.27733,-2.798666 c 0.404,0.02533 0.80133,0.02133 1.19867,0"
     style="fill:#004b95;fill-opacity:1;fill-rule:nonzero;stroke:none;stroke-width:0.133333"
     id="path3972" />
  <path
     d="m 112.05449,82.283497 c -1.86133,-0.732 -4.31733,-0.732 -6.176,0.004 l 3.09334,1.786667 3.08266,-1.790667"
     style="fill:#cccccc;fill-opacity:1;fill-rule:nonzero;stroke:none;stroke-width:0.133333"
     id="path3974" />
  <path
     d="m 104.44649,83.120831 c -1.25866,1.074666 -1.25733,2.501333 0.02,3.572 l 3.07334,-1.785334 -3.09334,-1.786666"
     style="fill:#cccccc;fill-opacity:1;fill-rule:nonzero;stroke:none;stroke-width:0.133333"
     id="path3976" />
  <path
     d="m 112.08249,87.530164 -3.09333,-1.786667 -3.07467,1.786667 c 1.85334,0.736 4.316,0.732 6.168,0"
     style="fill:#cccccc;fill-opacity:1;fill-rule:nonzero;stroke:none;stroke-width:0.133333"
     id="path3978" />
  <path
     d="m 113.51583,86.696831 c 1.26533,-1.078667 1.25733,-2.501334 -0.0133,-3.576 l -3.08134,1.790666 3.09467,1.785334"
     style="fill:#cccccc;fill-opacity:1;fill-rule:nonzero;stroke:none;stroke-width:0.133333"
     id="path3980" />
  <path
     d="m 112.08249,87.530164 c 0.28134,-0.113333 0.548,-0.234667 0.79334,-0.376 0.24533,-0.142667 0.45333,-0.297333 0.64,-0.457333 l -3.09467,-1.785334 3.08133,-1.790666 c -0.196,-0.164 -0.40666,-0.318667 -0.652,-0.46 -0.24666,-0.142667 -0.51466,-0.264 -0.796,-0.377334 l -3.08266,1.790667 -3.09334,-1.786667 c -0.27333,0.109334 -0.54,0.230667 -0.78533,0.373334 -0.24533,0.141333 -0.45333,0.296 -0.64667,0.46 l 3.09334,1.786666 -3.07334,1.785334 c 0.196,0.164 0.40534,0.318666 0.652,0.461333 0.24667,0.141333 0.51467,0.262667 0.796,0.376 l 3.07467,-1.786667 3.09333,1.786667"
     style="fill:#1e1616;fill-opacity:1;fill-rule:nonzero;stroke:none;stroke-width:0.133333"
     id="path3982" />
  <path
     d="m 96.175828,84.088831 -0.0027,0.03467 -0.01067,0.04 -0.008,0.036 -0.01733,0.04 -0.01333,0.03333 -0.024,0.04 -0.02,0.032 -0.032,0.04 -0.024,0.02933 -0.04,0.04133 -0.028,0.02667 -0.05467,0.04267 -0.02533,0.02 -0.09333,0.06 c -0.530667,0.309333 -1.394667,0.309333 -1.928,0.0013 l -0.09467,-0.06133 -0.028,-0.02133 -0.05333,-0.04267 -0.02933,-0.028 -0.04,-0.03867 -0.024,-0.03067 -0.03333,-0.04 -0.01867,-0.032 -0.02533,-0.04133 -0.01467,-0.03333 -0.016,-0.04133 -0.0093,-0.03333 -0.0093,-0.04133 -0.004,-0.036 -0.0027,-0.04 -0.0013,-0.0013 -0.0027,1.022667 c 0,0.202667 0.134667,0.406667 0.402667,0.562667 0.534666,0.308 1.398666,0.308 1.929333,0 0.264,-0.153334 0.396,-0.354667 0.396,-0.554667 l 0.0027,-1.024 -0.0027,0.03867"
     style="fill:#e0e0e0;fill-opacity:1;fill-rule:nonzero;stroke:none;stroke-width:0.133333"
     id="path3984" />
  <path
     d="m 93.454495,84.084831 0.004,0.036 0.0093,0.04133 0.0093,0.03333 0.016,0.04133 0.01467,0.03333 0.02533,0.04133 0.01867,0.032 0.03333,0.04 0.024,0.03067 0.04,0.03867 0.02933,0.028 0.05333,0.04267 0.028,0.02133 0.09467,0.06133 c 0.533333,0.308 1.397333,0.308 1.928,-0.0013 l 0.09333,-0.06 0.02533,-0.02 0.05467,-0.04267 0.028,-0.02667 0.04,-0.04133 0.024,-0.02933 0.032,-0.04 0.02,-0.032 0.024,-0.04 0.01333,-0.03333 0.01733,-0.04 0.008,-0.036 0.01067,-0.04 0.0027,-0.03467 c 0.01867,-0.216 -0.113333,-0.436 -0.4,-0.601334 -0.533333,-0.308 -1.397333,-0.308 -1.928,0 -0.265333,0.154667 -0.397333,0.356 -0.396,0.557334 l 0.0027,0.04"
     style="fill:#ffffff;fill-opacity:1;fill-rule:nonzero;stroke:none;stroke-width:0.133333"
     id="path3986" />
  <path
     d="m 110.82916,99.07683 -0.005,-2 15.58533,-8.927999 0.005,1.999999 -15.58533,8.928"
     style="fill:#292c36;fill-opacity:1;fill-rule:nonzero;stroke:none;stroke-width:0.133333"
     id="path3988" />
  <path
     d="m 110.83583,101.07683 15.58533,-8.928 0.005,2 -15.58533,8.928 -0.005,-2"
     style="fill:#292c36;fill-opacity:1;fill-rule:nonzero;stroke:none;stroke-width:0.133333"
     id="path3990" />
  <path
     d="m 83.582495,51.140831 -0.04133,28.924 7.394666,-4.288 0.04133,-28.923999 -7.394666,4.287999"
     style="fill:#a0a0a0;fill-opacity:1;fill-rule:nonzero;stroke:none;stroke-width:0.133333"
     id="path3992" />
  <path
     d="m 82.162495,50.320831 -0.04,28.925333 1.418667,0.818667 0.04133,-28.924 -1.42,-0.82"
     style="fill:#676767;fill-opacity:1;fill-rule:nonzero;stroke:none;stroke-width:0.133333"
     id="path3994" />
  <path
     d="m 90.977161,46.852832 -1.42,-0.818667 -7.394666,4.286666 1.42,0.82 7.394666,-4.287999"
     style="fill:#676767;fill-opacity:1;fill-rule:nonzero;stroke:none;stroke-width:0.133333"
     id="path3996" />
  <path
     d="m 101.97716,40.478165 -0.0413,28.925333 7.396,-4.288 0.04,-28.925333 -7.39467,4.288"
     style="fill:#a0a0a0;fill-opacity:1;fill-rule:nonzero;stroke:none;stroke-width:0.133333"
     id="path3998" />
  <path
     d="m 100.55849,39.659498 -0.0413,28.924 1.41867,0.82 0.0413,-28.925333 -1.41867,-0.818667"
     style="fill:#676767;fill-opacity:1;fill-rule:nonzero;stroke:none;stroke-width:0.133333"
     id="path4000" />
  <path
     d="m 109.37183,36.190165 -1.41867,-0.818666 -7.39467,4.287999 1.41867,0.818667 7.39467,-4.288"
     style="fill:#676767;fill-opacity:1;fill-rule:nonzero;stroke:none;stroke-width:0.133333"
     id="path4002" />
  <path
     d="m 96.271828,11.043499 -0.07067,-0.22 c -0.044,-0.161333 -0.08533,-0.326666 -0.150666,-0.465333 l -0.134667,-0.209333 -0.212,-0.3253339 -0.194667,-0.1599999 c -0.286666,-0.2466667 -0.632,-0.3946667 -1.028,-0.436 0.324,0.452 0.522667,1.0706668 0.525334,1.8613328 0.0067,2.393334 -1.674667,5.305334 -3.757334,6.508 -0.701333,0.404 -1.349333,0.544 -1.912,0.485334 0.164,0.230666 0.350667,0.429333 0.58,0.561333 l 0.322667,0.121333 0.237333,0.088 c 0.122667,0.02533 0.258667,0.01733 0.390667,0.02 l 0.253333,0.012 c 0.15467,-0.01467 0.32267,-0.06267 0.488003,-0.106666 l 0.221334,-0.04933 c 0.246666,-0.084 0.501333,-0.2 0.762666,-0.350666 2.082667,-1.202667 3.764,-4.114667 3.757334,-6.508 0,-0.298667 -0.028,-0.574667 -0.07867,-0.826667"
     style="fill:#676767;fill-opacity:1;fill-rule:nonzero;stroke:none;stroke-width:0.133333"
     id="path4004" />
  <path
     d="m 79.089162,18.418166 0.04133,14.714666 1.344,0.782667 -0.04133,-14.717333 -1.344,-0.78"
     style="fill:#676767;fill-opacity:1;fill-rule:nonzero;stroke:none;stroke-width:0.133333"
     id="path4006" />
  <path
     d="m 99.163828,3.1488327 -1.345333,-0.7826667 -14.008,7.872 1.345333,0.781333 14.008,-7.8706663"
     style="fill:#676767;fill-opacity:1;fill-rule:nonzero;stroke:none;stroke-width:0.133333"
     id="path4008" />
  <path
     d="m 85.155828,11.019499 -1.345333,-0.781333 c -1.844,3.196 -2.876,4.982666 -4.721333,8.18 l 1.344,0.78 c 1.845333,-3.196 2.877333,-4.982667 4.722666,-8.178667"
     style="fill:#676767;fill-opacity:1;fill-rule:nonzero;stroke:none;stroke-width:0.133333"
     id="path4010" />
  <path
     d="m 92.593161,18.378166 c -0.261333,0.150666 -0.516,0.266666 -0.762666,0.350666 l -0.221334,0.04933 c -0.165333,0.044 -0.333333,0.092 -0.488,0.106666 l -0.253333,-0.012 c -0.132,-0.0027 -0.268,0.0053 -0.390667,-0.02 l -0.237333,-0.088 -0.322667,-0.121333 c -0.229333,-0.132 -0.416,-0.330667 -0.58,-0.561333 -0.324,-0.452 -0.524,-1.069334 -0.525333,-1.86 -0.008,-2.393334 1.674667,-5.305333 3.757333,-6.5080002 0.7,-0.404 1.348,-0.544 1.912,-0.4866666 0.396,0.041333 0.741334,0.1893333 1.028,0.436 l 0.194667,0.1599999 0.212,0.3253339 0.134667,0.209333 c 0.06533,0.138667 0.106666,0.304 0.150666,0.465333 l 0.07067,0.22 c 0.05067,0.252 0.07867,0.528 0.07867,0.826667 0.0067,2.393333 -1.674667,5.305333 -3.757334,6.508 z m 11.323999,-12.5213334 -0.007,-0.00267 c -0.22933,-0.1306667 -0.448,-0.2546666 -0.656,-0.3733333 -0.20933,-0.12 -0.40933,-0.2333333 -0.604,-0.3453333 -0.38666,-0.22 -0.74933,-0.4266667 -1.11066,-0.6333334 -0.724,-0.4119999 -1.448,-0.8253333 -2.376005,-1.3533332 l -14.008,7.8706666 c -1.8453,3.196003 -2.8773,4.98267 -4.722633,8.17867 l 0.04133,14.717333 23.483998,-13.342667 -0.0413,-14.7159994"
     style="fill:#a0a0a0;fill-opacity:1;fill-rule:nonzero;stroke:none;stroke-width:0.133333"
     id="path4012" />
  <path
     d="m 87.822495,37.622165 -0.08267,28.767999 24.897335,-14.467999 0.0813,-28.768 -24.896001,14.468"
     style="fill:#292c36;fill-opacity:1;fill-rule:nonzero;stroke:none;stroke-width:0.133333"
     id="path4014" />
  <path
     d="m 79.089162,32.580832 -0.08267,28.767999 8.733333,5.041333 0.08267,-28.767999 -8.733333,-5.041333"
     style="fill:#373c48;fill-opacity:1;fill-rule:nonzero;stroke:none;stroke-width:0.133333"
     id="path4016" />
  <path
     d="m 112.71849,23.154165 -8.73333,-5.042666 -24.895998,14.469333 8.733333,5.041333 24.895995,-14.468"
     style="fill:#596177;fill-opacity:1;fill-rule:nonzero;stroke:none;stroke-width:0.133333"
     id="path4018" />
  <path
     d="m 91.358495,42.778165 -0.0067,-2 17.726665,-10.177333 0.005,2 -17.725332,10.177333"
     style="fill:#f74141;fill-opacity:1;fill-rule:nonzero;stroke:none;stroke-width:0.133333"
     id="path4020" />
  <path
     d="m 91.363828,44.778165 17.725332,-10.177333 0.005,2 -17.725332,10.177333 -0.0053,-2"
     style="fill:#f74141;fill-opacity:1;fill-rule:nonzero;stroke:none;stroke-width:0.133333"
     id="path4022" />
  <path
     d="m 91.381161,50.778165 -0.0053,-2 17.725329,-10.177333 0.005,2 -17.725329,10.177333"
     style="fill:#f74141;fill-opacity:1;fill-rule:nonzero;stroke:none;stroke-width:0.133333"
     id="path4024" />
</svg>
