<?xml version="1.0" encoding="UTF-8" standalone="no"?>
<svg
   xmlns:dc="http://purl.org/dc/elements/1.1/"
   xmlns:cc="http://creativecommons.org/ns#"
   xmlns:rdf="http://www.w3.org/1999/02/22-rdf-syntax-ns#"
   xmlns:svg="http://www.w3.org/2000/svg"
   xmlns="http://www.w3.org/2000/svg"
   xmlns:sodipodi="http://sodipodi.sourceforge.net/DTD/sodipodi-0.dtd"
   xmlns:inkscape="http://www.inkscape.org/namespaces/inkscape"
   width="84"
   height="68"
   version="1.1"
   id="svg6"
   sodipodi:docname="leaf-pink-round.svg"
   inkscape:version="1.0.1 (3bc2e813f5, 2020-09-07)">
  <metadata
     id="metadata12">
    <rdf:RDF>
      <cc:Work
         rdf:about="">
        <dc:format>image/svg+xml</dc:format>
        <dc:type
           rdf:resource="http://purl.org/dc/dcmitype/StillImage" />
        <dc:title></dc:title>
      </cc:Work>
    </rdf:RDF>
  </metadata>
  <defs
     id="defs10" />
  <sodipodi:namedview
     pagecolor="#ffffff"
     bordercolor="#666666"
     borderopacity="1"
     objecttolerance="10"
     gridtolerance="10"
     guidetolerance="10"
     inkscape:pageopacity="0"
     inkscape:pageshadow="2"
     inkscape:window-width="912"
     inkscape:window-height="510"
     id="namedview8"
     showgrid="false"
     inkscape:zoom="2.5915312"
     inkscape:cx="29.078309"
     inkscape:cy="38.250951"
     inkscape:window-x="0"
     inkscape:window-y="0"
     inkscape:window-maximized="0"
     inkscape:current-layer="svg6" />
  <path
     d="m 34.1309,44.422961 c 0.01219,-0.140201 -0.07315,-0.282432 -0.259066,-0.389106 -0.346437,-0.200142 -0.908254,-0.200142 -1.251643,0 -0.17271,0.09855 -0.257034,0.229603 -0.257034,0.360659 v -9.9e-4 l -0.0021,13.087389 c -9.91e-4,0.132078 0.08635,0.265162 0.261098,0.36574 0.346436,0.200144 0.908254,0.200144 1.252659,0 0.170678,-0.09956 0.256018,-0.229601 0.256018,-0.360657 l 0.0021,-13.087393 -0.0021,0.02438"
     style="fill:#a0a0a0;fill-opacity:1;fill-rule:nonzero;stroke:none;stroke-width:0.133333"
     id="path2954" />
  <path
     d="m 50.633891,44.422961 c 0.01219,-0.140201 -0.07414,-0.282432 -0.259066,-0.389106 -0.346431,-0.200142 -0.908254,-0.200142 -1.251638,0 -0.172713,0.09855 -0.259065,0.229603 -0.258052,0.360659 l -7.62e-4,-9.9e-4 -7.62e-4,13.087389 c 0,0.132078 0.08737,0.265162 0.2611,0.36574 0.347453,0.200144 0.907241,0.200144 1.252659,0 0.171692,-0.09956 0.257032,-0.229601 0.257032,-0.360657 l 0.0023,-13.087393 -0.0023,0.02438"
     style="fill:#a0a0a0;fill-opacity:1;fill-rule:nonzero;stroke:none;stroke-width:0.133333"
     id="path2956" />
  <path
     d="m 53.397262,45.759943 c -0.0091,0.105658 -0.0091,0.210301 -0.02644,0.314943 -0.01928,0.118865 -0.05692,0.235698 -0.08635,0.353548 -0.02644,0.103627 -0.04267,0.207253 -0.07721,0.308847 -0.03962,0.119882 -0.09753,0.238747 -0.148331,0.357613 -0.04267,0.09855 -0.0752,0.199125 -0.124961,0.296655 -0.06096,0.120898 -0.141213,0.237731 -0.213348,0.357612 -0.05692,0.09347 -0.105661,0.18795 -0.169665,0.280401 -0.08432,0.120897 -0.186931,0.237731 -0.283449,0.355581 l -0.2103,0.263129 c -0.110735,0.121913 -0.239758,0.239763 -0.363706,0.358628 l -0.23773,0.233668 c -0.149344,0.132072 -0.317988,0.258049 -0.484606,0.384027 l -0.229601,0.180837 c -0.255004,0.18287 -0.530322,0.359645 -0.821901,0.529307 -4.702806,2.73289 -12.35388,2.73289 -17.081068,0.003 -0.296656,-0.170678 -0.575025,-0.349485 -0.835106,-0.53337 l -0.246875,-0.195062 c -0.16255,-0.121913 -0.329166,-0.244843 -0.476477,-0.372852 l -0.250937,-0.244842 c -0.122929,-0.11785 -0.251953,-0.233667 -0.360659,-0.353548 l -0.216399,-0.267146 c -0.09651,-0.118865 -0.201156,-0.235699 -0.28548,-0.356596 -0.06604,-0.09448 -0.116833,-0.190997 -0.175758,-0.287512 -0.07213,-0.11785 -0.152392,-0.234683 -0.214365,-0.355581 -0.05181,-0.100578 -0.08635,-0.203188 -0.13004,-0.304783 -0.0508,-0.117849 -0.108706,-0.234683 -0.149344,-0.353549 -0.03454,-0.10261 -0.05181,-0.20522 -0.07823,-0.308846 -0.03048,-0.119882 -0.06909,-0.238747 -0.08839,-0.358629 -0.01829,-0.105658 -0.01829,-0.211316 -0.02844,-0.315958 -0.01016,-0.119882 -0.02844,-0.238747 -0.02947,-0.357613 v -0.01727 l -0.02642,2.022747 c -0.004,1.803301 1.184591,3.608633 3.56698,4.984222 4.727188,2.728829 12.378263,2.728829 17.080048,-0.004 2.333626,-1.355269 3.501959,-3.132156 3.507041,-4.911074 l 0.02537,-2.022745 c 0,0.11277 -0.01928,0.224524 -0.02842,0.336278"
     style="fill:#cccccc;fill-opacity:1;fill-rule:nonzero;stroke:none;stroke-width:0.133333"
     id="path2960" />
  <path
     d="m 29.302118,45.729465 c 0.01016,0.104642 0.01016,0.2103 0.02844,0.315958 0.0193,0.119882 0.05791,0.238747 0.08839,0.358629 0.02642,0.103626 0.04368,0.206236 0.07823,0.308846 0.04064,0.118866 0.09855,0.2357 0.149344,0.353549 0.04368,0.101595 0.07823,0.204205 0.13004,0.304783 0.06197,0.120898 0.142232,0.237731 0.214365,0.355581 0.05892,0.09651 0.109722,0.193029 0.175757,0.287512 0.08432,0.120897 0.188966,0.237731 0.285481,0.356596 l 0.216396,0.267194 c 0.108706,0.119881 0.237731,0.235698 0.36066,0.353548 l 0.250939,0.244842 c 0.147311,0.128009 0.313926,0.250939 0.476477,0.372852 l 0.246875,0.195062 c 0.260081,0.183885 0.53845,0.362692 0.835106,0.53337 4.727187,2.729842 12.378262,2.729842 17.081066,-0.003 0.291578,-0.169662 0.566896,-0.346437 0.821901,-0.529307 l 0.229601,-0.180837 c 0.166617,-0.125978 0.335261,-0.251955 0.484605,-0.384027 l 0.237731,-0.233668 c 0.123948,-0.118865 0.25297,-0.236715 0.363706,-0.358628 l 0.2103,-0.263129 c 0.09652,-0.11785 0.19913,-0.234684 0.283448,-0.355581 0.06401,-0.09245 0.11277,-0.186934 0.169666,-0.280401 0.07216,-0.119881 0.152391,-0.236714 0.213348,-0.357612 0.04976,-0.09753 0.08229,-0.198109 0.124961,-0.296655 0.05082,-0.118866 0.108708,-0.237731 0.14833,-0.357613 0.03452,-0.101594 0.05082,-0.20522 0.07721,-0.308847 0.02949,-0.11785 0.06705,-0.234683 0.08635,-0.353548 0.0173,-0.104642 0.0173,-0.209285 0.02644,-0.314943 0.16357,-1.912006 -1.005784,-3.85754 -3.533451,-5.316435 -4.733282,-2.73289 -12.384356,-2.73289 -17.081066,-0.0021 -2.343783,1.361365 -3.511103,3.145363 -3.510087,4.930376 9.91e-4,0.118865 0.0193,0.237731 0.02947,0.357613"
     style="fill:#a0a0a0;fill-opacity:1;fill-rule:nonzero;stroke:none;stroke-width:0.133333"
     id="path2962" />
  <path
     d="m 52.101933,26.246706 c -0.0069,0.09347 -0.0082,0.18795 -0.02438,0.2804 -0.01623,0.106674 -0.04976,0.211316 -0.0762,0.316975 -0.02339,0.09245 -0.03863,0.183885 -0.06911,0.27532 -0.03558,0.106674 -0.08635,0.212333 -0.13207,0.317991 l -0.111757,0.265162 c -0.05486,0.10769 -0.125974,0.212332 -0.190992,0.319006 l -0.150365,0.250938 c -0.0762,0.10769 -0.167631,0.211316 -0.253983,0.317991 l -0.186932,0.233667 c -0.09753,0.108705 -0.214369,0.214364 -0.325104,0.320022 l -0.212335,0.209284 c -0.133084,0.116834 -0.284462,0.229604 -0.432792,0.342374 l -0.204205,0.161535 c -0.228587,0.162551 -0.472414,0.321038 -0.734528,0.472414 -4.196863,2.439282 -11.026039,2.439282 -15.246271,0.003 -0.265161,-0.153408 -0.513051,-0.311895 -0.745702,-0.475462 l -0.22046,-0.173726 c -0.145276,-0.110691 -0.293604,-0.220413 -0.424661,-0.334198 l -0.224523,-0.219444 c -0.109722,-0.103626 -0.224524,-0.207253 -0.322054,-0.314943 l -0.192014,-0.23773 c -0.08636,-0.105659 -0.179822,-0.210301 -0.255002,-0.317991 l -0.157449,-0.257034 c -0.064,-0.105658 -0.136136,-0.2103 -0.190997,-0.31799 l -0.116834,-0.270242 c -0.0447,-0.106674 -0.09651,-0.2103 -0.132072,-0.316974 l -0.0701,-0.275321 c -0.02844,-0.106674 -0.06197,-0.214365 -0.07924,-0.321039 -0.01625,-0.09347 -0.01727,-0.187949 -0.0254,-0.282432 -0.0091,-0.105658 -0.0254,-0.211316 -0.0254,-0.317991 l -9.91e-4,-0.01524 -0.02337,18.936182 c -0.0051,1.608239 1.057598,3.220542 3.183969,4.447803 4.219216,2.435218 11.048392,2.435218 15.245255,-0.003 2.083704,-1.211005 3.126062,-2.795878 3.131144,-4.383798 l 0.02233,-18.935166 c 0,0.09956 -0.01623,0.200141 -0.02537,0.299704"
     style="fill:#676767;fill-opacity:1;fill-rule:nonzero;stroke:none;stroke-width:0.133333"
     id="path2964" />
  <path
     d="m 53.671566,10.432521 c -0.0091,0.105658 -0.0091,0.213348 -0.02644,0.319006 -0.01928,0.119881 -0.05692,0.238747 -0.08737,0.357612 -0.02537,0.104642 -0.04366,0.209285 -0.07721,0.312911 -0.04061,0.120897 -0.09956,0.240779 -0.150358,0.36066 -0.04267,0.100579 -0.07721,0.201157 -0.126995,0.299703 -0.06195,0.121914 -0.142227,0.240779 -0.216396,0.361677 -0.05692,0.09448 -0.105653,0.189981 -0.170679,0.283448 -0.08534,0.122929 -0.189979,0.240779 -0.286496,0.36066 l -0.212327,0.265162 c -0.111757,0.123945 -0.242813,0.24281 -0.368788,0.363708 l -0.240779,0.236714 c -0.150365,0.133089 -0.321043,0.259066 -0.489687,0.387075 l -0.230622,0.18287 c -0.259066,0.183886 -0.537432,0.362692 -0.833072,0.535403 -4.755635,2.763367 -12.492048,2.763367 -17.274097,0.003 -0.30072,-0.173727 -0.582136,-0.353549 -0.84425,-0.539467 l -0.249922,-0.196077 c -0.164583,-0.124961 -0.33323,-0.248906 -0.481558,-0.377931 -0.09245,-0.08026 -0.16763,-0.165599 -0.255002,-0.247891 -0.122926,-0.118865 -0.253983,-0.235698 -0.364722,-0.357612 l -0.217413,-0.270193 c -0.09855,-0.119881 -0.204205,-0.238747 -0.289544,-0.36066 -0.06705,-0.0955 -0.116834,-0.193029 -0.176775,-0.29056 -0.07416,-0.118865 -0.155439,-0.238747 -0.217412,-0.358628 -0.05181,-0.101594 -0.08737,-0.206237 -0.132073,-0.308847 -0.0508,-0.118865 -0.109722,-0.237731 -0.149344,-0.357613 -0.03556,-0.103626 -0.05385,-0.208268 -0.08026,-0.311894 -0.03149,-0.121914 -0.06909,-0.241795 -0.0894,-0.363708 -0.0193,-0.106674 -0.0193,-0.213348 -0.02947,-0.320022 -0.01016,-0.119882 -0.02844,-0.239764 -0.02844,-0.360661 l -0.0021,-0.01727 -0.0254,30.841014 c -0.004,1.823619 1.197798,3.649271 3.606601,5.040098 4.781033,2.76032 12.518463,2.76032 17.275114,-0.004 2.359022,-1.370509 3.541581,-3.166698 3.545643,-4.965935 l 0.02644,-30.84203 c 0,0.114802 -0.01928,0.226556 -0.02949,0.340342"
     style="fill:#a0a0a0;fill-opacity:1;fill-rule:nonzero;stroke:none;stroke-width:0.133333"
     id="path2966" />
  <path
     d="m 51.356227,42.903109 -0.02949,-0.729449 -0.0112,-25.625157 c -0.0023,-0.63598 -0.453106,-0.89403 -1.005785,-0.574008 h -7.62e-4 c -0.553684,0.319007 -0.997654,1.094172 -0.996641,1.730153 l 0.04061,26.355621 c 0.0023,0.634965 0.449053,0.890982 1.003758,0.571976 0.552671,-0.320022 1.000703,-1.093156 0.999689,-1.729136"
     style="fill:#e0e0e0;fill-opacity:1;fill-rule:nonzero;stroke:none;stroke-width:0.133333"
     id="path2968" />
  <path
     d="m 50.154368,15.05913 c 0.29564,-0.172711 0.574006,-0.351517 0.833072,-0.535403 l 0.230622,-0.18287 c 0.168644,-0.128009 0.339322,-0.253986 0.489687,-0.387075 l 0.240779,-0.236714 c 0.125974,-0.120898 0.257031,-0.239763 0.368788,-0.363708 l 0.212327,-0.265162 c 0.09652,-0.119881 0.201157,-0.237731 0.286496,-0.36066 0.065,-0.09347 0.113791,-0.188965 0.170679,-0.283448 0.07414,-0.120898 0.154426,-0.239763 0.216396,-0.361677 0.04976,-0.09855 0.08433,-0.199124 0.126995,-0.299703 0.05082,-0.119881 0.109722,-0.239763 0.150357,-0.36066 0.03353,-0.103626 0.05181,-0.208269 0.07722,-0.312911 0.03048,-0.118865 0.06804,-0.237731 0.08737,-0.357612 0.0173,-0.105658 0.0173,-0.213348 0.02644,-0.319006 C 53.837193,8.499179 52.654634,6.532311 50.098524,5.0561441 45.31241,2.2927769 37.573964,2.2927769 32.82341,5.0531441 31.699775,5.706397 30.852478,6.457179 30.263231,7.255711 l 15.538862,9.422882 c 1.587921,-0.344406 3.079324,-0.878792 4.352305,-1.619415"
     style="fill:#e0e0e0;fill-opacity:1;fill-rule:nonzero;stroke:none;stroke-width:0.133333"
     id="path2970" />
  <path
     d="m 30.263201,7.255663 c -0.654269,0.887935 -0.990546,1.834795 -0.988514,2.784703 0,0.120897 0.01829,0.240779 0.02844,0.360661 0.01016,0.106674 0.01016,0.213348 0.02947,0.320022 0.02032,0.121913 0.05892,0.241794 0.0894,0.363708 0.02642,0.103626 0.0447,0.208268 0.08026,0.311894 0.04064,0.119882 0.09855,0.238748 0.149344,0.357613 0.0447,0.10261 0.08026,0.206236 0.132073,0.308847 0.06197,0.119881 0.143248,0.239763 0.217412,0.358628 0.05994,0.09753 0.109722,0.195062 0.176774,0.29056 0.08534,0.121913 0.190998,0.240779 0.289544,0.36066 l 0.217412,0.270241 c 0.110739,0.121914 0.241795,0.238747 0.364724,0.357612 0.08737,0.08229 0.162551,0.167631 0.255003,0.247891 0.148327,0.129025 0.316974,0.25297 0.481557,0.377931 l 0.249922,0.196077 c 0.262114,0.185918 0.54353,0.36574 0.84425,0.539467 3.500943,2.020713 8.582695,2.556115 12.921791,1.616367 L 30.263201,7.255663"
     style="fill:#f74141;fill-opacity:1;fill-rule:nonzero;stroke:none;stroke-width:0.133333"
     id="path2972" />
  <path
     d="M 49.531597,11.413923 38.483204,5.0063631 37.165525,5.772385 l 11.049408,6.407559 1.316664,-0.766021"
     style="fill:#f74141;fill-opacity:1;fill-rule:nonzero;stroke:none;stroke-width:0.133333"
     id="path2974" />
  <path
     d="M 35.842765,6.541455 34.525086,7.306461 45.572462,13.71402 46.89014,12.949014 35.842765,6.541455"
     style="fill:#f74141;fill-opacity:1;fill-rule:nonzero;stroke:none;stroke-width:0.133333"
     id="path2976" />
</svg>
