<?xml version="1.0" encoding="UTF-8" standalone="no"?>
<svg
   xmlns:dc="http://purl.org/dc/elements/1.1/"
   xmlns:cc="http://creativecommons.org/ns#"
   xmlns:rdf="http://www.w3.org/1999/02/22-rdf-syntax-ns#"
   xmlns:svg="http://www.w3.org/2000/svg"
   xmlns="http://www.w3.org/2000/svg"
   xmlns:sodipodi="http://sodipodi.sourceforge.net/DTD/sodipodi-0.dtd"
   xmlns:inkscape="http://www.inkscape.org/namespaces/inkscape"
   width="72"
   height="93"
   version="1.1"
   id="svg6"
   sodipodi:docname="leaf-orange.svg"
   inkscape:version="1.0.1 (3bc2e813f5, 2020-09-07)">
  <metadata
     id="metadata12">
    <rdf:RDF>
      <cc:Work
         rdf:about="">
        <dc:format>image/svg+xml</dc:format>
        <dc:type
           rdf:resource="http://purl.org/dc/dcmitype/StillImage" />
        <dc:title></dc:title>
      </cc:Work>
    </rdf:RDF>
  </metadata>
  <defs
     id="defs10" />
  <sodipodi:namedview
     pagecolor="#ffffff"
     bordercolor="#666666"
     borderopacity="1"
     objecttolerance="10"
     gridtolerance="10"
     guidetolerance="10"
     inkscape:pageopacity="0"
     inkscape:pageshadow="2"
     inkscape:window-width="912"
     inkscape:window-height="510"
     id="namedview8"
     showgrid="false"
     inkscape:zoom="1.894883"
     inkscape:cx="30.817509"
     inkscape:cy="45.666752"
     inkscape:window-x="0"
     inkscape:window-y="0"
     inkscape:window-maximized="0"
     inkscape:current-layer="svg6" />
  <path
     d="m 22.999905,73.633659 c 0.016,-0.184 -0.09733,-0.370667 -0.34,-0.510667 -0.456,-0.262666 -1.192,-0.262666 -1.644,-0.0013 -0.225333,0.132 -0.338667,0.304 -0.337333,0.476 v -0.0027 l -0.004,19.073333 c 0,0.173333 0.114666,0.346667 0.344,0.48 0.454666,0.262667 1.190666,0.262667 1.643999,0 0.224,-0.130667 0.336,-0.302667 0.337334,-0.473333 l 0.0027,-19.072 -0.0027,0.03067"
     style="fill:#a0a0a0;fill-opacity:1;fill-rule:nonzero;stroke:none;stroke-width:0.133333"
     id="path4026" />
  <path
     d="m 51.578571,73.633659 c 0.016,-0.184 -0.096,-0.370667 -0.34,-0.510667 -0.454667,-0.262666 -1.190667,-0.262666 -1.642667,-0.0013 -0.225333,0.132 -0.338666,0.304 -0.338666,0.476 v -0.0027 l -0.0027,19.073333 c 0,0.173333 0.114667,0.346667 0.344,0.48 0.454667,0.262667 1.190667,0.262667 1.642667,0 0.225333,-0.130667 0.337333,-0.302667 0.338666,-0.473333 l 0.0027,-19.072 -0.004,0.03067"
     style="fill:#a0a0a0;fill-opacity:1;fill-rule:nonzero;stroke:none;stroke-width:0.133333"
     id="path4028" />
  <path
     d="m 36.054571,82.533659 c -5.950666,0 -11.567999,-1.352 -15.814666,-3.802667 -0.548,-0.316 -1.078667,-0.656 -1.577333,-1.009333 l -0.324,-0.250667 -0.293334,-0.228 c -0.265333,-0.2 -0.528,-0.4 -0.764,-0.606667 -0.122666,-0.106666 -0.232,-0.216 -0.34,-0.326666 l -0.312,-0.3 c -0.184,-0.176 -0.369333,-0.350667 -0.532,-0.530667 -0.112,-0.121333 -0.209333,-0.245333 -0.305333,-0.370667 l -0.246667,-0.304 c -0.152,-0.181333 -0.302666,-0.362666 -0.432,-0.548 -0.096,-0.136 -0.178666,-0.274666 -0.258666,-0.413333 l -0.2,-0.328 c -0.113334,-0.178667 -0.225334,-0.36 -0.318667,-0.541333 -0.07733,-0.149333 -0.14,-0.301333 -0.201333,-0.454667 l -0.136,-0.321333 c -0.08267,-0.184 -0.164,-0.368 -0.226667,-0.554667 -0.05333,-0.157333 -0.09067,-0.314666 -0.126667,-0.473333 l -0.08,-0.318667 c -0.05333,-0.190666 -0.104,-0.381333 -0.136,-0.573333 -0.028,-0.165333 -0.04,-0.328 -0.04933,-0.492 l -0.028,-0.325333 c -0.02133,-0.189334 -0.03867,-0.381334 -0.03867,-0.570667 -0.0067,-3.744 2.417334,-7.217333 6.824,-9.778666 4.222667,-2.453334 9.825334,-3.805334 15.777333,-3.805334 5.954667,0 11.577334,1.353334 15.830667,3.809334 4.705333,2.717333 7.208,6.566666 6.868,10.562666 l -0.012,0.16 c -0.0093,0.162667 -0.02133,0.325333 -0.048,0.488 -0.03067,0.188 -0.07867,0.376 -0.129334,0.562667 l -0.08,0.325333 c -0.036,0.156 -0.072,0.313333 -0.124,0.469333 -0.06267,0.186667 -0.142666,0.373334 -0.225333,0.558667 l -0.137333,0.325333 c -0.05733,0.146667 -0.117334,0.293334 -0.190667,0.438667 -0.09333,0.182666 -0.205333,0.365333 -0.32,0.548 l -0.194667,0.321333 c -0.07867,0.136 -0.157333,0.270667 -0.250666,0.404 -0.128,0.184 -0.277334,0.368 -0.429334,0.549333 l -0.24,0.3 c -0.09333,0.122667 -0.189333,0.245334 -0.297333,0.365334 -0.169333,0.188 -0.36,0.369333 -0.552,0.552 l -0.293333,0.285333 -0.32,0.310667 c -0.252,0.221333 -0.529334,0.433333 -0.806667,0.644 l -0.26,0.202666 -0.297333,0.232 c -0.489334,0.348 -1.012,0.685334 -1.557334,1.002667 -4.229333,2.457333 -9.837333,3.810667 -15.791999,3.810667 h -0.0013"
     style="fill:#cccccc;fill-opacity:1;fill-rule:nonzero;stroke:none;stroke-width:0.133333"
     id="path4030" />
  <path
     d="m 57.481238,65.725659 c -0.016,0.186667 -0.01733,0.374667 -0.04667,0.561333 -0.03467,0.210667 -0.101333,0.421334 -0.154667,0.632 -0.04667,0.184 -0.07733,0.368 -0.137333,0.550667 -0.07067,0.213333 -0.174667,0.424 -0.264,0.636 -0.076,0.176 -0.134667,0.354667 -0.224,0.529333 -0.109333,0.214667 -0.252,0.425334 -0.381333,0.637334 -0.101334,0.166666 -0.188,0.336 -0.301334,0.5 -0.150666,0.216 -0.334666,0.425333 -0.506666,0.636 -0.125334,0.156 -0.234667,0.314666 -0.373334,0.468 -0.197333,0.218666 -0.428,0.429333 -0.649333,0.64 -0.144,0.138666 -0.272,0.282666 -0.425333,0.418666 -0.266667,0.234667 -0.568,0.458667 -0.864,0.684 -0.14,0.106667 -0.261334,0.217334 -0.408,0.322667 -0.457334,0.325333 -0.946667,0.64 -1.468,0.944 -8.388,4.874666 -22.036,4.874666 -30.470666,0.0053 -0.529334,-0.305333 -1.025334,-0.624 -1.488,-0.952 -0.158667,-0.110666 -0.292,-0.230666 -0.442667,-0.345333 -0.289333,-0.221333 -0.586667,-0.438667 -0.848,-0.666667 -0.162667,-0.142666 -0.297333,-0.292 -0.448,-0.437333 -0.218667,-0.209333 -0.449333,-0.416 -0.644,-0.630667 -0.142667,-0.156 -0.256,-0.318666 -0.385333,-0.476 -0.173334,-0.212 -0.358667,-0.421333 -0.509334,-0.636 -0.118663,-0.1693 -0.207997,-0.342633 -0.31333,-0.5133 -0.129333,-0.210667 -0.273333,-0.42 -0.382667,-0.633333 -0.092,-0.18 -0.154666,-0.362667 -0.232,-0.542667 -0.09067,-0.210667 -0.194666,-0.42 -0.265333,-0.632 -0.06267,-0.182667 -0.09333,-0.368 -0.141333,-0.552 -0.05467,-0.213333 -0.122667,-0.425333 -0.158667,-0.641333 -0.03067,-0.186667 -0.032,-0.374667 -0.04933,-0.562667 -0.01867,-0.212 -0.05067,-0.424 -0.05067,-0.636 l -0.0027,-0.032 -0.04533,3.609333 c -0.0093,3.216 2.112,6.436 6.361333,8.889333 8.433334,4.869334 22.081333,4.869334 30.470666,-0.0053 4.161334,-2.42 6.245334,-5.588 6.254667,-8.76 l 0.04667,-3.610666 c -0.0013,0.201333 -0.03467,0.4 -0.052,0.601333"
     style="fill:#0060ad;fill-opacity:1;fill-rule:nonzero;stroke:none;stroke-width:0.133333"
     id="path4032" />
  <path
     d="m 14.498572,65.669659 c 0.01733,0.188 0.01867,0.376 0.04933,0.562667 0.036,0.216 0.104,0.428 0.158666,0.641333 0.048,0.184 0.07867,0.369333 0.141334,0.552 0.07067,0.212 0.174666,0.421333 0.265333,0.632 0.07733,0.18 0.14,0.362667 0.232,0.542667 0.109333,0.213333 0.253333,0.422666 0.382667,0.633333 0.105333,0.170667 0.194666,0.344 0.313333,0.513333 0.150667,0.214667 0.336,0.424 0.509333,0.636 0.129334,0.157334 0.242667,0.32 0.385334,0.476 0.194666,0.214667 0.425333,0.421334 0.644,0.630667 0.150666,0.145333 0.285333,0.294667 0.448,0.437333 0.261333,0.228 0.558666,0.445334 0.848,0.666667 0.150666,0.114667 0.284,0.234667 0.442666,0.345333 0.462667,0.328 0.958667,0.646667 1.488,0.952 8.434667,4.869333 22.082667,4.869333 30.470667,-0.0053 0.521333,-0.304 1.012,-0.618667 1.468,-0.944 0.146666,-0.105333 0.268,-0.216 0.408,-0.322667 0.296,-0.225333 0.597333,-0.449333 0.864,-0.684 0.153333,-0.136 0.281333,-0.28 0.425333,-0.418666 0.221333,-0.210667 0.452,-0.421334 0.649333,-0.64 0.138667,-0.153334 0.248,-0.312 0.373334,-0.468 0.172,-0.210667 0.356,-0.42 0.506666,-0.636 0.113334,-0.164 0.2,-0.333334 0.301334,-0.5 0.129333,-0.212 0.272,-0.422667 0.381333,-0.637334 0.08933,-0.174666 0.148,-0.353333 0.224,-0.529333 0.08933,-0.212 0.193333,-0.422667 0.264,-0.636 0.06,-0.182667 0.09067,-0.366667 0.137333,-0.550667 0.05333,-0.210666 0.12,-0.421333 0.154667,-0.632 0.02933,-0.186666 0.03067,-0.374666 0.04667,-0.561333 0.292,-3.410667 -1.794667,-6.881333 -6.304,-9.484 -8.442667,-4.874666 -22.090666,-4.874666 -30.469333,-0.0053 -4.181334,2.429333 -6.265334,5.612 -6.26,8.797333 0,0.212 0.032,0.424 0.05067,0.636"
     style="fill:#1377d9;fill-opacity:1;fill-rule:nonzero;stroke:none;stroke-width:0.133333"
     id="path4034" />
  <path
     d="m 55.170571,25.528327 c -0.01467,0.168 -0.01467,0.336 -0.04267,0.501333 -0.03067,0.189333 -0.08933,0.376 -0.136,0.565333 -0.04267,0.164 -0.06933,0.328 -0.124,0.490667 -0.06267,0.190667 -0.154666,0.378667 -0.236,0.568 -0.06667,0.157333 -0.12,0.317333 -0.198666,0.472 -0.09733,0.193333 -0.225334,0.38 -0.341334,0.569333 -0.09067,0.149334 -0.166666,0.3 -0.269333,0.446667 -0.133333,0.192 -0.297333,0.38 -0.450667,0.568 -0.113333,0.138667 -0.210666,0.281333 -0.333333,0.417333 -0.176,0.194667 -0.382667,0.382667 -0.58,0.572 -0.129333,0.124 -0.242667,0.252 -0.38,0.373334 -0.237333,0.209333 -0.506667,0.409333 -0.770667,0.609333 -0.125333,0.096 -0.234666,0.194667 -0.365333,0.288 -0.408,0.290667 -0.844,0.572 -1.309333,0.844 -7.488,4.350666 -19.670666,4.350666 -27.198667,0.004 -0.472,-0.272 -0.914666,-0.556 -1.329333,-0.848 -0.14133,-0.101333 -0.258663,-0.208 -0.39333,-0.309333 -0.258667,-0.197334 -0.524,-0.392 -0.758667,-0.596 -0.144,-0.128 -0.264,-0.26 -0.398666,-0.390667 -0.196,-0.186667 -0.401334,-0.370667 -0.576,-0.562667 -0.126667,-0.138666 -0.226667,-0.282666 -0.342667,-0.425333 -0.154667,-0.188 -0.32,-0.374667 -0.456,-0.568 -0.105333,-0.149333 -0.184,-0.304 -0.278667,-0.457333 -0.116,-0.188 -0.244,-0.374667 -0.341333,-0.565334 -0.08267,-0.16 -0.137333,-0.322666 -0.206667,-0.485333 -0.08133,-0.188 -0.174666,-0.373333 -0.237333,-0.562667 -0.05467,-0.164 -0.084,-0.328 -0.125333,-0.493333 -0.04933,-0.190667 -0.110667,-0.38 -0.141334,-0.572 -0.02933,-0.166667 -0.03067,-0.334667 -0.04533,-0.502667 -0.01733,-0.189333 -0.044,-0.377333 -0.04533,-0.566666 l -0.0027,-0.02933 -0.04,39.166666 c -0.0093,2.869333 1.885334,5.745333 5.678667,7.934667 7.528001,4.346666 19.709334,4.346666 27.197333,-0.0053 3.716,-2.16 5.576,-4.988 5.584,-7.82 l 0.04,-39.165332 c 0,0.178667 -0.02933,0.356 -0.04533,0.534667"
     style="fill:#004b95;fill-opacity:1;fill-rule:nonzero;stroke:none;stroke-width:0.133333"
     id="path4036" />
  <path
     d="m 57.481238,15.378994 c -0.016,0.186666 -0.01733,0.374666 -0.04667,0.561333 -0.03467,0.212 -0.101333,0.421333 -0.154667,0.632 -0.04667,0.184 -0.07733,0.368 -0.137333,0.550667 -0.07067,0.214666 -0.174667,0.424 -0.264,0.637333 -0.076,0.176 -0.134667,0.353333 -0.224,0.528 -0.109333,0.214667 -0.252,0.425333 -0.381333,0.638667 -0.101334,0.166666 -0.188,0.334666 -0.301334,0.5 -0.150666,0.214666 -0.334666,0.424 -0.506666,0.635999 -0.125334,0.154667 -0.234667,0.313334 -0.373334,0.466667 -0.197333,0.218667 -0.428,0.429333 -0.649333,0.641333 -0.144,0.138667 -0.272,0.281334 -0.425333,0.417334 -0.266667,0.234666 -0.568,0.458666 -0.864,0.684 -0.14,0.106666 -0.261334,0.218666 -0.408,0.322666 -0.457334,0.325334 -0.946667,0.641334 -1.468,0.944 -8.388,4.874667 -22.036,4.874667 -30.470666,0.0067 -0.529334,-0.306667 -1.025334,-0.624 -1.488,-0.952 -0.158667,-0.112 -0.292,-0.232 -0.442667,-0.346667 -0.28933,-0.220033 -0.586664,-0.438699 -0.847997,-0.666699 -0.162667,-0.142667 -0.297333,-0.292 -0.448,-0.437334 -0.218667,-0.209333 -0.449333,-0.416 -0.644,-0.630666 -0.142667,-0.156 -0.256,-0.318667 -0.385333,-0.476 -0.173334,-0.212 -0.358667,-0.42 -0.509334,-0.636 -0.118666,-0.169333 -0.208,-0.342667 -0.313333,-0.513333 -0.129333,-0.210667 -0.273333,-0.42 -0.382667,-0.633334 -0.092,-0.18 -0.154666,-0.362666 -0.232,-0.542666 -0.09067,-0.210667 -0.194666,-0.42 -0.265333,-0.632 -0.06267,-0.182667 -0.09333,-0.368 -0.141333,-0.552 -0.05467,-0.213334 -0.122667,-0.425334 -0.158667,-0.641334 -0.03067,-0.186666 -0.032,-0.374666 -0.04933,-0.561333 -0.01867,-0.213333 -0.05067,-0.424 -0.05067,-0.637333 l -0.0027,-0.032 -0.04533,43.878665 c -0.0093,3.216 2.112,6.436 6.361333,8.889333 8.433334,4.869334 22.081333,4.869334 30.470666,-0.0053 4.161334,-2.42 6.245334,-5.588 6.254667,-8.76 l 0.04667,-43.878665 c -0.0013,0.2 -0.03467,0.4 -0.052,0.6"
     style="fill:#0060ad;fill-opacity:1;fill-rule:nonzero;stroke:none;stroke-width:0.133333"
     id="path4038" />
  <path
     d="m 14.498572,15.324327 c 0.01733,0.186667 0.01867,0.374667 0.04933,0.561333 0.036,0.216 0.104,0.428 0.158666,0.641334 0.048,0.184 0.07867,0.369333 0.141334,0.552 0.07067,0.212 0.174666,0.421333 0.265333,0.632 0.07733,0.18 0.14,0.362666 0.232,0.542666 0.109333,0.213334 0.253333,0.422667 0.382667,0.633334 0.105333,0.170666 0.194666,0.344 0.313333,0.513333 0.150667,0.216 0.336,0.424 0.509333,0.636 0.129334,0.157333 0.242667,0.32 0.385334,0.476 0.194666,0.214666 0.425333,0.421333 0.644,0.630666 0.150666,0.145334 0.285333,0.294667 0.448,0.437334 0.261333,0.228 0.558666,0.446666 0.848,0.666666 0.150666,0.114667 0.284,0.234667 0.442666,0.346667 0.462667,0.328 0.958667,0.645333 1.488,0.952 8.434667,4.868 22.082667,4.868 30.470667,-0.0067 0.521333,-0.302666 1.012,-0.618666 1.468,-0.944 0.146666,-0.104 0.268,-0.216 0.408,-0.322666 0.296,-0.225334 0.597333,-0.449334 0.864,-0.684 0.153333,-0.136 0.281333,-0.278667 0.425333,-0.417334 0.221333,-0.213333 0.452,-0.422666 0.649333,-0.641333 0.138667,-0.153333 0.248,-0.312 0.373334,-0.466667 0.172,-0.211999 0.356,-0.421333 0.506666,-0.635999 0.113334,-0.165334 0.2,-0.333334 0.301334,-0.5 0.129333,-0.213334 0.272,-0.422667 0.381333,-0.638667 0.08933,-0.174667 0.148,-0.352 0.224,-0.528 0.08933,-0.213333 0.193333,-0.422667 0.264,-0.637333 0.06,-0.182667 0.09067,-0.366667 0.137333,-0.550667 0.05333,-0.210667 0.12,-0.42 0.154667,-0.632 0.02933,-0.186667 0.03067,-0.374667 0.04667,-0.561333 0.291997,-3.410634 -1.79467,-6.8813004 -6.304003,-9.4839671 -8.442667,-4.8746665 -22.090666,-4.8746665 -30.469333,-0.00533 -4.181333,2.4293333 -6.265333,5.6133331 -6.26,8.7973341 0,0.213333 0.032,0.424 0.05067,0.637333"
     style="fill:#1377d9;fill-opacity:1;fill-rule:nonzero;stroke:none;stroke-width:0.133333"
     id="path4040" />
  <path
     d="m 14.505238,14.986994 c 0,0 0.03467,0.209333 0.1,0.6 0.04,0.168 0.06,0.444 0.141334,0.688 0.08933,0.268 0.190666,0.574666 0.305333,0.917333 0.03467,0.141333 0.156,0.332 0.236,0.509333 0.08933,0.174667 0.181333,0.358667 0.278667,0.549334 l 0.07467,0.149333 0.08533,0.12 0.202666,0.290667 c 0.132,0.189333 0.269334,0.384 0.412,0.586666 0.122667,0.157334 0.338667,0.376 0.510667,0.570667 0.141333,0.14 0.374667,0.425333 0.537333,0.562666 0.208,0.184 0.42,0.372 0.638667,0.565334 l 0.34,0.306666 0.348,0.257334 c 0.549333,0.393333 0.94,0.709333 1.572,1.052 0.293333,0.170666 0.592,0.345333 0.894667,0.522666 0.298666,0.14 0.602666,0.281334 0.910666,0.426667 1.309334,0.636 2.636,1.038667 4.110667,1.526667 1.472,0.404 3.014667,0.76 4.612,0.957333 1.590667,0.24 3.230667,0.306667 4.862666,0.322667 0.816,0.02933 1.633334,-0.0093 2.448,-0.01867 0.810667,-0.06933 1.624,-0.08533 2.42,-0.197333 0.798667,-0.102667 1.593334,-0.189334 2.362667,-0.356 0.778667,-0.128 1.533333,-0.310667 2.270667,-0.510667 1.478666,-0.392 2.873333,-0.864 4.173333,-1.388 0.613333,-0.304 1.274666,-0.58 1.808,-0.882667 0.292,-0.173333 0.58,-0.342666 0.862666,-0.509333 l 0.386667,-0.228 0.385333,-0.281333 c 0.246667,-0.178667 0.488,-0.354667 0.724,-0.526667 0.189334,-0.122667 0.453334,-0.402667 0.625334,-0.530667 0.210666,-0.182666 0.414666,-0.36 0.613333,-0.533333 0.177333,-0.193333 0.349333,-0.382667 0.516,-0.565333 0.16,-0.186667 0.370667,-0.382667 0.470667,-0.544 0.132,-0.190667 0.258666,-0.372 0.381333,-0.548 0.126667,-0.205333 0.253333,-0.326667 0.334667,-0.518667 0.088,-0.176 0.170666,-0.344 0.250666,-0.502666 0.366667,-0.661334 0.448,-1.184 0.605334,-1.566667 0.07067,-0.382667 0.108,-0.585333 0.108,-0.585333 l 0.113333,0.01334 c 0,0 -0.02,0.210667 -0.05733,0.605333 -0.04667,0.192 -0.104,0.430667 -0.172,0.709334 -0.03467,0.14 -0.072,0.290666 -0.113334,0.450666 -0.06267,0.150667 -0.128,0.312 -0.198666,0.481334 -0.142667,0.344 -0.285334,0.729333 -0.533334,1.101333 -0.226666,0.385333 -0.465333,0.805333 -0.804,1.193333 -0.16,0.201333 -0.325333,0.409333 -0.496,0.624 -0.193333,0.192 -0.392,0.390667 -0.596,0.594667 -0.397333,0.428 -0.873333,0.797333 -1.373333,1.189333 -0.996,0.781333 -2.186667,1.464 -3.481333,2.118667 -1.318667,0.596 -2.74,1.165333 -4.266667,1.577333 -0.758666,0.218667 -1.536,0.418667 -2.336,0.564 -0.793333,0.184 -1.609333,0.286667 -2.430666,0.404 -0.82,0.128 -1.656,0.158667 -2.490667,0.242667 -0.838667,0.02133 -1.681333,0.07333 -2.522667,0.05733 -1.682666,-0.03733 -3.369333,-0.136 -5.006666,-0.408 -1.64267,-0.22933 -3.23067,-0.62133 -4.74667,-1.062664 -1.494666,-0.496 -2.941333,-1.036 -4.210667,-1.722666 -0.321333,-0.169334 -0.638666,-0.336 -0.950666,-0.5 -0.294667,-0.189334 -0.585333,-0.376 -0.872,-0.558667 -0.582667,-0.342671 -1.098667,-0.781337 -1.589333,-1.166671 -0.510667,-0.38 -0.902667,-0.849333 -1.325334,-1.238666 -0.381333,-0.44 -0.718666,-0.866667 -1.026666,-1.281333 -0.257334,-0.442667 -0.537334,-0.838667 -0.722667,-1.246667 -0.166667,-0.410667 -0.349333,-0.781333 -0.458667,-1.137333 -0.088,-0.357334 -0.168,-0.677334 -0.237333,-0.956 -0.064,-0.289334 -0.056,-0.522667 -0.08133,-0.729334 -0.03067,-0.390666 -0.048,-0.601333 -0.048,-0.601333 l 0.114667,-0.0053"
     style="fill:#a9d4ff;fill-opacity:1;fill-rule:nonzero;stroke:none;stroke-width:0.133333"
     id="path4042" />
  <path
     d="m 24.346572,10.438994 c 6.382666,-3.7093334 16.778666,-3.7106667 23.210666,0.004 2.685333,1.550666 4.226666,3.506666 4.672,5.528 0.03467,-0.128 0.072,-0.254667 0.092,-0.384 0.024,-0.141334 0.02533,-0.285334 0.03733,-0.426667 0.221333,-2.598667 -1.368,-5.2426665 -4.801333,-7.2239998 -6.432,-3.7146665 -16.828,-3.7146665 -23.210666,-0.00533 -3.185331,1.8506633 -4.771997,4.2759968 -4.769331,6.7013298 0,0.161333 0.024,0.324 0.03867,0.485333 0.01333,0.142667 0.01467,0.285334 0.03733,0.429334 l 0.084,0.334666 c 0.453334,-1.990666 1.977333,-3.913333 4.609334,-5.442666"
     style="fill:#004b95;fill-opacity:1;fill-rule:nonzero;stroke:none;stroke-width:0.133333"
     id="path4044" />
  <path
     d="M 46.586571,9.9363272 C 40.503905,6.9349939 31.566572,6.9043273 25.471905,9.8483272 L 36.141238,16.006994 46.586571,9.9363272"
     style="fill:#e0e0e0;fill-opacity:1;fill-rule:nonzero;stroke:none;stroke-width:0.133333"
     id="path4046" />
  <path
     d="m 47.823905,10.610994 -10.48,6.090666 9.14,5.277333 c 0.393333,-0.189333 0.778666,-0.388 1.148,-0.602666 0.397333,-0.232 0.770666,-0.472 1.118666,-0.72 l 0.310667,-0.245334 c 0.225333,-0.172 0.454666,-0.342666 0.657333,-0.521333 l 0.324,-0.317333 c 0.169333,-0.162667 0.345333,-0.322667 0.496,-0.489333 l 0.284,-0.354667 c 0.130667,-0.162667 0.270667,-0.321333 0.385333,-0.485333 0.08667,-0.125334 0.152,-0.254667 0.230667,-0.381334 0.09733,-0.161333 0.206667,-0.321333 0.289333,-0.485333 0.068,-0.133333 0.113334,-0.269333 0.170667,-0.402667 0.06933,-0.162666 0.146667,-0.322666 0.201333,-0.485333 0.04533,-0.138667 0.06933,-0.278667 0.104,-0.418667 l 0.02533,-0.09867 c -0.430663,-1.950663 -1.890663,-3.835996 -4.405329,-5.359996"
     style="fill:#e0e0e0;fill-opacity:1;fill-rule:nonzero;stroke:none;stroke-width:0.133333"
     id="path4048" />
  <path
     d="m 24.221238,10.517661 c -2.552,1.517333 -4.038666,3.406666 -4.484,5.363999 l 0.03733,0.153334 c 0.036,0.138666 0.06133,0.28 0.106667,0.42 0.05467,0.161333 0.134667,0.32 0.204,0.481333 0.05867,0.137333 0.105333,0.276 0.176,0.413333 0.084,0.162667 0.192,0.321334 0.292,0.482667 0.08,0.129333 0.146667,0.261333 0.238667,0.390667 0.114666,0.164 0.256,0.322666 0.388,0.484 0.09867,0.121333 0.183999,0.244 0.291999,0.362666 0.149334,0.164 0.325334,0.321334 0.490667,0.48 0.116,0.112 0.217333,0.225334 0.341333,0.333333 0.2,0.174667 0.425334,0.341334 0.648,0.508 0.113334,0.088 0.214667,0.178667 0.336,0.264 0.352001,0.250667 0.730668,0.492 1.133334,0.725334 0.42,0.241333 0.857334,0.466666 1.309334,0.677333 l 9.208,-5.352 -10.717334,-6.187999"
     style="fill:#e0e0e0;fill-opacity:1;fill-rule:nonzero;stroke:none;stroke-width:0.133333"
     id="path4050" />
  <path
     d="m 27.125238,22.638993 c 5.468,2.046667 12.565333,2.028 17.981333,-0.06267 l -8.965333,-5.176 -9.016,5.238666"
     style="fill:#e0e0e0;fill-opacity:1;fill-rule:nonzero;stroke:none;stroke-width:0.133333"
     id="path4052" />
  <path
     d="m 47.823905,10.610994 -0.266667,-0.168 c -0.312,-0.181333 -0.641333,-0.344 -0.970667,-0.5066668 L 36.141238,16.006994 25.471905,9.8483272 c -0.386667,0.1853338 -0.764,0.3799998 -1.125333,0.5906668 l -0.125334,0.07867 10.717334,6.187999 -9.208,5.352 c 0.450666,0.210667 0.917333,0.402667 1.394666,0.581333 l 9.016,-5.238666 8.965333,5.176 c 0.473334,-0.182667 0.932,-0.382667 1.377334,-0.597334 l -9.14,-5.277333 10.48,-6.090666"
     style="fill:#596177;fill-opacity:1;fill-rule:nonzero;stroke:none;stroke-width:0.133333"
     id="path4054" />
  <path
     d="m 20.945238,55.676326 c -4.356,-2.514667 -6.530666,-5.816 -6.521333,-9.112 l -0.0067,2 c -0.008,3.296 2.166667,6.597333 6.522667,9.112 8.662667,5.001333 22.652,5.001333 31.250666,0.004 0.216,-0.125333 0.426667,-0.253333 0.632,-0.382667 l 0.0053,-2 c -0.205333,0.129334 -0.416,0.257334 -0.632,0.382667 -8.598666,4.997333 -22.587999,4.997333 -31.250666,-0.004"
     style="fill:#ffffff;fill-opacity:1;fill-rule:nonzero;stroke:none;stroke-width:0.133333"
     id="path4056" />
  <path
     d="m 52.838571,51.297659 c -0.204,0.129334 -0.414667,0.257334 -0.630667,0.382667 -8.598666,4.997333 -22.587999,4.997333 -31.251999,-0.004 -4.354667,-2.514667 -6.530667,-5.816 -6.52,-9.112 l -0.0067,2 c -0.0093,3.296 2.166667,6.597333 6.521333,9.112 8.662667,5.001333 22.652,5.001333 31.250667,0.004 0.217333,-0.125333 0.426666,-0.253333 0.632,-0.382667 l 0.0053,-2"
     style="fill:#ffffff;fill-opacity:1;fill-rule:nonzero;stroke:none;stroke-width:0.133333"
     id="path4058" />
  <path
     d="m 52.850571,47.297659 c -0.205333,0.129334 -0.416,0.257334 -0.632,0.382667 -8.598666,4.997333 -22.587999,4.997333 -31.250666,-0.004 -4.356,-2.514666 -6.530667,-5.816 -6.521333,-9.112 l -0.0053,2 c -0.0093,3.296 2.165333,6.597333 6.52,9.112 8.663999,5.001333 22.653332,5.001333 31.251999,0.004 0.216,-0.125333 0.426666,-0.253333 0.632,-0.382667 l 0.0053,-2"
     style="fill:#ffffff;fill-opacity:1;fill-rule:nonzero;stroke:none;stroke-width:0.133333"
     id="path4060" />
  <path
     d="m 52.861238,43.29766 c -0.205334,0.129333 -0.414667,0.257333 -0.630667,0.382666 -8.6,4.997333 -22.589333,4.997333 -31.251999,-0.004 -4.354667,-2.514666 -6.529334,-5.816 -6.521334,-9.112 l -0.0053,2 c -0.0093,3.296 2.165334,6.597334 6.521334,9.112 8.662666,5.001333 22.651999,5.001333 31.250665,0.004 0.216,-0.125333 0.426667,-0.252 0.632,-0.382666 l 0.0053,-2"
     style="fill:#ffffff;fill-opacity:1;fill-rule:nonzero;stroke:none;stroke-width:0.133333"
     id="path4062" />
  <path
     d="m 52.873238,39.29766 c -0.205334,0.129333 -0.416,0.257333 -0.632,0.382666 -8.598667,4.997334 -22.588,4.997334 -31.250666,-0.004 -4.356,-2.514666 -6.530667,-5.816 -6.521334,-9.111999 l -0.0053,2 c -0.0093,3.295999 2.165334,6.597333 6.521334,9.111999 8.662666,5.001333 22.651999,5.001333 31.250665,0.004 0.216,-0.125333 0.426667,-0.252 0.630667,-0.382666 l 0.0067,-2"
     style="fill:#ffffff;fill-opacity:1;fill-rule:nonzero;stroke:none;stroke-width:0.133333"
     id="path4064" />
  <path
     d="m 52.883904,35.29766 c -0.204,0.129333 -0.414666,0.257333 -0.630666,0.382666 -8.598667,4.997334 -22.588,4.997334 -31.252,-0.004 -4.354666,-2.514666 -6.530666,-5.815999 -6.52,-9.111999 l -0.0067,2 c -0.0093,3.296 2.166667,6.597333 6.521334,9.111999 8.662667,5.001334 22.653333,5.001334 31.251999,0.004 0.214667,-0.125333 0.425334,-0.252 0.630667,-0.382666 l 0.0053,-2"
     style="fill:#ffffff;fill-opacity:1;fill-rule:nonzero;stroke:none;stroke-width:0.133333"
     id="path4066" />
  <path
     d="m 21.013238,31.676327 c -4.356,-2.514667 -6.530666,-5.816 -6.521333,-9.112 l -0.0053,2 c -0.0093,3.296 2.165333,6.597333 6.521333,9.111999 8.662667,5.001334 22.652,5.001334 31.250666,0.0053 0.216,-0.126667 0.426667,-0.253334 0.632,-0.384 l 0.0053,-1.998667 c -0.205333,0.128 -0.416,0.256 -0.632,0.381334 -8.598666,4.997333 -22.587999,4.997333 -31.250665,-0.004"
     style="fill:#ffffff;fill-opacity:1;fill-rule:nonzero;stroke:none;stroke-width:0.133333"
     id="path4068" />
</svg>
