<?xml version="1.0" encoding="UTF-8" standalone="no"?>
<svg
   xmlns:dc="http://purl.org/dc/elements/1.1/"
   xmlns:cc="http://creativecommons.org/ns#"
   xmlns:rdf="http://www.w3.org/1999/02/22-rdf-syntax-ns#"
   xmlns:svg="http://www.w3.org/2000/svg"
   xmlns="http://www.w3.org/2000/svg"
   xmlns:sodipodi="http://sodipodi.sourceforge.net/DTD/sodipodi-0.dtd"
   xmlns:inkscape="http://www.inkscape.org/namespaces/inkscape"
   width="573"
   height="359"
   version="1.1"
   id="svg6"
   sodipodi:docname="leaf-pink.svg"
   inkscape:version="1.0.1 (3bc2e813f5, 2020-09-07)">
  <metadata
     id="metadata12">
    <rdf:RDF>
      <cc:Work
         rdf:about="">
        <dc:format>image/svg+xml</dc:format>
        <dc:type
           rdf:resource="http://purl.org/dc/dcmitype/StillImage" />
        <dc:title></dc:title>
      </cc:Work>
    </rdf:RDF>
  </metadata>
  <defs
     id="defs10">
    <clipPath
       clipPathUnits="userSpaceOnUse"
       id="clipPath816">
      <path
         d="m 405.016,2737.18 c -0.973,0 -1.95,0.01 -2.926,0.03 l 0.004,19.44 c 1.019,-0.02 2.035,-0.04 3.054,-0.04 0.012,0 0.028,0 0.04,0 v 0 0 c 0.015,0 0.023,0 0.035,0 4.898,0.01 9.797,0.26 14.629,0.76 l -0.004,-19.41 c -4.899,-0.52 -9.864,-0.78 -14.832,-0.78 m -20.356,1.47 c -13.887,2.04 -27.043,6.2 -37.926,12.49 -16.238,9.37 -24.347,21.68 -24.312,33.97 l 0.176,19.43 0.007,-0.11 v 0 l 0.196,-2.44 0.191,-2.15 0.606,-2.45 0.535,-2.11 1.019,-2.41 0.883,-2.08 1.465,-2.42 1.195,-1.96 1.95,-2.43 1.468,-1.82 2.461,-2.41 1.711,-1.67 c 1.004,-0.87 2.141,-1.71 3.25,-2.55 l 1.688,-1.33 c 1.769,-1.25 3.668,-2.46 5.691,-3.63 0.383,-0.22 0.766,-0.44 1.152,-0.65 10.606,-5.9 23.258,-9.83 36.594,-11.81 v -19.46 m 52.621,2.33 0.004,19.39 c 9.363,2.3 18.137,5.65 25.781,10.04 0.106,0.06 0.207,0.12 0.313,0.18 v 0 c 1.992,1.16 3.859,2.37 5.605,3.61 l 1.563,1.23 c 1.129,0.87 2.281,1.72 3.301,2.62 l 1.629,1.59 2.48,2.46 1.43,1.78 1.933,2.43 1.153,1.91 1.457,2.44 0.851,2.02 1.012,2.43 0.527,2.11 0.586,2.41 0.188,2.15 v 0 l 0.195,2.3 -0.18,-19.44 c -0.035,-12.12 -8,-24.24 -23.91,-33.48 -7.672,-4.46 -16.492,-7.85 -25.918,-10.18"
         id="path814" />
    </clipPath>
  </defs>
  <sodipodi:namedview
     pagecolor="#ffffff"
     bordercolor="#666666"
     borderopacity="1"
     objecttolerance="10"
     gridtolerance="10"
     guidetolerance="10"
     inkscape:pageopacity="0"
     inkscape:pageshadow="2"
     inkscape:window-width="1271"
     inkscape:window-height="762"
     id="namedview8"
     showgrid="false"
     inkscape:zoom="0.66345365"
     inkscape:cx="362.42001"
     inkscape:cy="132.08571"
     inkscape:window-x="0"
     inkscape:window-y="0"
     inkscape:window-maximized="0"
     inkscape:current-layer="svg6" />
  <path
     d="m 122.50877,190.82266 c 0.0731,-0.83515 -0.43755,-1.68238 -1.5414,-2.3239 -2.06849,-1.19217 -5.41091,-1.19217 -7.46311,0 -1.02092,0.59309 -1.53168,1.37378 -1.53168,2.15446 v -0.005 l -0.009,100.36928 c -0.004,0.78069 0.51562,1.57349 1.55592,2.17262 2.06609,1.19222 5.40606,1.19222 7.46066,0 1.02093,-0.59309 1.52928,-1.3677 1.52928,-2.14234 l 0.0136,-100.36928 -0.0136,0.14524"
     style="fill:#676767;fill-opacity:1;fill-rule:nonzero;stroke:none;stroke-width:0.133333"
     id="path792" />
  <path
     d="m 143.80632,180.0928 c 0.0758,-0.83515 -0.43755,-1.68238 -1.54385,-2.31782 -2.06364,-1.19222 -5.40669,-1.19222 -7.45825,-0.005 -1.02397,0.59913 -1.53473,1.37982 -1.53232,2.1605 v -0.0136 l -0.0136,100.36928 c -0.002,0.78672 0.51988,1.57953 1.55774,2.17866 2.06368,1.18614 5.40669,1.18614 7.4607,0 1.01911,-0.5931 1.52987,-1.3677 1.53169,-2.14838 l 0.0136,-100.36933 -0.0181,0.14525"
     style="fill:#676767;fill-opacity:1;fill-rule:nonzero;stroke:none;stroke-width:0.133333"
     id="path794" />
  <path
     d="m 133.25801,162.07657 0.0595,20.21303 1.96682,1.13776 -0.0595,-20.23119 -1.96682,-1.1196"
     style="fill:#676767;fill-opacity:1;fill-rule:nonzero;stroke:none;stroke-width:0.133333"
     id="path796" />
  <path
     d="m 115.45479,179.50578 -1.95715,1.13168 0.002,0.50835 -8.29767,17.37475 1.96506,1.14379 8.29762,-17.37475 -0.009,-2.78382"
     style="fill:#676767;fill-opacity:1;fill-rule:nonzero;stroke:none;stroke-width:0.133333"
     id="path798" />
  <path
     d="m 127.3127,171.53555 -1.96442,-1.14379 -9.86262,-5.61607 v 0.0182 l 11.82704,6.7417"
     style="fill:#636363;fill-opacity:1;fill-rule:nonzero;stroke:none;stroke-width:0.133333"
     id="path800" />
  <path
     d="m 140.69507,167.72291 -0.009,-2.78382 4.14911,-2.39652 -0.0758,-27.14846 -21.38465,12.3457 v 0.44799 l 0.0227,8.2668 9.85777,5.6221 1.96687,1.1196 0.0594,20.23119 13.78179,-7.95208 -8.37088,-7.75237"
     style="fill:#a0a0a0;fill-opacity:1;fill-rule:nonzero;stroke:none;stroke-width:0.133333"
     id="path802" />
  <path
     d="m 123.3766,147.73981 21.38469,-12.3457 -1.96686,-1.14379 -21.38466,12.3457 v 0.45388 l 0.0227,8.26073 1.96682,1.14379 -0.0227,-8.26676 v -0.44799"
     style="fill:#676767;fill-opacity:1;fill-rule:nonzero;stroke:none;stroke-width:0.133333"
     id="path804" />
  <path
     d="m 115.44993,152.31498 -1.96441,-1.14379 -4.34764,2.50545 0.0803,27.15449 1.96197,1.14379 -0.0758,-27.15449 4.34518,-2.50545"
     style="fill:#676767;fill-opacity:1;fill-rule:nonzero;stroke:none;stroke-width:0.133333"
     id="path806" />
  <path
     d="m 127.3127,171.53555 -11.82704,-6.7417 v -0.0182 l -0.0363,-12.46071 -4.34523,2.50545 0.0758,27.15449 2.31723,-1.33746 1.95715,-1.13168 0.009,2.78382 -8.29762,17.37475 15.16945,-8.76299 -0.0409,-14.50619 5.02302,-2.89883 -0.005,-1.96079"
     style="fill:#a0a0a0;fill-opacity:1;fill-rule:nonzero;stroke:none;stroke-width:0.133333"
     id="path808" />
  <g
     id="g810"
     transform="matrix(0.60518115,0,0,-0.60518115,-120.82131,1901.1917)"
     style="stroke-width:0.22032">
    <g
       id="g812"
       clip-path="url(#clipPath816)"
       style="stroke-width:0.22032">
      <path
         d="m 322.387,2737.18 h 164.902 v 67.3594 H 322.387 Z"
         style="fill:#d8901a;fill-opacity:1;fill-rule:nonzero;stroke:none;stroke-width:0.22032"
         id="path818" />
    </g>
  </g>
  <path
     d="m 122.51603,244.6838 c -3.54635,-0.0726 -7.08729,-0.36311 -10.54831,-0.87147 v -11.77684 c 3.46347,0.51444 7.00196,0.81096 10.55072,0.88358 l -0.002,11.76473"
     style="fill:#c9800b;fill-opacity:1;fill-rule:nonzero;stroke:none;stroke-width:0.133333"
     id="path820" />
  <path
     d="m 133.26282,244.22991 0.002,-11.74657 c 3.60023,-0.37536 7.13872,-0.98039 10.55013,-1.81554 l -0.002,11.73445 c -3.40896,0.84123 -6.94991,1.45243 -10.55013,1.82766"
     style="fill:#c9800b;fill-opacity:1;fill-rule:nonzero;stroke:none;stroke-width:0.133333"
     id="path822" />
  <path
     d="m 124.3909,232.94327 c -0.009,0 -0.0182,0 -0.0227,0 -0.61669,0 -1.23157,-0.0136 -1.84822,-0.0227 v -9.0656 c 0.57671,0.0136 1.15105,0.0182 1.72536,0.0227 0.009,0 0.0182,0 0.0272,0 v 0 0 c 0.009,0 0.0182,0 0.0227,0 3.01199,-0.005 6.02157,-0.19381 8.97364,-0.58098 l -0.002,9.18665 c -2.92425,0.30275 -5.88903,0.45389 -8.85323,0.45993 -0.009,0 -0.0136,0 -0.0227,0 v 0 m -12.42313,-0.90778 c -8.06828,-1.19825 -15.727464,-3.57662 -22.146004,-7.14715 -0.23375,-0.12709 -0.46541,-0.26008 -0.69717,-0.39352 -1.22431,-0.70807 -2.37355,-1.44037 -3.44408,-2.19681 l -1.02143,-0.80488 c -0.67111,-0.50835 -1.35921,-1.0167 -1.96682,-1.54321 l -1.03545,-1.01067 -1.48938,-1.45847 -0.88839,-1.10144 -1.18011,-1.47059 -0.72317,-1.18614 -0.88662,-1.46456 -0.53436,-1.25876 -0.6167,-1.45852 -0.32362,-1.27691 -0.36674,-1.48271 -0.11574,-1.30111 -0.11846,-1.47667 v 0 c -0.009,-5.76131 2.98112,-11.50447 8.89616,-16.43067 l -0.0182,12.52725 c 0,0.0227 0,0.0409 0,0.0667 0.0182,6.07603 4.04018,12.15207 12.06611,16.7817 0.23602,0.13935 0.47263,0.27233 0.71169,0.40532 4.666544,2.56596 10.122244,4.3815 15.899944,5.42848 l -0.002,9.25319 m 31.84767,-1.3677 v -9.67081 c 3.16994,-1.00458 6.15832,-2.26943 8.86771,-3.80052 0.15114,-0.0849 0.30001,-0.1693 0.45161,-0.25417 v 0 c 7.89099,-4.58729 11.84343,-10.59066 11.85977,-16.61223 l 0.0136,-12.72092 c 6.47723,5.37401 9.4844,11.72237 8.95,17.99812 v 0 l -0.11393,1.30111 -0.35448,1.45851 -0.31908,1.27692 -0.61243,1.47059 -0.51503,1.22245 -0.88172,1.47667 -0.6978,1.15587 -1.1698,1.47059 -0.86542,1.07725 -1.50082,1.48875 -0.98584,0.96224 c -0.61729,0.54466 -1.31446,1.05905 -1.99774,1.58556 l -0.94589,0.74437 c -1.05665,0.75041 -2.18651,1.48271 -3.39203,2.18469 v 0 c -0.064,0.0363 -0.12527,0.0726 -0.18927,0.10893 -4.62601,2.65678 -9.93588,4.6841 -15.60219,6.07603"
     style="fill:#ffb91a;fill-opacity:1;fill-rule:nonzero;stroke:none;stroke-width:0.133333"
     id="path824" />
  <path
     d="m 122.51844,232.91907 c -3.54876,-0.0726 -7.08725,-0.36901 -10.55072,-0.88358 l 0.002,-9.25319 c 3.43501,0.62936 6.98562,0.9804 10.54831,1.07118 v 9.06559"
     style="fill:#f0a90b;fill-opacity:1;fill-rule:nonzero;stroke:none;stroke-width:0.133333"
     id="path826" />
  <path
     d="m 133.26527,232.48334 0.002,-9.18665 c 3.64561,-0.47204 7.19863,-1.2406 10.54831,-2.2997 v 9.67081 c -3.41141,0.83515 -6.9499,1.44032 -10.55013,1.81554"
     style="fill:#f0a90b;fill-opacity:1;fill-rule:nonzero;stroke:none;stroke-width:0.133333"
     id="path828" />
  <path
     d="m 124.26985,223.87767 c -0.009,0 -0.0182,0 -0.0272,0 -0.5743,-0.005 -1.14865,-0.0136 -1.72535,-0.0227 l 0.005,-33.17601 -0.0136,0.14524 c 0.0272,-0.3209 -0.0318,-0.64756 -0.17475,-0.9562 l -0.0363,-13.47133 5.02297,-2.89879 -0.005,-1.96079 -11.82704,-6.74175 11.82704,6.74175 -1.96442,-1.14379 -9.86262,-5.61611 -0.0363,-12.46067 -4.34518,2.50545 4.34518,-2.50545 -1.96441,-1.14379 -4.34764,2.50545 0.0803,27.15449 1.96196,1.1438 2.31727,-1.33747 0.002,0.50835 -8.29767,17.37475 1.96505,1.1438 8.29763,-17.37475 -8.29763,17.37475 4.80575,-2.77778 -0.002,25.89568 c -5.77765,-1.05301 -11.23336,-2.86247 -15.899904,-5.42847 -0.2392,-0.13299 -0.47567,-0.26643 -0.71169,-0.40532 -8.02593,-4.62964 -12.04917,-10.70567 -12.0661,-16.78166 0,-0.0227 0,-0.0409 0,-0.0667 l 0.0181,-12.52725 0.0731,-75.22401 0.002,0.0604 c -0.002,-2.43891 0.17475,-4.59941 0.90296,-7.17748 4.75854,-16.872429 21.483924,-29.938305 40.192514,-29.938305 19.8221,0 36.30115,14.215705 39.86629,33.000535 0.55315,1.79136 0.79217,3.61294 0.64089,5.42848 l 0.0944,-1.13776 -0.002,3.24983 0.002,0.0667 -0.002,0.0667 -0.0708,71.64134 v 0 l -0.0136,12.72093 c -0.0182,6.02157 -3.96878,12.02493 -11.85977,16.61222 v 0 c -0.15114,0.0849 -0.30002,0.1693 -0.45162,0.25418 -2.70938,1.53109 -5.69776,2.79593 -8.8677,3.80052 l 0.009,-41.04944 -0.0182,0.14524 c 0.0409,-0.45388 -0.0949,-0.91984 -0.40895,-1.34953 l 5.66872,-3.26798 -8.37084,-7.75237 -0.009,-2.78382 4.14911,-2.39652 -0.0758,-27.14846 -1.96682,-1.14379 -21.3847,12.3457 v 0.45388 l 0.0227,8.26073 1.96682,1.14379 -0.0227,-8.26676 0.0227,8.26676 9.85781,5.62215 0.0522,17.48368 c -0.0272,0.12119 -0.0363,0.24192 -0.0363,0.36901 v -0.0136 l -0.005,43.37937 c -2.95208,0.38717 -5.96166,0.57494 -8.97364,0.58098 -0.005,0 -0.0182,0 -0.0227,0"
     style="fill:#ffc133;fill-opacity:1;fill-rule:nonzero;stroke:none;stroke-width:0.133333"
     id="path830" />
  <path
     d="m 122.51844,223.85348 c -3.56269,-0.0908 -7.1133,-0.44799 -10.54831,-1.07118 l 0.002,-25.89573 10.36371,-5.98521 -0.002,-1.03486 c 0.14388,0.30864 0.20334,0.63544 0.17474,0.95616 l 0.0136,-0.14525 -0.005,33.17607"
     style="fill:#e1a215;fill-opacity:1;fill-rule:nonzero;stroke:none;stroke-width:0.133333"
     id="path832" />
  <path
     d="m 133.26709,223.29669 0.005,-43.37937 v 0.0136 c 0,-0.12709 0.0136,-0.24828 0.0363,-0.36901 l 0.009,2.72935 1.96682,1.13776 8.11307,-4.6841 c 0.31409,0.42983 0.45162,0.89565 0.40895,1.34953 l 0.0182,-0.14524 -0.009,41.04944 c -3.34727,1.05905 -6.90269,1.82766 -10.54831,2.2997"
     style="fill:#e1a215;fill-opacity:1;fill-rule:nonzero;stroke:none;stroke-width:0.133333"
     id="path834" />
  <path
     d="m 135.28416,183.42736 -1.96687,-1.13776 -0.009,-2.72935 -0.0522,-17.48368 1.96687,1.1196 0.0595,20.23119"
     style="fill:#e1a215;fill-opacity:1;fill-rule:nonzero;stroke:none;stroke-width:0.133333"
     id="path836" />
  <path
     d="m 107.16684,199.66435 -1.96506,-1.14379 8.29767,-17.37475 -0.002,-0.50835 1.95715,-1.13168 0.009,2.78382 -8.29767,17.37475"
     style="fill:#e1a215;fill-opacity:1;fill-rule:nonzero;stroke:none;stroke-width:0.133333"
     id="path838" />
  <path
     d="m 127.3127,171.53555 -11.82704,-6.7417 v -0.0182 l 9.86262,5.61607 1.96442,1.14379"
     style="fill:#e0a114;fill-opacity:1;fill-rule:nonzero;stroke:none;stroke-width:0.133333"
     id="path840" />
  <path
     d="m 135.28416,183.42736 v 0 l -0.0595,-20.23119 -1.96687,-1.1196 -9.85777,-5.62215 -0.0227,-8.26676 v -0.44799 l 21.38465,-12.34569 0.0758,27.14846 -4.14911,2.39651 0.009,2.78382 8.37088,7.75237 -5.66876,3.26798 -8.11303,4.6841"
     style="fill:#ecae20;fill-opacity:1;fill-rule:nonzero;stroke:none;stroke-width:0.133333"
     id="path842" />
  <path
     d="m 123.4002,156.45442 -1.96682,-1.14379 -0.0227,-8.26073 v -0.45388 l 21.38465,-12.3457 1.96687,1.14379 -21.38469,12.3457 v 0.44799 l 0.0227,8.2668"
     style="fill:#e1a215;fill-opacity:1;fill-rule:nonzero;stroke:none;stroke-width:0.133333"
     id="path844" />
  <path
     d="m 111.18037,181.97492 -1.96197,-1.14379 -0.0803,-27.15449 4.34764,-2.50545 1.96442,1.14379 -4.34519,2.50545 0.0758,27.15449"
     style="fill:#e1a215;fill-opacity:1;fill-rule:nonzero;stroke:none;stroke-width:0.133333"
     id="path846" />
  <path
     d="m 107.16684,199.66435 8.29762,-17.37475 -0.009,-2.78382 -1.95715,1.13168 -2.31723,1.33746 -0.0758,-27.15449 4.34519,-2.50545 0.0363,12.46071 v 0.0182 l 11.82709,6.7417 0.009,1.96079 -5.02302,2.89883 0.0363,13.47133 0.002,1.03486 -10.36371,5.98521 -4.80575,2.77778"
     style="fill:#ecae20;fill-opacity:1;fill-rule:nonzero;stroke:none;stroke-width:0.133333"
     id="path848" />
  <path
     d="m 124.26985,223.87767 c -0.009,0 -0.0182,0 -0.0272,0 0.009,0 0.0182,0 0.0272,0 v 0 m 0.0227,0 c 3.01199,-0.005 6.02157,-0.19381 8.97364,-0.58098 v 0 c -2.95207,0.38717 -5.96165,0.57494 -8.97364,0.58098 m 19.52195,-2.88068 v 0 c 3.16994,-1.00459 6.15832,-2.26943 8.8677,-3.80052 -2.70938,1.53109 -5.69776,2.79593 -8.8677,3.80052 m -47.745164,-3.64316 c -0.2392,-0.13299 -0.47568,-0.26643 -0.7117,-0.40532 -8.02592,-4.62964 -12.04917,-10.70567 -12.0661,-16.7817 0.0182,6.07603 4.04018,12.15206 12.0661,16.7817 0.23602,0.13934 0.47263,0.27233 0.7117,0.40532 m 57.064344,-0.41167 v 0 c 7.89095,-4.58729 11.84338,-10.59071 11.85972,-16.61223 l 0.0136,-12.72092 v 0 l -0.0136,12.72092 c -0.0181,6.02152 -3.96877,12.02494 -11.85972,16.61223 v 0"
     style="fill:#ffb305;fill-opacity:1;fill-rule:nonzero;stroke:none;stroke-width:0.133333"
     id="path850" />
  <path
     d="m 133.26709,223.29669 v 0 c 3.64561,-0.47204 7.20103,-1.2406 10.54831,-2.2997 v 0 c -3.34968,1.0591 -6.9027,1.82766 -10.54831,2.2997"
     style="fill:#fcaf02;fill-opacity:1;fill-rule:nonzero;stroke:none;stroke-width:0.133333"
     id="path852" />
  <path
     d="m 154.35399,106.61775 c 0,7.46797 -6.0518,13.51976 -13.52217,13.51976 -7.46488,0 -13.51912,-6.05179 -13.51912,-13.51976 0,-7.467916 6.05424,-13.519716 13.51912,-13.519716 7.47037,0 13.52217,6.0518 13.52217,13.519716"
     style="fill:#ffffff;fill-opacity:1;fill-rule:nonzero;stroke:none;stroke-width:0.133333"
     id="path854" />
  <path
     d="m 235.12934,130.56477 c 0.0708,-0.83515 -0.43982,-1.68237 -1.54381,-2.3239 -2.06849,-1.19217 -5.4085,-1.19217 -7.45825,0 -1.02397,0.5931 -1.53413,1.37378 -1.53413,2.15446 v -0.005 l -0.0136,100.36929 c -0.002,0.78068 0.51561,1.57348 1.55774,2.17261 2.06427,1.19222 5.40668,1.19222 7.46129,0 1.01852,-0.59309 1.52928,-1.36769 1.53168,-2.14838 l 0.009,-100.36324 -0.0136,0.14524"
     style="fill:#676767;fill-opacity:1;fill-rule:nonzero;stroke:none;stroke-width:0.133333"
     id="path856" />
  <path
     d="m 256.4287,119.83491 c 0.0708,-0.83515 -0.43936,-1.68238 -1.5438,-2.31782 -2.06854,-1.19222 -5.4085,-1.19222 -7.4607,0 -1.02334,0.59305 -1.53654,1.37373 -1.53169,2.14838 v -0.005 l -0.0136,100.36928 c 0,0.78677 0.51983,1.57349 1.56014,2.17866 2.06368,1.19222 5.40365,1.19222 7.45825,0 1.02093,-0.59305 1.52928,-1.37374 1.53173,-2.14838 l 0.0136,-100.36928 -0.0136,0.14524"
     style="fill:#676767;fill-opacity:1;fill-rule:nonzero;stroke:none;stroke-width:0.133333"
     id="path858" />
  <path
     d="m 245.87858,101.81868 0.0563,20.21303 1.96682,1.13776 -0.0563,-20.23119 -1.96682,-1.1196"
     style="fill:#676767;fill-opacity:1;fill-rule:nonzero;stroke:none;stroke-width:0.133333"
     id="path860" />
  <path
     d="m 228.07776,119.2479 -1.9626,1.13167 0.002,0.50835 -8.29767,17.37475 1.96687,1.1438 8.29522,-17.37476 -0.004,-2.78381"
     style="fill:#676767;fill-opacity:1;fill-rule:nonzero;stroke:none;stroke-width:0.133333"
     id="path862" />
  <path
     d="m 239.93267,111.27766 -1.96682,-1.14379 -9.86203,-5.6221 v 0.0227 l 11.82885,6.7417"
     style="fill:#636363;fill-opacity:1;fill-rule:nonzero;stroke:none;stroke-width:0.133333"
     id="path864" />
  <path
     d="m 253.31563,107.46502 -0.005,-2.78382 4.14611,-2.39652 -0.0776,-27.148404 -21.38469,12.345696 v 0.447985 l 0.0227,8.266757 9.86022,5.622146 1.96682,1.11956 0.0563,20.23123 13.78483,-7.95208 -8.37088,-7.75237"
     style="fill:#a0a0a0;fill-opacity:1;fill-rule:nonzero;stroke:none;stroke-width:0.133333"
     id="path866" />
  <path
     d="m 235.99476,87.481972 21.3847,-12.345696 -1.96687,-1.143792 -21.38465,12.345695 0.002,0.453886 0.0227,8.266759 1.96441,1.13776 -0.0227,-8.266808 V 87.48179"
     style="fill:#676767;fill-opacity:1;fill-rule:nonzero;stroke:none;stroke-width:0.133333"
     id="path868" />
  <path
     d="m 228.07295,92.057144 -1.96687,-1.143795 -4.34518,2.505455 0.0781,27.154436 1.96682,1.1438 -0.0781,-27.154446 4.34523,-2.50545"
     style="fill:#676767;fill-opacity:1;fill-rule:nonzero;stroke:none;stroke-width:0.133333"
     id="path870" />
  <path
     d="m 239.93267,111.27766 -11.82885,-6.7417 v -0.0227 l -0.0318,-12.454616 -4.34524,2.50545 0.0781,27.154436 2.30937,-1.33746 1.96261,-1.13168 0.004,2.78382 -8.29521,17.37475 15.17004,-8.75695 -0.0454,-14.51223 5.02361,-2.89883 -0.005,-1.96079"
     style="fill:#a0a0a0;fill-opacity:1;fill-rule:nonzero;stroke:none;stroke-width:0.133333"
     id="path872" />
  <path
     d="m 236.90435,184.44406 c -0.58824,0 -1.17707,-0.005 -1.76775,-0.0181 l 0.002,-11.76472 c 0.61665,0.0136 1.23153,0.0227 1.84577,0.0227 0.009,0 0.0182,0 0.0272,0 v 0 0 c 0.009,0 0.0182,0 0.0227,0 2.96478,-0.005 5.92657,-0.1575 8.85077,-0.45992 l -0.002,11.74656 c -2.9666,0.31455 -5.97133,0.47205 -8.97846,0.47205 m -12.31846,-0.88962 c -8.40415,-1.23457 -16.36349,-3.75214 -22.94969,-7.55874 -9.8245,-5.67054 -14.73495,-13.1203 -14.71317,-20.55799 l 0.10394,-11.76472 0.004,0.0785 v 0 l 0.11847,1.47059 0.11574,1.30115 0.36855,1.48267 0.32453,1.27088 0.61429,1.46455 0.53677,1.25876 0.88662,1.46456 0.72077,1.18614 1.18192,1.47059 0.88657,1.10144 1.49179,1.45847 1.03785,1.01067 c 0.60522,0.52651 1.29086,1.03486 1.96442,1.54321 l 1.02097,0.79884 c 1.07117,0.76253 2.21737,1.49478 3.44227,2.20284 0.23421,0.13299 0.46537,0.26644 0.70198,0.39942 6.41859,3.56455 14.07292,5.94291 22.1436,7.14117 l -0.002,11.7768 m 31.84763,-1.41004 v -11.7345 c 5.66631,-1.39188 10.97619,-3.41926 15.60219,-6.07599 0.064,-0.0363 0.12527,-0.0726 0.18927,-0.10893 v 0 c 1.20793,-0.70202 2.34024,-1.43428 3.39443,-2.18473 l 0.9435,-0.74438 c 0.68568,-0.52042 1.38525,-1.04089 1.99768,-1.58556 l 0.98525,-0.96223 1.50386,-1.48271 0.86302,-1.08325 1.1698,-1.47059 0.69776,-1.15591 0.88358,-1.47662 0.51561,-1.2225 0.61243,-1.47663 0.31636,-1.27088 0.35948,-1.46455 0.10893,-1.29507 v 0 l 0.11801,-1.39194 -0.10666,11.76473 c -0.0182,7.34087 -4.84387,14.66959 -14.46743,20.26146 -4.64539,2.69912 -9.98309,4.75069 -15.68752,6.16078"
     style="fill:#853737;fill-opacity:1;fill-rule:nonzero;stroke:none;stroke-width:0.133333"
     id="path874" />
  <path
     d="m 235.1366,184.42591 c -3.54635,-0.0726 -7.08725,-0.36311 -10.55072,-0.87146 l 0.002,-11.77684 c 3.46106,0.51443 7.00196,0.81095 10.55076,0.88358 l -0.002,11.76472"
     style="fill:#752727;fill-opacity:1;fill-rule:nonzero;stroke:none;stroke-width:0.133333"
     id="path876" />
  <path
     d="m 245.8828,183.97202 0.002,-11.74656 c 3.60081,-0.37537 7.1369,-0.9804 10.54831,-1.81555 v 11.73445 c -3.41141,0.84123 -6.95235,1.45243 -10.55076,1.82766"
     style="fill:#752727;fill-opacity:1;fill-rule:nonzero;stroke:none;stroke-width:0.133333"
     id="path878" />
  <path
     d="m 237.01087,172.68538 c -0.005,0 -0.0182,0 -0.0272,0 -0.61429,0 -1.22912,-0.0136 -1.84582,-0.0227 v -9.06559 c 0.57676,0.0136 1.15346,0.0227 1.73022,0.0227 0.005,0 0.009,0 0.0181,0 v 0 0 c 0.009,0 0.0182,0 0.0227,0 3.01439,0 6.02338,-0.19381 8.97364,-0.58097 v 9.18665 c -2.92425,0.30274 -5.88599,0.45388 -8.85078,0.45992 -0.005,0 -0.0181,0 -0.0227,0 v 0 m -12.42259,-0.90777 c -8.06827,-1.19826 -15.72501,-3.57662 -22.14354,-7.14113 -0.23648,-0.13298 -0.46782,-0.26643 -0.70203,-0.39942 -1.2249,-0.70806 -2.3711,-1.44031 -3.44227,-2.20284 l -1.02092,-0.79884 c -0.67357,-0.50835 -1.35926,-1.0167 -1.96442,-1.54321 l -1.0379,-1.01067 -1.49179,-1.45847 -0.88658,-1.10145 -1.18191,-1.47059 -0.72078,-1.18614 -0.88657,-1.46455 -0.53681,-1.25876 -0.61425,-1.46455 -0.32452,-1.27088 -0.36856,-1.48271 -0.11574,-1.30111 -0.11846,-1.47059 v 0 c -0.009,-5.76739 2.98352,-11.51055 8.89616,-16.43675 l -0.0136,12.52725 c 0,0.0227 0,0.0486 0,0.0726 0.0136,6.07 4.04018,12.14598 12.06365,16.7817 0.0894,0.0486 0.17974,0.10303 0.26916,0.15115 0.0136,0.005 0.0272,0.0182 0.0409,0.0227 0.12527,0.0726 0.25281,0.13934 0.38308,0.21196 4.67139,2.57808 10.13436,4.38758 15.91932,5.4406 v 9.25319 m 31.84522,-1.3677 0.002,-9.67081 c 3.19839,-1.01062 6.21038,-2.29362 8.94037,-3.83683 0.12527,-0.0726 0.25054,-0.14524 0.37582,-0.21786 v 0 c 7.89579,-4.58729 11.84397,-10.59066 11.86031,-16.61223 l 0.0136,-12.72092 c 6.47727,5.37401 9.48381,11.71634 8.95004,17.99812 v 0 l -0.10893,1.29507 -0.35948,1.46455 -0.31636,1.27088 -0.61243,1.47663 -0.51561,1.22245 -0.88358,1.47667 -0.69776,1.15587 -1.1698,1.47059 -0.86302,1.08329 -1.50386,1.48271 -0.98525,0.96224 c -0.61243,0.54466 -1.312,1.06508 -1.99769,1.58556 l -0.94349,0.74437 c -1.05419,0.75041 -2.1865,1.48271 -3.39443,2.18469 v 0 c -0.064,0.0363 -0.12527,0.0726 -0.18927,0.10893 -4.626,2.65673 -9.93588,4.6841 -15.60219,6.07603"
     style="fill:#d33737;fill-opacity:1;fill-rule:nonzero;stroke:none;stroke-width:0.133333"
     id="path880" />
  <path
     d="m 235.13905,172.66119 c -3.5488,-0.0726 -7.0897,-0.36901 -10.55076,-0.88358 v -9.25319 c 3.43746,0.62935 6.98803,0.98643 10.55076,1.07117 v 9.0656"
     style="fill:#c32727;fill-opacity:1;fill-rule:nonzero;stroke:none;stroke-width:0.133333"
     id="path882" />
  <path
     d="m 245.88525,172.22546 v -9.18665 c 3.64802,-0.47205 7.20104,-1.24061 10.55071,-2.29971 l -0.002,9.67081 c -3.41141,0.83515 -6.9475,1.44032 -10.54831,1.81555"
     style="fill:#c32727;fill-opacity:1;fill-rule:nonzero;stroke:none;stroke-width:0.133333"
     id="path884" />
  <path
     d="m 236.88801,163.61978 c -0.009,0 -0.0136,0 -0.0182,0 -0.57675,0 -1.15346,-0.0136 -1.73021,-0.0227 l 0.004,-33.17602 -0.0136,0.14524 c 0.0272,-0.32089 -0.0318,-0.64152 -0.17474,-0.9562 l -0.0408,-13.47133 5.02361,-2.89883 -0.005,-1.96079 -11.82886,-6.7417 11.82886,6.7417 -1.96683,-1.14379 -9.86203,-5.62211 -0.0318,-12.454616 -4.34519,2.50545 4.34519,-2.50545 -1.96682,-1.143797 -4.34523,2.505447 0.0781,27.154446 1.96687,1.14379 2.30937,-1.33742 0.002,0.50836 -8.29762,17.37475 1.96682,1.14379 8.29522,-17.37475 -8.29522,17.37475 4.80393,-2.77778 -0.002,25.89568 c -5.78496,-1.05301 -11.24793,-2.86252 -15.91932,-5.44059 -0.13026,-0.0726 -0.25781,-0.13934 -0.38308,-0.21196 -0.0136,-0.005 -0.0272,-0.0182 -0.0409,-0.0227 -0.0894,-0.0486 -0.17974,-0.10303 -0.26915,-0.15114 -8.02348,-4.63567 -12.04913,-10.71171 -12.06365,-16.78166 0,-0.0227 0,-0.0486 0,-0.0726 l 0.0136,-12.52725 0.0731,-75.224002 0.009,0.06037 c -0.009,-2.439182 0.17293,-4.599679 0.90091,-7.177751 4.75854,-16.872436 21.48397,-29.93223 40.1901,-29.93223 19.8221,0 36.3012,14.209624 39.86629,32.994462 0.55556,1.797388 0.79403,3.612931 0.6403,5.428475 l 0.0976,-1.137756 -0.005,3.249823 0.005,0.06672 -0.005,0.06672 -0.0708,71.641339 v 0 l -0.0136,12.72088 c -0.0181,6.02157 -3.96455,12.02498 -11.86035,16.61222 v 0 c -0.12527,0.0726 -0.25055,0.14525 -0.37582,0.21787 -2.72994,1.54321 -5.74193,2.82017 -8.94032,3.83688 l 0.005,-41.04944 -0.0136,0.12709 c 0.0363,-0.45389 -0.10167,-0.90778 -0.41077,-1.33143 l 5.66872,-3.26798 -8.37084,-7.75237 -0.005,-2.78382 4.14607,-2.39652 -0.0776,-27.148403 -1.96682,-1.143793 -21.3847,12.345696 0.002,0.453886 0.0227,8.266758 1.96442,1.13776 -0.0227,-8.266808 0.0227,8.266808 9.86022,5.622096 0.0495,17.48368 c -0.0227,0.12119 -0.0363,0.24192 -0.0363,0.36311 v -0.005 l -0.009,43.37942 c -2.95025,0.38716 -5.9592,0.58097 -8.97364,0.58097 -0.009,0 -0.0136,0 -0.0227,0"
     style="fill:#f96767;fill-opacity:1;fill-rule:nonzero;stroke:none;stroke-width:0.133333"
     id="path886" />
  <path
     d="m 235.13905,163.59559 c -3.56273,-0.0849 -7.11575,-0.44163 -10.55076,-1.07117 l 0.002,-25.89574 10.36612,-5.97917 -0.002,-1.0409 c 0.14389,0.31455 0.20334,0.63544 0.17475,0.95616 l 0.0136,-0.14524 -0.004,33.17606"
     style="fill:#da4949;fill-opacity:1;fill-rule:nonzero;stroke:none;stroke-width:0.133333"
     id="path888" />
  <path
     d="m 245.88525,163.03881 0.009,-43.37938 v 0.005 c -0.002,-0.12118 0.0136,-0.24192 0.0363,-0.3631 l 0.009,2.72935 1.96682,1.13775 8.11607,-4.6841 c 0.3091,0.42348 0.44662,0.8775 0.41077,1.33138 l 0.0136,-0.12708 -0.005,41.04943 c -3.34967,1.0591 -6.9051,1.82767 -10.55071,2.29971"
     style="fill:#da4949;fill-opacity:1;fill-rule:nonzero;stroke:none;stroke-width:0.133333"
     id="path890" />
  <path
     d="m 247.90168,123.16947 -1.96682,-1.13776 -0.009,-2.72935 -0.0495,-17.48368 1.96682,1.1196 0.0563,20.23119"
     style="fill:#da4949;fill-opacity:1;fill-rule:nonzero;stroke:none;stroke-width:0.133333"
     id="path892" />
  <path
     d="m 219.78681,139.40647 -1.96687,-1.1438 8.29767,-17.37475 -0.002,-0.50835 1.9626,-1.13167 0.004,2.78381 -8.29522,17.37476"
     style="fill:#da4949;fill-opacity:1;fill-rule:nonzero;stroke:none;stroke-width:0.133333"
     id="path894" />
  <path
     d="m 239.93267,111.27766 -11.82885,-6.7417 v -0.0227 l 9.86203,5.62211 1.96682,1.14379"
     style="fill:#d94848;fill-opacity:1;fill-rule:nonzero;stroke:none;stroke-width:0.133333"
     id="path896" />
  <path
     d="m 247.90168,123.16947 v 0 l -0.0563,-20.23119 -1.96682,-1.1196 -9.86022,-5.622096 -0.0227,-8.266808 V 87.48179 l 21.38469,-12.345695 0.0776,27.148405 -4.14611,2.39652 0.005,2.78382 8.37088,7.75237 -5.66876,3.26798 -8.11607,4.6841"
     style="fill:#e65454;fill-opacity:1;fill-rule:nonzero;stroke:none;stroke-width:0.133333"
     id="path898" />
  <path
     d="m 236.01836,96.196584 -1.96442,-1.13776 -0.0227,-8.266759 -0.002,-0.453886 21.3847,-12.345695 1.96682,1.143792 -21.38469,12.345696 v 0.447985 l 0.0227,8.266757"
     style="fill:#da4949;fill-opacity:1;fill-rule:nonzero;stroke:none;stroke-width:0.133333"
     id="path900" />
  <path
     d="m 223.80579,121.71704 -1.96682,-1.1438 -0.0781,-27.154436 4.34518,-2.505455 1.96687,1.143795 -4.34523,2.50545 0.0781,27.154446"
     style="fill:#da4949;fill-opacity:1;fill-rule:nonzero;stroke:none;stroke-width:0.133333"
     id="path902" />
  <path
     d="m 219.78681,139.40647 8.29522,-17.37476 -0.004,-2.78381 -1.9626,1.13167 -2.30937,1.33747 -0.0781,-27.154446 4.34523,-2.50545 0.0318,12.454626 v 0.0227 l 11.82885,6.7417 0.005,1.96079 -5.02361,2.89883 0.0408,13.47134 0.002,1.04089 -10.36612,5.97918 -4.80393,2.77778"
     style="fill:#e65454;fill-opacity:1;fill-rule:nonzero;stroke:none;stroke-width:0.133333"
     id="path904" />
  <path
     d="m 236.88801,163.61978 c -0.009,0 -0.0136,0 -0.0182,0 0.005,0 0.009,0 0.0182,0 v 0 m 0.0227,0 c 3.01439,0 6.02338,-0.19381 8.97364,-0.58097 v 0 c -2.95026,0.38716 -5.95925,0.58097 -8.97364,0.58097 m 19.52436,-2.88068 v 0 c 3.19839,-1.0167 6.21038,-2.29362 8.94032,-3.83683 -2.72994,1.54321 -5.74193,2.82621 -8.94032,3.83683 m -47.76695,-3.65528 c -0.13027,-0.0726 -0.25781,-0.13934 -0.38308,-0.21196 0.12527,0.0726 0.25281,0.13934 0.38308,0.21196 m -0.42302,-0.23602 c -0.0894,-0.0486 -0.17974,-0.10303 -0.26916,-0.15114 -8.02348,-4.63567 -12.04917,-10.71171 -12.0637,-16.78166 0.0136,6.06995 4.04022,12.14599 12.0637,16.78166 0.0894,0.0486 0.17974,0.10303 0.26916,0.15114 m 57.50611,-0.1634 v 0 c 7.8958,-4.58729 11.84402,-10.59065 11.86036,-16.61222 l 0.0136,-12.72092 v 0 l -0.0136,12.72092 c -0.0182,6.02157 -3.96456,12.02493 -11.86036,16.61222 v 0"
     style="fill:#f03f3f;fill-opacity:1;fill-rule:nonzero;stroke:none;stroke-width:0.133333"
     id="path906" />
  <path
     d="m 245.88525,163.03881 v 0 c 3.64561,-0.47205 7.20104,-1.24061 10.55071,-2.29971 v 0 c -3.34967,1.0591 -6.90269,1.82766 -10.55071,2.29971"
     style="fill:#ed3c3c;fill-opacity:1;fill-rule:nonzero;stroke:none;stroke-width:0.133333"
     id="path908" />
  <path
     d="m 266.97701,46.359912 c 0,7.46792 -6.05425,13.519717 -13.52457,13.519717 -7.46797,0 -13.51977,-6.051797 -13.51977,-13.519717 0,-7.467966 6.0518,-13.519762 13.51977,-13.519762 7.47032,0 13.52457,6.051796 13.52457,13.519762"
     style="fill:#ffffff;fill-opacity:1;fill-rule:nonzero;stroke:none;stroke-width:0.133333"
     id="path910" />
  <path
     d="m 345.87023,240.42331 c 0.0708,-0.83515 -0.43937,-1.68846 -1.54381,-2.3239 -2.06849,-1.19218 -5.4085,-1.19218 -7.46065,0 -1.02338,0.59913 -1.53659,1.37378 -1.53414,2.15446 v -0.005 l -0.009,100.36324 c -0.002,0.79281 0.51562,1.57953 1.55592,2.17866 2.06609,1.19222 5.40851,1.19222 7.46066,0 1.01911,-0.5931 1.52928,-1.3677 1.53173,-2.14838 l 0.0136,-100.36325 -0.0136,0.14525"
     style="fill:#676767;fill-opacity:1;fill-rule:nonzero;stroke:none;stroke-width:0.133333"
     id="path912" />
  <path
     d="m 367.16778,229.69953 c 0.0708,-0.83515 -0.43982,-1.68846 -1.54381,-2.3239 -2.06854,-1.19222 -5.41154,-1.19222 -7.4607,0 -1.02397,0.59305 -1.53413,1.36769 -1.53413,2.14838 v -0.005 l -0.009,100.36928 c -0.002,0.78676 0.51743,1.57349 1.55533,2.17865 2.06609,1.19222 5.40909,1.19222 7.46311,-0.005 1.01911,-0.58701 1.52987,-1.36769 1.53168,-2.14234 l 0.009,-100.36324 -0.009,0.14524"
     style="fill:#676767;fill-opacity:1;fill-rule:nonzero;stroke:none;stroke-width:0.133333"
     id="path914" />
  <path
     d="m 356.61947,211.67722 0.0567,20.21303 1.96683,1.13776 -0.0567,-20.23119 -1.96682,-1.1196"
     style="fill:#676767;fill-opacity:1;fill-rule:nonzero;stroke:none;stroke-width:0.133333"
     id="path916" />
  <path
     d="m 338.81625,229.10643 -1.95956,1.13168 v 0.50835 l -8.29522,17.37475 1.96682,1.14379 8.29522,-17.37475 -0.009,-2.78382"
     style="fill:#676767;fill-opacity:1;fill-rule:nonzero;stroke:none;stroke-width:0.133333"
     id="path918" />
  <path
     d="m 350.67175,221.1362 -1.96442,-1.1438 -9.86262,-5.62214 v 0.0227 l 11.82704,6.74175"
     style="fill:#636363;fill-opacity:1;fill-rule:nonzero;stroke:none;stroke-width:0.133333"
     id="path920" />
  <path
     d="m 364.05652,217.32356 -0.009,-2.78382 4.15155,-2.39652 -0.0781,-27.14846 -21.3847,12.3457 v 0.44798 l 0.0227,8.26681 9.86267,5.6221 1.96683,1.1196 0.0567,20.23119 13.77939,-7.95208 -8.36603,-7.75237"
     style="fill:#a0a0a0;fill-opacity:1;fill-rule:nonzero;stroke:none;stroke-width:0.133333"
     id="path922" />
  <path
     d="m 346.73565,197.34046 21.3847,-12.3457 -1.96687,-1.14379 -21.38465,12.3457 v 0.44798 l 0.0227,8.27284 1.96442,1.13776 -0.0227,-8.26681 v -0.44798"
     style="fill:#676767;fill-opacity:1;fill-rule:nonzero;stroke:none;stroke-width:0.133333"
     id="path924" />
  <path
     d="m 338.80899,201.91563 -1.96683,-1.14379 -4.34459,2.51153 0.0776,27.14841 1.96683,1.14379 -0.0776,-27.15449 4.3446,-2.50545"
     style="fill:#676767;fill-opacity:1;fill-rule:nonzero;stroke:none;stroke-width:0.133333"
     id="path926" />
  <path
     d="m 350.67175,221.1362 -11.82704,-6.74171 v -0.0227 l -0.0363,-12.45463 -4.3446,2.50545 0.0776,27.15445 2.31481,-1.33742 1.95957,-1.13172 0.009,2.78386 -8.29522,17.37476 15.16946,-8.75701 -0.0408,-14.51223 5.0188,-2.89275 -0.005,-1.96687"
     style="fill:#a0a0a0;fill-opacity:1;fill-rule:nonzero;stroke:none;stroke-width:0.133333"
     id="path928" />
  <path
     d="m 347.64583,294.3026 c -0.59123,0 -1.17947,-0.005 -1.77075,-0.0182 l 0.002,-11.76472 c 0.61488,0.0182 1.23157,0.0227 1.84886,0.0227 0.005,0 0.0181,0 0.0227,0 v 0 0 c 0.009,0 0.0136,0 0.0227,0 2.96414,0 5.92892,-0.1575 8.85318,-0.45993 v 11.74657 c -2.96719,0.31454 -5.97133,0.47204 -8.97846,0.47204 m -12.3191,-0.88962 c -8.4017,-1.23456 -16.36349,-3.75213 -22.94964,-7.55874 -9.82936,-5.67053 -14.73922,-13.1203 -14.71562,-20.55799 l 0.10666,-11.76472 0.005,0.0785 v 0 l 0.11801,1.47059 0.11574,1.30116 0.36674,1.48266 0.32635,1.27696 0.61429,1.45848 0.53436,1.25272 0.88902,1.47059 0.72077,1.18614 1.18011,1.47059 0.88839,1.10145 1.49178,1.45847 1.03545,1.01067 c 0.60276,0.5265 1.29326,1.03486 1.96202,1.54321 l 1.02151,0.79884 c 1.07544,0.76252 2.22223,1.49478 3.44409,2.20284 0.2392,0.13934 0.48234,0.27823 0.72381,0.41168 6.41554,3.55846 14.0632,5.93682 22.12181,7.12904 v 11.77684 m 31.84762,-1.41008 v -11.73445 c 5.66695,-1.39193 10.97378,-3.41322 15.60038,-6.07603 0.0635,-0.0363 0.12527,-0.0726 0.18882,-0.10894 v 0 c 1.20792,-0.70202 2.34023,-1.42824 3.39688,-2.18469 l 0.9459,-0.74437 c 0.68323,-0.52047 1.3804,-1.04094 1.99528,-1.5856 l 0.98343,-0.96224 1.50327,-1.48266 0.86298,-1.08329 1.17043,-1.47059 0.70198,-1.15592 0.87936,-1.47662 0.51743,-1.22245 0.60757,-1.47668 0.32135,-1.27088 0.35449,-1.4645 0.1112,-1.29512 v 0 l 0.11801,-1.38585 -0.10848,11.75868 c -0.0181,7.34084 -4.83901,14.66959 -14.46561,20.26147 -4.64298,2.69908 -9.98309,4.75064 -15.68512,6.16073"
     style="fill:#1a5da0;fill-opacity:1;fill-rule:nonzero;stroke:none;stroke-width:0.133333"
     id="path930" />
  <path
     d="m 345.87508,294.28444 c -3.54575,-0.0726 -7.08484,-0.36311 -10.54831,-0.87146 v -11.77684 c 3.46347,0.51444 7.00256,0.81096 10.55072,0.88358 l -0.002,11.76472"
     style="fill:#0b4e90;fill-opacity:1;fill-rule:nonzero;stroke:none;stroke-width:0.133333"
     id="path932" />
  <path
     d="m 356.62433,293.83056 v -11.74657 c 3.60022,-0.37536 7.1393,-0.98039 10.55012,-1.81554 v 11.73445 c -3.41082,0.84123 -6.9499,1.44639 -10.55012,1.82766"
     style="fill:#0b4e90;fill-opacity:1;fill-rule:nonzero;stroke:none;stroke-width:0.133333"
     id="path934" />
  <path
     d="m 347.74995,282.54391 c -0.009,0 -0.0182,0 -0.0227,0 -0.61728,0 -1.23398,-0.005 -1.84885,-0.0227 v -9.0656 c 0.57675,0.0182 1.1535,0.0227 1.73021,0.0227 0.009,0 0.0136,0 0.0227,0 v 0 0 c 0.005,0 0.0136,0 0.0182,0 3.0138,0 6.02579,-0.19381 8.97605,-0.58098 v 9.18665 c -2.92421,0.30274 -5.88899,0.45997 -8.85318,0.45997 -0.009,0 -0.0136,0 -0.0227,0 v 0 m -12.42317,-0.90777 c -8.05616,-1.19222 -15.70627,-3.57059 -22.12176,-7.12905 -0.24147,-0.13299 -0.48476,-0.27233 -0.72382,-0.41168 -1.22186,-0.70806 -2.36869,-1.44031 -3.44408,-2.20284 l -1.02156,-0.79884 c -0.66871,-0.50835 -1.35921,-1.0167 -1.96197,-1.54321 l -1.0355,-1.01067 -1.49174,-1.45847 -0.88843,-1.10145 -1.18011,-1.47059 -0.72077,-1.18614 -0.88898,-1.47059 -0.5344,-1.25272 -0.61425,-1.45852 -0.32634,-1.27691 -0.36674,-1.48271 -0.11574,-1.30111 -0.11801,-1.47059 v 0 c -0.009,-5.76739 2.98294,-11.51055 8.89557,-16.43675 l -0.0136,12.52725 c 0,0.0227 0,0.0486 0,0.0726 0.0182,6.07 4.03777,12.14598 12.06366,16.7817 0.0894,0.0486 0.17973,0.10303 0.26915,0.15115 0.0136,0.005 0.0272,0.0181 0.0363,0.0227 0.12754,0.0726 0.25554,0.13934 0.38308,0.21196 4.67321,2.57808 10.13681,4.39362 15.92114,5.44055 l -0.002,9.25324 m 31.84767,-1.3677 0.002,-9.67081 c 3.19173,-1.01066 6.19827,-2.28758 8.92159,-3.83079 0.13253,-0.0726 0.26506,-0.15115 0.39533,-0.22377 v 0 c 7.89094,-4.58729 11.84097,-10.59674 11.85972,-16.61222 l 0.0136,-12.72092 c 6.48212,5.374 9.48685,11.71633 8.95004,17.99811 v 0 l -0.11121,1.29508 -0.35448,1.46455 -0.32135,1.27088 -0.60762,1.47663 -0.51743,1.22245 -0.87931,1.47667 -0.70203,1.15587 -1.17039,1.47059 -0.86302,1.08329 -1.50327,1.4827 -0.98339,0.96224 c -0.61487,0.54467 -1.31204,1.06509 -1.99528,1.58556 l -0.9459,0.74437 c -1.05664,0.7565 -2.18895,1.48271 -3.39688,2.18469 v 0 c -0.0635,0.0363 -0.12527,0.0726 -0.18881,0.10894 -4.62664,2.66281 -9.93348,4.6841 -15.60038,6.07603"
     style="fill:#1a70b5;fill-opacity:1;fill-rule:nonzero;stroke:none;stroke-width:0.133333"
     id="path936" />
  <path
     d="m 345.87749,282.51972 c -3.54816,-0.0726 -7.08725,-0.36901 -10.55072,-0.88358 l 0.002,-9.25319 c 3.43501,0.62936 6.98322,0.98643 10.54831,1.07117 v 9.0656"
     style="fill:#0b61a6;fill-opacity:1;fill-rule:nonzero;stroke:none;stroke-width:0.133333"
     id="path938" />
  <path
     d="m 356.62433,282.08399 v -9.18665 c 3.64742,-0.47204 7.20044,-1.2406 10.55252,-2.2997 l -0.002,9.67081 c -3.41082,0.83515 -6.9499,1.44031 -10.55012,1.81554"
     style="fill:#0b61a6;fill-opacity:1;fill-rule:nonzero;stroke:none;stroke-width:0.133333"
     id="path940" />
  <path
     d="m 347.6289,273.47832 c -0.005,0 -0.0136,0 -0.0227,0 -0.57675,0 -1.15346,-0.005 -1.73021,-0.0227 l 0.005,-33.17602 -0.009,0.10894 c 0.0227,-0.30864 -0.0363,-0.61729 -0.17974,-0.91989 l -0.0363,-13.47134 5.01875,-2.89275 -0.005,-1.96687 -11.82704,-6.7417 11.82704,6.7417 -1.96441,-1.14379 -9.86263,-5.6221 -0.0363,-12.45463 -4.34459,2.50545 4.34459,-2.50545 -1.96687,-1.14379 -4.34459,2.51149 0.0776,27.14841 1.96687,1.14379 2.31482,-1.33742 v 0.50835 l -8.29522,17.37475 1.96683,1.1438 8.29521,-17.37476 -8.29521,17.37476 4.80333,-2.77779 -0.002,25.89569 c -5.78432,-1.04698 -11.25028,-2.86252 -15.92109,-5.44059 -0.12754,-0.0726 -0.25554,-0.13935 -0.38308,-0.21197 -0.0136,-0.005 -0.0272,-0.0181 -0.0363,-0.0227 -0.0894,-0.0486 -0.17974,-0.10303 -0.26915,-0.15115 -8.02588,-4.63567 -12.04672,-10.7117 -12.06365,-16.78165 0,-0.0227 0,-0.0486 0,-0.0726 l 0.0136,-12.52725 0.0708,-75.224 0.005,0.0604 c -0.002,-2.44495 0.17474,-4.59941 0.90051,-7.17748 4.76335,-16.87244 21.48391,-29.93223 40.1949,-29.93223 19.82211,0 36.30121,14.20962 39.86389,32.99446 0.55556,1.79739 0.79703,3.61293 0.64089,5.42848 l 0.0944,-1.13776 -0.002,3.24982 0.002,0.0667 -0.002,0.0667 -0.0708,71.64135 v 0 l -0.0136,12.72092 c -0.0182,6.01549 -3.96878,12.02494 -11.85977,16.61223 v 0 c -0.13026,0.0726 -0.2628,0.15114 -0.39533,0.22376 -2.72332,1.54321 -5.72986,2.82013 -8.92158,3.8308 l 0.002,-41.0434 -0.009,0.14524 c 0.0409,-0.45992 -0.0976,-0.92593 -0.41167,-1.35557 l 5.66631,-3.26798 -8.36603,-7.75237 -0.009,-2.78387 4.15151,-2.39651 -0.0781,-27.14842 -1.96682,-1.14379 -21.3847,12.3457 v 0.44798 l 0.0227,8.27284 1.96441,1.13771 -0.0227,-8.26676 0.0227,8.26676 9.86267,5.62215 0.0495,17.47765 c -0.0272,0.12119 -0.0409,0.24828 -0.0409,0.36901 v -0.005 l -0.005,43.37937 c -2.95026,0.38716 -5.96225,0.58097 -8.97605,0.58097 -0.005,0 -0.0136,0 -0.0182,0"
     style="fill:#4292e1;fill-opacity:1;fill-rule:nonzero;stroke:none;stroke-width:0.133333"
     id="path942" />
  <path
     d="m 345.87749,273.45412 c -3.56509,-0.0849 -7.1133,-0.44163 -10.54831,-1.07117 l 0.002,-25.89573 10.36612,-5.97917 -0.005,-1.0409 c 0.14207,0.30274 0.20107,0.6112 0.17974,0.91984 l 0.009,-0.10893 -0.005,33.17606"
     style="fill:#2474c2;fill-opacity:1;fill-rule:nonzero;stroke:none;stroke-width:0.133333"
     id="path944" />
  <path
     d="m 356.62433,272.89734 0.005,-43.37937 v 0.005 c 0,-0.12119 0.0136,-0.24828 0.0409,-0.36901 l 0.009,2.73539 1.96683,1.13775 8.11307,-4.6841 c 0.31409,0.42983 0.45162,0.89566 0.41167,1.35562 l 0.009,-0.14524 -0.002,41.04336 c -3.34968,1.05909 -6.90751,1.82766 -10.55253,2.2997"
     style="fill:#2474c2;fill-opacity:1;fill-rule:nonzero;stroke:none;stroke-width:0.133333"
     id="path946" />
  <path
     d="m 358.64321,233.02801 -1.96687,-1.13776 -0.009,-2.73539 -0.0495,-17.47764 1.96687,1.1196 0.0567,20.23119"
     style="fill:#2474c2;fill-opacity:1;fill-rule:nonzero;stroke:none;stroke-width:0.133333"
     id="path948" />
  <path
     d="m 330.52829,249.265 -1.96682,-1.14379 8.29522,-17.37475 v -0.50835 l 1.95956,-1.13168 0.009,2.78382 -8.29522,17.37475"
     style="fill:#2474c2;fill-opacity:1;fill-rule:nonzero;stroke:none;stroke-width:0.133333"
     id="path950" />
  <path
     d="m 350.67175,221.1362 -11.82704,-6.74171 v -0.0227 l 9.86262,5.6221 1.96442,1.14379"
     style="fill:#2373c1;fill-opacity:1;fill-rule:nonzero;stroke:none;stroke-width:0.133333"
     id="path952" />
  <path
     d="m 358.64321,233.02801 v 0 l -0.0567,-20.23119 -1.96687,-1.1196 -9.86262,-5.62215 -0.0227,-8.26676 v -0.44799 l 21.38465,-12.34569 0.0781,27.14841 -4.15151,2.39652 0.009,2.78386 8.36603,7.75237 -5.66631,3.26798 -8.11308,4.6841"
     style="fill:#2f7fce;fill-opacity:1;fill-rule:nonzero;stroke:none;stroke-width:0.133333"
     id="path954" />
  <path
     d="m 346.75685,206.05507 -1.96442,-1.13771 -0.0227,-8.27284 v -0.44799 l 21.38466,-12.3457 1.96686,1.1438 -21.38469,12.34569 v 0.44799 l 0.0227,8.26676"
     style="fill:#2474c2;fill-opacity:1;fill-rule:nonzero;stroke:none;stroke-width:0.133333"
     id="path956" />
  <path
     d="m 334.54187,231.57557 -1.96687,-1.14379 -0.0776,-27.14841 4.34459,-2.51153 1.96687,1.14379 -4.34459,2.50545 0.0776,27.15449"
     style="fill:#2474c2;fill-opacity:1;fill-rule:nonzero;stroke:none;stroke-width:0.133333"
     id="path958" />
  <path
     d="m 330.52829,249.265 8.29522,-17.37475 -0.009,-2.78382 -1.95956,1.13168 -2.31482,1.33746 -0.0776,-27.15449 4.3446,-2.50545 0.0363,12.45463 v 0.0227 l 11.82704,6.74175 0.005,1.96682 -5.01876,2.89275 0.0363,13.47134 0.005,1.04094 -10.36616,5.97917 -4.80334,2.77778"
     style="fill:#2f7fce;fill-opacity:1;fill-rule:nonzero;stroke:none;stroke-width:0.133333"
     id="path960" />
  <path
     d="m 347.6289,273.47832 c -0.005,0 -0.0136,0 -0.0227,0 0.009,0 0.0136,0 0.0227,0 v 0 m 0.0181,0 c 3.0138,0 6.02579,-0.19381 8.97605,-0.58098 v 0 c -2.95026,0.38717 -5.96225,0.58098 -8.97605,0.58098 m 19.52858,-2.88068 v 0 c 3.19172,-1.01062 6.19826,-2.28759 8.92158,-3.8308 -2.72332,1.54321 -5.72986,2.82018 -8.92158,3.8308 m -47.7689,-3.65528 c -0.12754,-0.0726 -0.25554,-0.13934 -0.38308,-0.21197 0.12754,0.0726 0.25554,0.13935 0.38308,0.21197 m -0.42121,-0.23602 c -0.0894,-0.0486 -0.17974,-0.10303 -0.26915,-0.15115 -8.02593,-4.63567 -12.04672,-10.7117 -12.0637,-16.78165 0.0182,6.06995 4.03777,12.14598 12.0637,16.78165 0.0894,0.0486 0.17974,0.10304 0.26915,0.15115 m 57.50675,-0.1634 v 0 c 7.89094,-4.58729 11.84098,-10.59674 11.85972,-16.61222 l 0.0136,-12.72093 v 0 l -0.0136,12.72093 c -0.0181,6.01548 -3.96878,12.02493 -11.85972,16.61222 v 0"
     style="fill:#1476d2;fill-opacity:1;fill-rule:nonzero;stroke:none;stroke-width:0.133333"
     id="path962" />
  <path
     d="m 356.62433,272.89734 v 0 c 3.64497,-0.47204 7.20285,-1.2406 10.55252,-2.2997 v 0 c -3.35208,1.0591 -6.9051,1.82766 -10.55252,2.2997"
     style="fill:#1173cf;fill-opacity:1;fill-rule:nonzero;stroke:none;stroke-width:0.133333"
     id="path964" />
  <path
     d="m 377.71549,156.2184 c 0,7.46796 -6.05665,13.5258 -13.52157,13.5258 -7.46792,0 -13.52217,-6.05784 -13.52217,-13.5258 0,-7.46792 6.05425,-13.51972 13.52217,-13.51972 7.46492,0 13.52157,6.0518 13.52157,13.51972"
     style="fill:#ffffff;fill-opacity:1;fill-rule:nonzero;stroke:none;stroke-width:0.133333"
     id="path966" />
  <path
     d="m 458.95439,176.57672 c 0.0708,-0.83515 -0.43981,-1.68242 -1.5438,-2.31786 -2.06854,-1.19825 -5.41154,-1.19825 -7.46311,-0.005 -1.02397,0.59912 -1.53232,1.37377 -1.53232,2.15446 v -0.005 l -0.009,100.36324 c -0.002,0.79276 0.51503,1.57952 1.55534,2.17865 2.06608,1.19218 5.40909,1.19218 7.46306,0 1.01915,-0.59309 1.52751,-1.36774 1.52991,-2.14842 l 0.009,-100.36324 -0.009,0.14524"
     style="fill:#676767;fill-opacity:1;fill-rule:nonzero;stroke:none;stroke-width:0.133333"
     id="path968" />
  <path
     d="m 480.25131,165.8529 c 0.0708,-0.83515 -0.43982,-1.68846 -1.5438,-2.3239 -2.06854,-1.19222 -5.41091,-1.19222 -7.45826,0 -1.02578,0.59309 -1.53654,1.37378 -1.53654,2.14838 v 0 l -0.009,100.36324 c -0.002,0.78677 0.51561,1.57349 1.55592,2.17866 2.06608,1.19222 5.40605,1.19222 7.46306,-0.005 1.01611,-0.58701 1.52932,-1.3677 1.53173,-2.14234 l 0.009,-100.3632 -0.0136,0.14524"
     style="fill:#676767;fill-opacity:1;fill-rule:nonzero;stroke:none;stroke-width:0.133333"
     id="path970" />
  <path
     d="m 469.703,147.83059 0.0567,20.21308 1.96682,1.13771 -0.0595,-20.23119 -1.96442,-1.1196"
     style="fill:#676767;fill-opacity:1;fill-rule:nonzero;stroke:none;stroke-width:0.133333"
     id="path972" />
  <path
     d="m 451.89737,165.25981 -1.95715,1.13171 v 0.50836 l -8.29522,17.37475 1.96201,1.14379 8.30003,-17.37475 -0.009,-2.78386"
     style="fill:#676767;fill-opacity:1;fill-rule:nonzero;stroke:none;stroke-width:0.133333"
     id="path974" />
  <path
     d="m 463.75287,157.28957 -1.96201,-1.14379 -9.86262,-5.61607 v 0.0182 l 11.82463,6.7417"
     style="fill:#636363;fill-opacity:1;fill-rule:nonzero;stroke:none;stroke-width:0.133333"
     id="path976" />
  <path
     d="m 477.13765,153.47693 -0.009,-2.78382 4.14852,-2.39652 -0.0758,-27.14841 -21.3871,12.3457 0.002,0.44798 0.0227,8.26676 9.86267,5.62215 1.96441,1.1196 0.0595,20.23119 13.77694,-7.95208 -8.36603,-7.75237"
     style="fill:#a0a0a0;fill-opacity:1;fill-rule:nonzero;stroke:none;stroke-width:0.133333"
     id="path978" />
  <path
     d="m 459.81678,133.49388 21.3871,-12.3457 -1.96687,-1.14379 -21.38465,12.34569 v 0.45389 l 0.0227,8.26676 1.96442,1.13776 -0.0227,-8.26681 -0.002,-0.44799"
     style="fill:#676767;fill-opacity:1;fill-rule:nonzero;stroke:none;stroke-width:0.133333"
     id="path980" />
  <path
     d="m 451.89315,138.06905 -1.96687,-1.1438 -4.34278,2.51149 0.0758,27.14841 1.96683,1.14379 -0.0781,-27.15444 4.34523,-2.50545"
     style="fill:#676767;fill-opacity:1;fill-rule:nonzero;stroke:none;stroke-width:0.133333"
     id="path982" />
  <path
     d="m 463.75287,157.28957 -11.82463,-6.7417 v -0.0182 l -0.0363,-12.46066 -4.34523,2.50545 0.0781,27.15444 2.31422,-1.33742 1.95716,-1.13171 0.009,2.78386 -8.30003,17.37475 15.17431,-8.757 -0.0408,-14.51223 5.02116,-2.89275 -0.009,-1.96687"
     style="fill:#a0a0a0;fill-opacity:1;fill-rule:nonzero;stroke:none;stroke-width:0.133333"
     id="path984" />
  <path
     d="m 460.72695,230.45597 c -0.58823,0 -1.17706,-0.005 -1.76834,-0.0181 v -11.76473 c 0.61729,0.0182 1.23398,0.0227 1.85127,0.0227 0.009,0 0.0181,0 0.0272,0 v 0 0 c 0.009,0 0.009,0 0.0182,0 2.96478,0 5.92893,-0.1575 8.85318,-0.45992 l -0.002,11.74656 c -2.96419,0.31455 -5.96892,0.47204 -8.9785,0.47204 m -12.31601,-0.88961 c -8.40174,-1.23457 -16.36594,-3.75214 -22.94969,-7.5587 -9.82936,-5.67058 -14.73977,-13.12034 -14.71861,-20.55803 l 0.10893,-11.76473 0.005,0.0785 v 0 l 0.11801,1.47059 0.11619,1.30115 0.36356,1.48271 0.32635,1.27692 0.61728,1.45847 0.53436,1.25272 0.88662,1.47059 0.72077,1.18619 1.17947,1.47059 0.89143,1.1014 1.49179,1.45852 1.03545,1.01062 c 0.60276,0.52651 1.29267,1.03486 1.96201,1.54321 l 1.02093,0.79884 c 1.07362,0.76253 2.22222,1.49483 3.44713,2.20289 0.23102,0.13299 0.46296,0.26643 0.69716,0.39942 6.41795,3.5645 14.07532,5.9489 22.14841,7.14112 l -0.002,11.77684 m 31.84768,-1.41009 v -11.73444 c 5.66871,-1.39194 10.97614,-3.41323 15.59974,-6.07604 0.0667,-0.0363 0.12709,-0.0726 0.19381,-0.10893 v 0 c 1.20429,-0.70203 2.33601,-1.42824 3.38903,-2.18469 l 0.95012,-0.74437 c 0.68387,-0.52047 1.37981,-1.04094 1.99106,-1.58561 l 0.98643,-0.96223 1.5069,-1.48267 0.86542,-1.08329 1.16195,-1.47059 0.70198,-1.15591 0.88358,-1.47663 0.51439,-1.22245 0.61125,-1.47667 0.32089,-1.27088 0.35721,-1.46451 0.10893,-1.29512 v 0 l 0.11484,-1.38585 -0.10894,11.75869 c -0.0181,7.34083 -4.83538,14.66959 -14.46384,20.26146 -4.64171,2.69908 -9.97941,4.75065 -15.68448,6.16073"
     style="fill:#767676;fill-opacity:1;fill-rule:nonzero;stroke:none;stroke-width:0.133333"
     id="path986" />
  <path
     d="m 458.95861,230.43782 c -3.54816,-0.0726 -7.08724,-0.36311 -10.54767,-0.87146 l 0.002,-11.7768 c 3.46042,0.51439 6.9971,0.81091 10.54526,0.88353 v 11.76473"
     style="fill:#676767;fill-opacity:1;fill-rule:nonzero;stroke:none;stroke-width:0.133333"
     id="path988" />
  <path
     d="m 469.70545,229.98393 0.002,-11.74657 c 3.60022,-0.37536 7.1393,-0.98039 10.55071,-1.81554 v 11.73449 c -3.41141,0.84119 -6.9529,1.45244 -10.55312,1.82762"
     style="fill:#676767;fill-opacity:1;fill-rule:nonzero;stroke:none;stroke-width:0.133333"
     id="path990" />
  <path
     d="m 460.83589,218.69733 c -0.009,0 -0.0182,0 -0.0272,0 -0.61728,0 -1.23398,-0.005 -1.85126,-0.0227 l 0.002,-9.06565 c 0.57671,0.0182 1.15405,0.0227 1.7308,0.0227 0.004,0 0.0136,0 0.0182,0 v 0 0 c 0.009,0 0.0136,0 0.0227,0 3.01439,0 6.02338,-0.19381 8.97605,-0.58098 v 9.18665 c -2.92425,0.30275 -5.8884,0.45997 -8.85318,0.45997 -0.009,0 -0.009,0 -0.0182,0 v 0 m -12.42254,-0.90777 c -8.07072,-1.19222 -15.7305,-3.57662 -22.14845,-7.14117 -0.2342,-0.13299 -0.46595,-0.26643 -0.69716,-0.39942 -1.22486,-0.70806 -2.37351,-1.44031 -3.44709,-2.20284 l -1.02097,-0.79884 c -0.6693,-0.50835 -1.3592,-1.01671 -1.96196,-1.54321 l -1.0355,-1.01067 -1.49174,-1.45847 -0.89143,-1.10145 -1.17952,-1.47059 -0.72077,-1.18614 -0.88657,-1.47059 -0.53441,-1.25272 -0.61728,-1.45847 -0.32635,-1.27697 -0.36356,-1.48266 -0.11619,-1.30115 -0.11801,-1.47059 v 0 c -0.009,-5.7674 2.97871,-11.51055 8.89071,-16.43671 l -0.009,12.52725 c 0,0.0227 0,0.0486 0,0.0726 0.0136,6.06995 4.03776,12.14599 12.0631,16.78166 0.24147,0.13934 0.48475,0.27233 0.73044,0.41167 4.66232,2.55992 10.11076,4.36943 15.88178,5.41641 v 9.25319 m 31.84523,-1.3677 0.002,-9.67081 c 3.19114,-1.01062 6.1989,-2.28758 8.92222,-3.83079 0.13299,-0.0726 0.26008,-0.14525 0.39352,-0.22377 v 0 c 7.89153,-4.58729 11.84338,-10.59674 11.86153,-16.61222 l 0.0136,-12.71484 c 6.48149,5.36792 9.48926,11.71025 8.95063,17.99203 v 0 l -0.10893,1.29507 -0.35721,1.46456 -0.3209,1.27088 -0.61125,1.47662 -0.51439,1.22246 -0.88358,1.47667 -0.70197,1.15586 -1.16195,1.47059 -0.86543,1.08329 -1.5069,1.48271 -0.98643,0.96224 c -0.61125,0.54466 -1.30719,1.06509 -1.99106,1.58556 l -0.95012,0.74437 c -1.05301,0.75649 -2.18473,1.48271 -3.38903,2.18469 v 0 c -0.0667,0.0363 -0.12709,0.0726 -0.19381,0.10893 -4.6236,2.66282 -9.93102,4.68411 -15.59974,6.07604"
     style="fill:#aaaaaa;fill-opacity:1;fill-rule:nonzero;stroke:none;stroke-width:0.133333"
     id="path992" />
  <path
     d="m 458.95861,218.67309 c -3.54816,-0.0726 -7.08484,-0.369 -10.54526,-0.88353 v -9.25323 c 3.43442,0.6294 6.98317,0.98643 10.54771,1.07117 l -0.002,9.06559"
     style="fill:#9a9a9a;fill-opacity:1;fill-rule:nonzero;stroke:none;stroke-width:0.133333"
     id="path994" />
  <path
     d="m 469.70786,218.23736 v -9.18665 c 3.64742,-0.47204 7.20103,-1.2406 10.55312,-2.29965 l -0.002,9.67076 c -3.41141,0.83515 -6.95049,1.44036 -10.55071,1.81554"
     style="fill:#9a9a9a;fill-opacity:1;fill-rule:nonzero;stroke:none;stroke-width:0.133333"
     id="path996" />
  <path
     d="m 460.71061,209.63169 c -0.005,0 -0.0136,0 -0.0181,0 -0.57676,0 -1.1541,-0.005 -1.73081,-0.0227 l 0.002,-33.17601 -0.009,0.10303 c 0.0182,-0.30864 -0.0408,-0.61125 -0.17747,-0.91381 l -0.0408,-13.47133 5.02121,-2.8928 -0.009,-1.96682 -11.82464,-6.7417 11.82464,6.7417 -1.96201,-1.14379 -9.86263,-5.61607 -0.0363,-12.46071 -4.34523,2.50545 4.34523,-2.50545 -1.96687,-1.14379 -4.34278,2.51153 0.0758,27.14841 1.96687,1.14379 2.31418,-1.33746 v 0.50835 l -8.29521,17.37475 1.96201,1.14379 8.30007,-17.37475 -8.30007,17.37475 4.80815,-2.77778 -0.002,25.89573 c -5.76857,-1.04697 -11.21942,-2.85648 -15.88174,-5.4164 -0.24555,-0.13934 -0.48901,-0.27233 -0.73048,-0.41167 -8.02529,-4.63567 -12.04913,-10.71171 -12.06306,-16.78166 0,-0.0227 0,-0.0486 0,-0.0726 l 0.009,-12.52725 0.0781,-75.223996 0.002,0.0604 c -0.003,-2.439 0.17202,-4.5995 0.90024,-7.17757 4.76398,-16.872479 21.48636,-29.932273 40.1949,-29.932273 19.82211,0 36.30302,14.209669 39.86149,32.994463 0.55673,1.79739 0.79884,3.61293 0.64147,5.42847 l 0.0967,-1.13771 v 3.249826 0.0667 0.0667 l -0.0726,71.64738 v 0 l -0.0136,12.71484 c -0.0181,6.01549 -3.96995,12.02494 -11.86153,16.61222 v 0 c -0.13299,0.0785 -0.26008,0.15115 -0.39352,0.22377 -2.72332,1.54321 -5.73108,2.82018 -8.92217,3.8308 l 0.004,-41.04336 -0.0136,0.14524 c 0.0363,-0.45996 -0.0967,-0.92592 -0.41167,-1.35562 l 5.6639,-3.26797 -8.36602,-7.75237 -0.009,-2.78382 4.14852,-2.39652 -0.0758,-27.14846 -1.96687,-1.14379 -21.38465,12.3457 v 0.45388 l 0.0227,8.26681 1.96442,1.13771 -0.0227,-8.26676 -0.002,-0.44799 0.002,0.44799 0.0227,8.26676 9.86262,5.62214 0.0495,17.47765 c -0.0272,0.12119 -0.0408,0.24828 -0.0408,0.36901 v 0 l -0.005,43.37333 c -2.95266,0.38717 -5.96166,0.58098 -8.97605,0.58098 -0.009,0 -0.0136,0 -0.0227,0"
     style="fill:#d6d6d6;fill-opacity:1;fill-rule:nonzero;stroke:none;stroke-width:0.133333"
     id="path998" />
  <path
     d="m 458.96106,209.6075 c -3.56454,-0.0849 -7.11329,-0.44164 -10.54771,-1.07117 l 0.002,-25.89569 10.36617,-5.97922 -0.002,-1.0409 c 0.13753,0.30274 0.19654,0.60517 0.17747,0.91381 l 0.009,-0.10303 -0.002,33.17606"
     style="fill:#b8b8b8;fill-opacity:1;fill-rule:nonzero;stroke:none;stroke-width:0.133333"
     id="path1000" />
  <path
     d="m 469.70786,209.05071 0.005,-43.37333 v 0 c 0,-0.12119 0.0136,-0.24828 0.0408,-0.36901 l 0.009,2.73543 1.96683,1.13776 8.11307,-4.6841 c 0.31454,0.42983 0.44889,0.89565 0.41167,1.35557 l 0.0136,-0.14524 -0.004,41.0434 c -3.35208,1.05905 -6.90569,1.82766 -10.55311,2.29971"
     style="fill:#b8b8b8;fill-opacity:1;fill-rule:nonzero;stroke:none;stroke-width:0.133333"
     id="path1002" />
  <path
     d="m 471.72674,169.18138 -1.96682,-1.13771 -0.009,-2.73544 -0.0495,-17.47764 1.96441,1.1196 0.0595,20.23119"
     style="fill:#b8b8b8;fill-opacity:1;fill-rule:nonzero;stroke:none;stroke-width:0.133333"
     id="path1004" />
  <path
     d="m 443.60701,185.41842 -1.96201,-1.14379 8.29522,-17.37475 v -0.50836 l 1.95715,-1.13171 0.009,2.78386 -8.30007,17.37475"
     style="fill:#b8b8b8;fill-opacity:1;fill-rule:nonzero;stroke:none;stroke-width:0.133333"
     id="path1006" />
  <path
     d="m 463.75287,157.28957 -11.82463,-6.7417 v -0.0182 l 9.86262,5.61607 1.96201,1.14379"
     style="fill:#b7b7b7;fill-opacity:1;fill-rule:nonzero;stroke:none;stroke-width:0.133333"
     id="path1008" />
  <path
     d="m 471.72674,169.18138 v 0 l -0.0595,-20.23119 -1.96442,-1.1196 -9.86262,-5.6221 -0.0227,-8.26681 -0.002,-0.44799 21.3871,-12.34569 0.0758,27.14846 -4.14852,2.39651 0.009,2.78382 8.36602,7.75237 -5.66386,3.26798 -8.11307,4.6841"
     style="fill:#c3c3c3;fill-opacity:1;fill-rule:nonzero;stroke:none;stroke-width:0.133333"
     id="path1010" />
  <path
     d="m 459.84038,142.20849 -1.96442,-1.13776 -0.0227,-8.26676 v -0.45389 l 21.38465,-12.34569 1.96687,1.14379 -21.38711,12.3457 0.002,0.44798 0.0227,8.26676"
     style="fill:#b8b8b8;fill-opacity:1;fill-rule:nonzero;stroke:none;stroke-width:0.133333"
     id="path1012" />
  <path
     d="m 447.62599,167.72894 -1.96682,-1.14379 -0.0758,-27.14841 4.34278,-2.51149 1.96682,1.1438 -4.34518,2.50545 0.0781,27.15444"
     style="fill:#b8b8b8;fill-opacity:1;fill-rule:nonzero;stroke:none;stroke-width:0.133333"
     id="path1014" />
  <path
     d="m 443.60701,185.41842 8.30003,-17.37475 -0.009,-2.78386 -1.95715,1.13171 -2.31423,1.33742 -0.0781,-27.15444 4.34523,-2.50545 0.0363,12.46066 v 0.0182 l 11.82464,6.7417 0.009,1.96687 -5.02121,2.89275 0.0408,13.47133 0.002,1.0409 -10.36616,5.97922 -4.80815,2.77778"
     style="fill:#c3c3c3;fill-opacity:1;fill-rule:nonzero;stroke:none;stroke-width:0.133333"
     id="path1016" />
  <path
     d="m 460.71061,209.63169 c -0.005,0 -0.0136,0 -0.0181,0 0.004,0 0.0136,0 0.0181,0 v 0 m 0.0227,0 c 3.01439,0 6.02338,-0.19381 8.97604,-0.58098 v 0 c -2.95266,0.38717 -5.96165,0.58098 -8.97604,0.58098 m 19.52921,-2.88063 v 0 c 3.19109,-1.01067 6.19885,-2.28759 8.92217,-3.8308 -2.72332,1.54321 -5.73108,2.82013 -8.92217,3.8308 m -47.72946,-3.63109 c -0.24555,-0.13934 -0.48897,-0.27233 -0.73044,-0.41168 -8.02529,-4.63571 -12.04917,-10.7117 -12.06306,-16.7817 0.0136,6.07 4.03777,12.14599 12.06306,16.7817 0.24147,0.13935 0.48475,0.27234 0.73044,0.41168 m 57.04501,-0.42348 v 0 c 7.89153,-4.58729 11.84338,-10.59673 11.86154,-16.61222 l 0.0136,-12.71489 v 0 l -0.0136,12.71489 c -0.0182,6.01549 -3.97001,12.02493 -11.86154,16.61222 v 0"
     style="fill:#c5c5c5;fill-opacity:1;fill-rule:nonzero;stroke:none;stroke-width:0.133333"
     id="path1018" />
  <path
     d="m 469.70786,209.05071 v 0 c 3.64742,-0.47204 7.20103,-1.2406 10.55312,-2.29965 v 0 c -3.35209,1.05905 -6.9057,1.82761 -10.55312,2.29965"
     style="fill:#c2c2c2;fill-opacity:1;fill-rule:nonzero;stroke:none;stroke-width:0.133333"
     id="path1020" />
  <path
     d="m 490.79903,92.371824 c 0,7.46792 -6.05788,13.525796 -13.52158,13.525796 -7.46792,0 -13.52458,-6.057876 -13.52458,-13.525796 0,-7.467924 6.05666,-13.519766 13.52458,-13.519766 7.4637,0 13.52158,6.051842 13.52158,13.519766"
     style="fill:#ffffff;fill-opacity:1;fill-rule:nonzero;stroke:none;stroke-width:0.133333"
     id="path1022" />
</svg>
