<?xml version="1.0" encoding="UTF-8" standalone="no"?>
<svg
   xmlns:dc="http://purl.org/dc/elements/1.1/"
   xmlns:cc="http://creativecommons.org/ns#"
   xmlns:rdf="http://www.w3.org/1999/02/22-rdf-syntax-ns#"
   xmlns:svg="http://www.w3.org/2000/svg"
   xmlns="http://www.w3.org/2000/svg"
   xmlns:sodipodi="http://sodipodi.sourceforge.net/DTD/sodipodi-0.dtd"
   xmlns:inkscape="http://www.inkscape.org/namespaces/inkscape"
   width="74"
   height="54"
   version="1.1"
   id="svg28"
   sodipodi:docname="dots-group-orange.svg"
   inkscape:version="1.0.1 (3bc2e813f5, 2020-09-07)">
  <metadata
     id="metadata34">
    <rdf:RDF>
      <cc:Work
         rdf:about="">
        <dc:format>image/svg+xml</dc:format>
        <dc:type
           rdf:resource="http://purl.org/dc/dcmitype/StillImage" />
        <dc:title></dc:title>
      </cc:Work>
    </rdf:RDF>
  </metadata>
  <defs
     id="defs32" />
  <sodipodi:namedview
     pagecolor="#ffffff"
     bordercolor="#666666"
     borderopacity="1"
     objecttolerance="10"
     gridtolerance="10"
     guidetolerance="10"
     inkscape:pageopacity="0"
     inkscape:pageshadow="2"
     inkscape:window-width="912"
     inkscape:window-height="510"
     id="namedview30"
     showgrid="false"
     inkscape:zoom="1.1537896"
     inkscape:cx="51.028061"
     inkscape:cy="1.8893447"
     inkscape:window-x="0"
     inkscape:window-y="0"
     inkscape:window-maximized="0"
     inkscape:current-layer="svg28" />
  <path
     d="m 31.09807,12.612168 -1.281727,-0.740084 -1.085457,0.630912 1.281727,0.740084 1.085457,-0.630912"
     style="fill:#cccccc;fill-opacity:1;fill-rule:nonzero;stroke:none;stroke-width:0.133333"
     id="path16" />
  <path
     d="m 32.278223,11.951702 1.085458,-0.630911 -2.265611,1.291377 -1.085457,0.630912 2.26561,-1.291378"
     style="fill:#676767;fill-opacity:1;fill-rule:nonzero;stroke:none;stroke-width:0.133333"
     id="path18" />
  <path
     d="m 35.247847,13.666502 -9.05e-4,0.312439 1.085458,-0.630911 9.05e-4,-0.313042 -1.085698,0.631514"
     style="fill:#cccccc;fill-opacity:1;fill-rule:nonzero;stroke:none;stroke-width:0.133333"
     id="path20" />
  <path
     d="m 35.247847,13.666502 1.085697,-0.631514 -2.969863,-1.714197 -1.085458,0.630911 2.969624,1.7148"
     style="fill:#a0a0a0;fill-opacity:1;fill-rule:nonzero;stroke:none;stroke-width:0.133333"
     id="path22" />
  <path
     d="m 32.278223,11.951702 -2.26561,1.291378 -1.281727,-0.740084 -9.5e-4,0.312439 1.393192,0.804623 2.26561,-1.291378 2.858462,1.650261 4.52e-4,-0.312439 -2.969624,-1.7148"
     style="fill:#676767;fill-opacity:1;fill-rule:nonzero;stroke:none;stroke-width:0.133333"
     id="path24" />
  <path
     d="m 28.931137,13.876403 -1.281726,-0.740084 -1.085698,0.630911 1.281968,0.740084 1.085456,-0.630911"
     style="fill:#cccccc;fill-opacity:1;fill-rule:nonzero;stroke:none;stroke-width:0.133333"
     id="path26" />
  <path
     d="m 30.111291,13.215937 1.085456,-0.630911 -2.26561,1.291377 -1.085456,0.630911 2.26561,-1.291377"
     style="fill:#676767;fill-opacity:1;fill-rule:nonzero;stroke:none;stroke-width:0.133333"
     id="path28" />
  <path
     d="m 33.080974,14.930737 -9.04e-4,0.313042 1.085458,-0.631514 9.05e-4,-0.312439 -1.085698,0.630911"
     style="fill:#cccccc;fill-opacity:1;fill-rule:nonzero;stroke:none;stroke-width:0.133333"
     id="path30" />
  <path
     d="m 33.080974,14.930737 1.085698,-0.630911 -2.969925,-1.7148 -1.085456,0.630911 2.969683,1.7148"
     style="fill:#a0a0a0;fill-opacity:1;fill-rule:nonzero;stroke:none;stroke-width:0.133333"
     id="path32" />
  <path
     d="m 30.111291,13.215937 -2.26561,1.291377 -1.281968,-0.740084 -7.24e-4,0.31244 1.39295,0.804623 2.265852,-1.291377 2.85846,1.650863 9.04e-4,-0.313042 -2.969683,-1.7148"
     style="fill:#676767;fill-opacity:1;fill-rule:nonzero;stroke:none;stroke-width:0.133333"
     id="path34" />
  <path
     d="m 26.755942,15.145464 -1.281727,-0.740084 -1.085457,0.630911 1.281727,0.740084 1.085457,-0.630911"
     style="fill:#cccccc;fill-opacity:1;fill-rule:nonzero;stroke:none;stroke-width:0.133333"
     id="path36" />
  <path
     d="m 27.936156,14.484997 1.085456,-0.630911 -2.26567,1.291378 -1.085457,0.630911 2.265671,-1.291378"
     style="fill:#676767;fill-opacity:1;fill-rule:nonzero;stroke:none;stroke-width:0.133333"
     id="path38" />
  <path
     d="m 30.90578,16.199797 -7.23e-4,0.31244 1.085515,-0.630911 9.05e-4,-0.31244 -1.085697,0.630911"
     style="fill:#cccccc;fill-opacity:1;fill-rule:nonzero;stroke:none;stroke-width:0.133333"
     id="path40" />
  <path
     d="m 30.90578,16.199797 1.085697,-0.630911 -2.969865,-1.7148 -1.085456,0.630911 2.969624,1.7148"
     style="fill:#a0a0a0;fill-opacity:1;fill-rule:nonzero;stroke:none;stroke-width:0.133333"
     id="path42" />
  <path
     d="m 27.936156,14.484997 -2.265671,1.291378 -1.281727,-0.740084 -9.04e-4,0.313043 1.393131,0.804019 2.265912,-1.291377 2.85816,1.650261 7.23e-4,-0.31244 -2.969624,-1.7148"
     style="fill:#676767;fill-opacity:1;fill-rule:nonzero;stroke:none;stroke-width:0.133333"
     id="path44" />
  <path
     d="m 24.588828,16.410302 -1.281485,-0.740687 -1.085517,0.63091 1.281546,0.740085 1.085456,-0.630308"
     style="fill:#cccccc;fill-opacity:1;fill-rule:nonzero;stroke:none;stroke-width:0.133333"
     id="path46" />
  <path
     d="m 25.769223,15.749232 1.085698,-0.630308 -2.266093,1.291378 -1.085456,0.630308 2.265851,-1.291378"
     style="fill:#676767;fill-opacity:1;fill-rule:nonzero;stroke:none;stroke-width:0.133333"
     id="path48" />
  <path
     d="m 28.738848,17.464032 -6.78e-4,0.31244 1.085456,-0.630912 9.05e-4,-0.312439 -1.085698,0.630911"
     style="fill:#cccccc;fill-opacity:1;fill-rule:nonzero;stroke:none;stroke-width:0.133333"
     id="path50" />
  <path
     d="m 28.738848,17.464032 1.085698,-0.630911 -2.969625,-1.714197 -1.085698,0.630308 2.969625,1.7148"
     style="fill:#a0a0a0;fill-opacity:1;fill-rule:nonzero;stroke:none;stroke-width:0.133333"
     id="path52" />
  <path
     d="m 25.769223,15.749232 -2.265851,1.291378 -1.281546,-0.740085 -0.0011,0.31244 1.393192,0.804623 2.266093,-1.291377 2.85822,1.650261 6.78e-4,-0.31244 -2.969655,-1.7148"
     style="fill:#676767;fill-opacity:1;fill-rule:nonzero;stroke:none;stroke-width:0.133333"
     id="path54" />
  <path
     d="m 22.409652,17.673933 -1.281486,-0.73948 -1.085698,0.630911 1.281486,0.740084 1.085698,-0.631515"
     style="fill:#cccccc;fill-opacity:1;fill-rule:nonzero;stroke:none;stroke-width:0.133333"
     id="path56" />
  <path
     d="m 23.589805,17.014071 1.085698,-0.630912 -2.265851,1.290774 -1.085698,0.631515 2.265851,-1.291377"
     style="fill:#676767;fill-opacity:1;fill-rule:nonzero;stroke:none;stroke-width:0.133333"
     id="path58" />
  <path
     d="m 26.559672,18.728267 -6.79e-4,0.312439 1.085457,-0.630308 7.24e-4,-0.313042 -1.085517,0.630911"
     style="fill:#cccccc;fill-opacity:1;fill-rule:nonzero;stroke:none;stroke-width:0.133333"
     id="path60" />
  <path
     d="m 26.559672,18.728267 1.085517,-0.630911 -2.969686,-1.714197 -1.085698,0.630912 2.969867,1.714196"
     style="fill:#a0a0a0;fill-opacity:1;fill-rule:nonzero;stroke:none;stroke-width:0.133333"
     id="path62" />
  <path
     d="m 23.589805,17.014071 -2.265851,1.291377 -1.281486,-0.740084 -0.0012,0.312439 1.393433,0.80402 2.26561,-1.290774 2.858703,1.649657 6.79e-4,-0.312439 -2.969867,-1.714196"
     style="fill:#676767;fill-opacity:1;fill-rule:nonzero;stroke:none;stroke-width:0.133333"
     id="path64" />
  <path
     d="m 20.202428,18.935152 -1.281968,-0.740084 -1.085457,0.630912 1.281968,0.740084 1.085457,-0.630912"
     style="fill:#cccccc;fill-opacity:1;fill-rule:nonzero;stroke:none;stroke-width:0.133333"
     id="path66" />
  <path
     d="m 21.382582,18.274686 1.085517,-0.630911 -2.265671,1.291377 -1.085457,0.630912 2.265611,-1.291378"
     style="fill:#676767;fill-opacity:1;fill-rule:nonzero;stroke:none;stroke-width:0.133333"
     id="path68" />
  <path
     d="m 24.352508,19.989486 -9.5e-4,0.312439 1.085457,-0.630911 9.5e-4,-0.312439 -1.085457,0.630911"
     style="fill:#cccccc;fill-opacity:1;fill-rule:nonzero;stroke:none;stroke-width:0.133333"
     id="path70" />
  <path
     d="m 24.352508,19.989486 1.085457,-0.630911 -2.969866,-1.7148 -1.085517,0.630911 2.969926,1.7148"
     style="fill:#a0a0a0;fill-opacity:1;fill-rule:nonzero;stroke:none;stroke-width:0.133333"
     id="path72" />
  <path
     d="m 21.382582,18.274686 -2.265611,1.291378 -1.281968,-0.740084 -7.24e-4,0.313043 1.393192,0.804019 2.26561,-1.291378 2.858462,1.650261 9.5e-4,-0.312439 -2.969926,-1.7148"
     style="fill:#676767;fill-opacity:1;fill-rule:nonzero;stroke:none;stroke-width:0.133333"
     id="path74" />
  <path
     d="m 18.027292,20.202403 -1.281545,-0.740084 -1.085879,0.631514 1.281726,0.739481 1.085698,-0.630911"
     style="fill:#cccccc;fill-opacity:1;fill-rule:nonzero;stroke:none;stroke-width:0.133333"
     id="path76" />
  <path
     d="m 19.207446,19.54254 1.085698,-0.631514 -2.265852,1.291377 -1.085698,0.630911 2.265852,-1.290774"
     style="fill:#676767;fill-opacity:1;fill-rule:nonzero;stroke:none;stroke-width:0.133333"
     id="path78" />
  <path
     d="m 22.177313,21.256736 -9.05e-4,0.313043 1.085697,-0.631514 9.05e-4,-0.31244 -1.085697,0.630911"
     style="fill:#cccccc;fill-opacity:1;fill-rule:nonzero;stroke:none;stroke-width:0.133333"
     id="path80" />
  <path
     d="m 22.177313,21.256736 1.085697,-0.630911 -2.969866,-1.714799 -1.085698,0.631514 2.969867,1.714196"
     style="fill:#a0a0a0;fill-opacity:1;fill-rule:nonzero;stroke:none;stroke-width:0.133333"
     id="path82" />
  <path
     d="m 19.207446,19.54254 -2.265852,1.290774 -1.281726,-0.739481 -7.24e-4,0.31244 1.393131,0.80402 2.266153,-1.291377 2.85798,1.650863 9.05e-4,-0.313043 -2.969867,-1.714196"
     style="fill:#676767;fill-opacity:1;fill-rule:nonzero;stroke:none;stroke-width:0.133333"
     id="path84" />
  <path
     d="m 15.86036,21.467241 -1.281726,-0.740084 -1.085698,0.630308 1.281967,0.740084 1.085457,-0.630308"
     style="fill:#cccccc;fill-opacity:1;fill-rule:nonzero;stroke:none;stroke-width:0.133333"
     id="path86" />
  <path
     d="m 17.040513,20.806172 1.085457,-0.630308 -2.26561,1.291377 -1.085457,0.630308 2.26561,-1.291377"
     style="fill:#676767;fill-opacity:1;fill-rule:nonzero;stroke:none;stroke-width:0.133333"
     id="path88" />
  <path
     d="m 20.01038,22.520972 -9.05e-4,0.313042 1.085698,-0.630911 4.98e-4,-0.313043 -1.085276,0.630912"
     style="fill:#cccccc;fill-opacity:1;fill-rule:nonzero;stroke:none;stroke-width:0.133333"
     id="path90" />
  <path
     d="m 20.01038,22.520972 1.085276,-0.630912 -2.969686,-1.714196 -1.085457,0.630308 2.969867,1.7148"
     style="fill:#a0a0a0;fill-opacity:1;fill-rule:nonzero;stroke:none;stroke-width:0.133333"
     id="path92" />
  <path
     d="m 17.040513,20.806172 -2.26561,1.291377 -1.281967,-0.740084 -7.24e-4,0.31244 1.393192,0.804623 2.265609,-1.291378 2.858462,1.650864 9.05e-4,-0.313042 -2.969867,-1.7148"
     style="fill:#676767;fill-opacity:1;fill-rule:nonzero;stroke:none;stroke-width:0.133333"
     id="path94" />
  <path
     d="m 13.680942,22.730873 -1.281726,-0.739481 -1.085457,0.630911 1.281727,0.740084 1.085456,-0.631514"
     style="fill:#cccccc;fill-opacity:1;fill-rule:nonzero;stroke:none;stroke-width:0.133333"
     id="path96" />
  <path
     d="m 14.861337,22.07101 1.085457,-0.630911 -2.265852,1.290774 -1.085456,0.631514 2.265851,-1.291377"
     style="fill:#676767;fill-opacity:1;fill-rule:nonzero;stroke:none;stroke-width:0.133333"
     id="path98" />
  <path
     d="m 17.831022,23.785206 -9.5e-4,0.31244 1.085457,-0.630308 9.5e-4,-0.31244 -1.085457,0.630308"
     style="fill:#cccccc;fill-opacity:1;fill-rule:nonzero;stroke:none;stroke-width:0.133333"
     id="path100" />
  <path
     d="m 17.831022,23.785206 1.085457,-0.630308 -2.969685,-1.714799 -1.085457,0.630911 2.969685,1.714196"
     style="fill:#a0a0a0;fill-opacity:1;fill-rule:nonzero;stroke:none;stroke-width:0.133333"
     id="path102" />
  <path
     d="m 14.861337,22.07101 -2.265851,1.291377 -1.281727,-0.740084 -9.5e-4,0.31244 1.393433,0.80402 2.26561,-1.290775 2.85822,1.649658 9.5e-4,-0.31244 -2.969685,-1.714196"
     style="fill:#676767;fill-opacity:1;fill-rule:nonzero;stroke:none;stroke-width:0.133333"
     id="path104" />
  <path
     d="m 11.473477,23.992092 -1.281485,-0.740084 -1.0854568,0.631514 1.2814858,0.739481 1.085456,-0.630911"
     style="fill:#cccccc;fill-opacity:1;fill-rule:nonzero;stroke:none;stroke-width:0.133333"
     id="path106" />
  <path
     d="m 12.654113,23.331626 1.085517,-0.630911 -2.266153,1.291377 -1.085456,0.630911 2.266092,-1.291377"
     style="fill:#676767;fill-opacity:1;fill-rule:nonzero;stroke:none;stroke-width:0.133333"
     id="path108" />
  <path
     d="m 15.623799,25.046425 -9.5e-4,0.31244 1.085698,-0.630911 7.24e-4,-0.31244 -1.085457,0.630911"
     style="fill:#cccccc;fill-opacity:1;fill-rule:nonzero;stroke:none;stroke-width:0.133333"
     id="path110" />
  <path
     d="m 15.623799,25.046425 1.085456,-0.630911 -2.969625,-1.714799 -1.085517,0.630911 2.969686,1.714799"
     style="fill:#a0a0a0;fill-opacity:1;fill-rule:nonzero;stroke:none;stroke-width:0.133333"
     id="path112" />
  <path
     d="m 12.654113,23.331626 -2.266092,1.291377 -1.2814858,-0.739481 -7.238e-4,0.31244 1.3927096,0.804019 2.266153,-1.291377 2.85816,1.650261 9.5e-4,-0.31244 -2.969686,-1.714799"
     style="fill:#676767;fill-opacity:1;fill-rule:nonzero;stroke:none;stroke-width:0.133333"
     id="path114" />
  <path
     d="m 45.112923,12.612168 1.281725,-0.740084 1.085459,0.630912 -1.28173,0.740084 -1.085454,-0.630912"
     style="fill:#cccccc;fill-opacity:1;fill-rule:nonzero;stroke:none;stroke-width:0.133333"
     id="path116" />
  <path
     d="m 43.93277,11.951702 -1.085943,-0.630911 2.266096,1.291377 1.085454,0.630912 -2.265607,-1.291378"
     style="fill:#676767;fill-opacity:1;fill-rule:nonzero;stroke:none;stroke-width:0.133333"
     id="path118" />
  <path
     d="m 40.962662,13.666502 9.05e-4,0.312439 -1.085943,-0.630911 -9.04e-4,-0.313042 1.085517,0.631514"
     style="fill:#cccccc;fill-opacity:1;fill-rule:nonzero;stroke:none;stroke-width:0.133333"
     id="path120" />
  <path
     d="m 40.962662,13.666502 -1.085517,-0.631514 2.969682,-1.714197 1.085943,0.630911 -2.970108,1.7148"
     style="fill:#a0a0a0;fill-opacity:1;fill-rule:nonzero;stroke:none;stroke-width:0.133333"
     id="path122" />
  <path
     d="m 43.93277,11.951702 2.265607,1.291378 1.28173,-0.740084 9.04e-4,0.312439 -1.393194,0.804623 -2.265852,-1.291378 -2.858217,1.650261 -9.05e-4,-0.312439 2.970108,-1.7148"
     style="fill:#676767;fill-opacity:1;fill-rule:nonzero;stroke:none;stroke-width:0.133333"
     id="path124" />
  <path
     d="m 47.279854,13.876403 1.281725,-0.740084 1.085459,0.630911 -1.281726,0.740084 -1.085458,-0.630911"
     style="fill:#cccccc;fill-opacity:1;fill-rule:nonzero;stroke:none;stroke-width:0.133333"
     id="path126" />
  <path
     d="m 46.099642,13.215937 -1.085698,-0.630911 2.26591,1.291377 1.085458,0.630911 -2.26567,-1.291377"
     style="fill:#676767;fill-opacity:1;fill-rule:nonzero;stroke:none;stroke-width:0.133333"
     id="path128" />
  <path
     d="m 43.129534,14.930737 0.0014,0.313042 -1.085458,-0.631514 -0.0014,-0.312439 1.085458,0.630911"
     style="fill:#cccccc;fill-opacity:1;fill-rule:nonzero;stroke:none;stroke-width:0.133333"
     id="path130" />
  <path
     d="m 43.129534,14.930737 -1.085458,-0.630911 2.969868,-1.7148 1.085698,0.630911 -2.970108,1.7148"
     style="fill:#a0a0a0;fill-opacity:1;fill-rule:nonzero;stroke:none;stroke-width:0.133333"
     id="path132" />
  <path
     d="m 46.099642,13.215937 2.26567,1.291377 1.281726,-0.740084 9.04e-4,0.31244 -1.39319,0.804623 -2.265671,-1.291377 -2.858402,1.650863 -0.0014,-0.313042 2.970108,-1.7148"
     style="fill:#676767;fill-opacity:1;fill-rule:nonzero;stroke:none;stroke-width:0.133333"
     id="path134" />
  <path
     d="m 49.454991,15.145464 1.281725,-0.740084 1.085459,0.630911 -1.28173,0.740084 -1.085454,-0.630911"
     style="fill:#cccccc;fill-opacity:1;fill-rule:nonzero;stroke:none;stroke-width:0.133333"
     id="path136" />
  <path
     d="m 48.274838,14.484997 -1.085459,-0.630911 2.265612,1.291378 1.085454,0.630911 -2.265607,-1.291378"
     style="fill:#676767;fill-opacity:1;fill-rule:nonzero;stroke:none;stroke-width:0.133333"
     id="path138" />
  <path
     d="m 45.30497,16.199797 9.04e-4,0.31244 -1.085458,-0.630911 -9.05e-4,-0.31244 1.085459,0.630911"
     style="fill:#cccccc;fill-opacity:1;fill-rule:nonzero;stroke:none;stroke-width:0.133333"
     id="path140" />
  <path
     d="m 45.30497,16.199797 -1.085459,-0.630911 2.969868,-1.7148 1.085459,0.630911 -2.969868,1.7148"
     style="fill:#a0a0a0;fill-opacity:1;fill-rule:nonzero;stroke:none;stroke-width:0.133333"
     id="path142" />
  <path
     d="m 48.274838,14.484997 2.265607,1.291378 1.28173,-0.740084 9.04e-4,0.313043 -1.393194,0.804019 -2.265852,-1.291377 -2.858217,1.650261 -9.05e-4,-0.31244 2.969863,-1.7148"
     style="fill:#676767;fill-opacity:1;fill-rule:nonzero;stroke:none;stroke-width:0.133333"
     id="path144" />
  <path
     d="m 51.622162,16.410302 1.281485,-0.740687 1.085395,0.63091 -1.281662,0.740085 -1.085218,-0.630308"
     style="fill:#cccccc;fill-opacity:1;fill-rule:nonzero;stroke:none;stroke-width:0.133333"
     id="path146" />
  <path
     d="m 50.441768,15.749232 -1.085458,-0.630308 2.265852,1.291378 1.085218,0.630308 -2.265612,-1.291378"
     style="fill:#676767;fill-opacity:1;fill-rule:nonzero;stroke:none;stroke-width:0.133333"
     id="path148" />
  <path
     d="m 47.471842,17.464032 9.04e-4,0.31244 -1.085458,-0.630912 -9.04e-4,-0.312439 1.085458,0.630911"
     style="fill:#cccccc;fill-opacity:1;fill-rule:nonzero;stroke:none;stroke-width:0.133333"
     id="path150" />
  <path
     d="m 47.471842,17.464032 -1.085458,-0.630911 2.969926,-1.714197 1.085458,0.630308 -2.969926,1.7148"
     style="fill:#a0a0a0;fill-opacity:1;fill-rule:nonzero;stroke:none;stroke-width:0.133333"
     id="path152" />
  <path
     d="m 50.441768,15.749232 2.265612,1.291378 1.281662,-0.740085 0.0014,0.31244 -1.393371,0.804623 -2.265851,-1.291377 -2.858222,1.650261 -9.05e-4,-0.31244 2.969927,-1.7148"
     style="fill:#676767;fill-opacity:1;fill-rule:nonzero;stroke:none;stroke-width:0.133333"
     id="path154" />
  <path
     d="m 53.801461,17.673933 1.281725,-0.73948 1.085096,0.630911 -1.281123,0.740084 -1.085698,-0.631515"
     style="fill:#cccccc;fill-opacity:1;fill-rule:nonzero;stroke:none;stroke-width:0.133333"
     id="path156" />
  <path
     d="m 52.620945,17.014071 -1.085458,-0.630912 2.265974,1.290774 1.085698,0.631515 -2.266214,-1.291377"
     style="fill:#676767;fill-opacity:1;fill-rule:nonzero;stroke:none;stroke-width:0.133333"
     id="path158" />
  <path
     d="m 49.651258,18.728267 9.05e-4,0.312439 -1.085454,-0.630308 -9.04e-4,-0.313042 1.085697,0.630911"
     style="fill:#cccccc;fill-opacity:1;fill-rule:nonzero;stroke:none;stroke-width:0.133333"
     id="path160" />
  <path
     d="m 49.651258,18.728267 -1.085698,-0.630911 2.969927,-1.714197 1.085458,0.630912 -2.969687,1.714196"
     style="fill:#a0a0a0;fill-opacity:1;fill-rule:nonzero;stroke:none;stroke-width:0.133333"
     id="path162" />
  <path
     d="m 52.620945,17.014071 2.266214,1.291377 1.281123,-0.740084 0.0014,0.312439 -1.393312,0.80402 -2.265729,-1.290774 -2.858462,1.649657 -9.05e-4,-0.312439 2.969687,-1.714196"
     style="fill:#676767;fill-opacity:1;fill-rule:nonzero;stroke:none;stroke-width:0.133333"
     id="path164" />
  <path
     d="m 56.00844,18.935152 1.28173,-0.740084 1.085698,0.630912 -1.28173,0.740084 -1.085698,-0.630912"
     style="fill:#cccccc;fill-opacity:1;fill-rule:nonzero;stroke:none;stroke-width:0.133333"
     id="path166" />
  <path
     d="m 54.828649,18.274686 -1.085698,-0.630911 2.265489,1.291377 1.085698,0.630912 -2.265489,-1.291378"
     style="fill:#676767;fill-opacity:1;fill-rule:nonzero;stroke:none;stroke-width:0.133333"
     id="path168" />
  <path
     d="m 51.858482,19.989486 9.05e-4,0.312439 -1.085698,-0.630911 -9.05e-4,-0.312439 1.085698,0.630911"
     style="fill:#cccccc;fill-opacity:1;fill-rule:nonzero;stroke:none;stroke-width:0.133333"
     id="path170" />
  <path
     d="m 51.858482,19.989486 -1.085698,-0.630911 2.970167,-1.7148 1.085698,0.630911 -2.970167,1.7148"
     style="fill:#a0a0a0;fill-opacity:1;fill-rule:nonzero;stroke:none;stroke-width:0.133333"
     id="path172" />
  <path
     d="m 54.828649,18.274686 2.265489,1.291378 1.28173,-0.740084 4.52e-4,0.313043 -1.39271,0.804019 -2.266092,-1.291378 -2.858217,1.650261 -9.05e-4,-0.312439 2.970162,-1.7148"
     style="fill:#676767;fill-opacity:1;fill-rule:nonzero;stroke:none;stroke-width:0.133333"
     id="path174" />
  <path
     d="m 58.183455,20.202403 1.28173,-0.740084 1.085698,0.631514 -1.28173,0.739481 -1.085698,-0.630911"
     style="fill:#cccccc;fill-opacity:1;fill-rule:nonzero;stroke:none;stroke-width:0.133333"
     id="path176" />
  <path
     d="m 57.003062,19.54254 -1.085096,-0.631514 2.265489,1.291377 1.085698,0.630911 -2.266091,-1.290774"
     style="fill:#676767;fill-opacity:1;fill-rule:nonzero;stroke:none;stroke-width:0.133333"
     id="path178" />
  <path
     d="m 54.033678,21.256736 4.52e-4,0.313043 -1.085693,-0.631514 -4.52e-4,-0.31244 1.085693,0.630911"
     style="fill:#cccccc;fill-opacity:1;fill-rule:nonzero;stroke:none;stroke-width:0.133333"
     id="path180" />
  <path
     d="m 54.033678,21.256736 -1.085698,-0.630911 2.969986,-1.714799 1.085096,0.631514 -2.969384,1.714196"
     style="fill:#a0a0a0;fill-opacity:1;fill-rule:nonzero;stroke:none;stroke-width:0.133333"
     id="path182" />
  <path
     d="m 57.003062,19.54254 2.266091,1.290774 1.28173,-0.739481 4.52e-4,0.31244 -1.39271,0.80402 -2.266092,-1.291377 -2.858403,1.650863 -4.52e-4,-0.313043 2.969384,-1.714196"
     style="fill:#676767;fill-opacity:1;fill-rule:nonzero;stroke:none;stroke-width:0.133333"
     id="path184" />
  <path
     d="m 60.35063,21.467241 1.281726,-0.740084 1.085698,0.630308 -1.281726,0.740084 -1.085698,-0.630308"
     style="fill:#cccccc;fill-opacity:1;fill-rule:nonzero;stroke:none;stroke-width:0.133333"
     id="path186" />
  <path
     d="m 59.170237,20.806172 -1.085096,-0.630308 2.265489,1.291377 1.085698,0.630308 -2.266091,-1.291377"
     style="fill:#676767;fill-opacity:1;fill-rule:nonzero;stroke:none;stroke-width:0.133333"
     id="path188" />
  <path
     d="m 56.200247,22.520972 0.0014,0.313042 -1.085698,-0.630911 -4.52e-4,-0.313043 1.085092,0.630912"
     style="fill:#cccccc;fill-opacity:1;fill-rule:nonzero;stroke:none;stroke-width:0.133333"
     id="path190" />
  <path
     d="m 56.200247,22.520972 -1.085092,-0.630912 2.969986,-1.714196 1.085096,0.630308 -2.96999,1.7148"
     style="fill:#a0a0a0;fill-opacity:1;fill-rule:nonzero;stroke:none;stroke-width:0.133333"
     id="path192" />
  <path
     d="m 59.170237,20.806172 2.266091,1.291377 1.281726,-0.740084 4.52e-4,0.31244 -1.393312,0.804623 -2.26549,-1.291378 -2.858403,1.650864 -0.0014,-0.313042 2.96999,-1.7148"
     style="fill:#676767;fill-opacity:1;fill-rule:nonzero;stroke:none;stroke-width:0.133333"
     id="path194" />
  <path
     d="m 62.529866,22.730873 1.28173,-0.739481 1.085698,0.630911 -1.28173,0.740084 -1.085698,-0.631514"
     style="fill:#cccccc;fill-opacity:1;fill-rule:nonzero;stroke:none;stroke-width:0.133333"
     id="path196" />
  <path
     d="m 61.349473,22.07101 -1.085097,-0.630911 2.26549,1.290774 1.085698,0.631514 -2.266091,-1.291377"
     style="fill:#676767;fill-opacity:1;fill-rule:nonzero;stroke:none;stroke-width:0.133333"
     id="path198" />
  <path
     d="m 58.380089,23.785206 4.52e-4,0.31244 -1.085698,-0.630308 -4.52e-4,-0.31244 1.085698,0.630308"
     style="fill:#cccccc;fill-opacity:1;fill-rule:nonzero;stroke:none;stroke-width:0.133333"
     id="path200" />
  <path
     d="m 58.380089,23.785206 -1.085698,-0.630308 2.969985,-1.714799 1.085097,0.630911 -2.969384,1.714196"
     style="fill:#a0a0a0;fill-opacity:1;fill-rule:nonzero;stroke:none;stroke-width:0.133333"
     id="path202" />
  <path
     d="m 61.349473,22.07101 2.266091,1.291377 1.28173,-0.740084 4.52e-4,0.31244 -1.393312,0.80402 -2.26549,-1.290775 -2.858403,1.649658 -4.52e-4,-0.31244 2.969384,-1.714196"
     style="fill:#676767;fill-opacity:1;fill-rule:nonzero;stroke:none;stroke-width:0.133333"
     id="path204" />
  <path
     d="m 64.73685,23.992092 1.281725,-0.740084 1.085698,0.631514 -1.281725,0.739481 -1.085698,-0.630911"
     style="fill:#cccccc;fill-opacity:1;fill-rule:nonzero;stroke:none;stroke-width:0.133333"
     id="path206" />
  <path
     d="m 63.557058,23.331626 -1.085698,-0.630911 2.26549,1.291377 1.085698,0.630911 -2.26549,-1.291377"
     style="fill:#676767;fill-opacity:1;fill-rule:nonzero;stroke:none;stroke-width:0.133333"
     id="path208" />
  <path
     d="m 60.587073,25.046425 4.52e-4,0.31244 -1.085096,-0.630911 -0.0014,-0.31244 1.085698,0.630911"
     style="fill:#cccccc;fill-opacity:1;fill-rule:nonzero;stroke:none;stroke-width:0.133333"
     id="path210" />
  <path
     d="m 60.587073,25.046425 -1.085698,-0.630911 2.969985,-1.714799 1.085698,0.630911 -2.969985,1.714799"
     style="fill:#a0a0a0;fill-opacity:1;fill-rule:nonzero;stroke:none;stroke-width:0.133333"
     id="path212" />
  <path
     d="m 63.557058,23.331626 2.26549,1.291377 1.281725,-0.739481 0.0014,0.31244 -1.393312,0.804019 -2.266091,-1.291377 -2.858403,1.650261 -4.53e-4,-0.31244 2.969986,-1.714799"
     style="fill:#676767;fill-opacity:1;fill-rule:nonzero;stroke:none;stroke-width:0.133333"
     id="path214" />
  <path
     d="M 61.958065,24.160978 39.864659,11.405234 c -1.418102,0 -2.211869,-0.0018 -3.630031,-0.0018 l -21.952873,12.757553 -0.0057,2.092382 c 0.0045,0.821511 0.0071,1.283536 0.01176,2.104444 l 22.093108,12.755138 c 1.417862,0 2.215185,0 3.633107,0 l 21.953052,-12.757559 0.006,-2.092382 c -0.0048,-0.820908 -0.01086,-1.281124 -0.01506,-2.102032"
     style="fill:#545454;fill-opacity:1;fill-rule:nonzero;stroke:none;stroke-width:0.133333"
     id="path216" />
  <path
     d="m 14.294,26.258185 -0.0061,2.092381 c -0.0047,-0.820908 -0.0073,-1.282933 -0.01176,-2.103841 l 0.0057,-2.092985 c 0.0047,0.821512 0.0075,1.282934 0.01225,2.104445"
     style="fill:#292c36;fill-opacity:1;fill-rule:nonzero;stroke:none;stroke-width:0.133333"
     id="path218" />
  <path
     d="m 61.973147,26.256375 -0.006,2.092382 -21.952808,12.757554 0.0057,-2.09238 21.953174,-12.757556"
     style="fill:#373c48;fill-opacity:1;fill-rule:nonzero;stroke:none;stroke-width:0.133333"
     id="path220" />
  <path
     d="m 36.386807,39.013931 -0.0058,2.09238 -22.093105,-12.755745 0.0061,-2.092381 22.092807,12.755746"
     style="fill:#373c48;fill-opacity:1;fill-rule:nonzero;stroke:none;stroke-width:0.133333"
     id="path222" />
  <path
     d="m 40.019973,39.013931 -0.0057,2.09238 c -1.418161,0 -2.215488,0 -3.633347,0 l 0.0058,-2.09238 c 1.418161,0 2.215245,0 3.633166,0"
     style="fill:#4e5463;fill-opacity:1;fill-rule:nonzero;stroke:none;stroke-width:0.133333"
     id="path224" />
  <path
     d="m 61.958065,24.15374 c 0.0041,0.820908 0.01027,1.281124 0.01506,2.102635 L 40.019973,39.013931 c -1.417921,0 -2.215005,0 -3.633166,0 L 14.294,26.258185 c -0.0047,-0.821511 -0.0075,-1.282933 -0.01225,-2.104445 L 36.234628,11.396187 c 1.418162,0 2.211929,0.0018 3.630031,0.0018 l 22.093406,12.755744"
     style="fill:#292c36;fill-opacity:1;fill-rule:nonzero;stroke:none;stroke-width:0.133333"
     id="path226" />
  <path
     d="M 61.958065,21.733841 39.864659,8.9774933 c -1.418102,0 -2.211869,-0.0012 -3.630031,-0.0012 l -21.952873,12.7575537 -0.0057,2.092381 c 0.0045,0.821511 0.0071,1.283536 0.01176,2.104444 l 22.093106,12.755139 c 1.417862,0 2.215185,0 3.633107,0 l 21.953052,-12.757552 0.006,-2.092381 c -0.0048,-0.821511 -0.01086,-1.281123 -0.01506,-2.102031"
     style="fill:#545454;fill-opacity:1;fill-rule:nonzero;stroke:none;stroke-width:0.133333"
     id="path228" />
  <path
     d="m 14.294,23.83165 -0.0061,2.091778 c -0.0047,-0.820908 -0.0073,-1.282933 -0.01176,-2.104444 l 0.0057,-2.092381 c 0.0047,0.821511 0.0075,1.282933 0.01225,2.105047"
     style="fill:#292c36;fill-opacity:1;fill-rule:nonzero;stroke:none;stroke-width:0.133333"
     id="path230" />
  <path
     d="m 61.973147,23.829238 -0.006,2.092381 -21.952808,12.756952 0.0057,-2.09178 21.953174,-12.757553"
     style="fill:#373c48;fill-opacity:1;fill-rule:nonzero;stroke:none;stroke-width:0.133333"
     id="path232" />
  <path
     d="m 36.386807,36.586791 -0.0058,2.09178 -22.093108,-12.755143 0.0061,-2.091778 22.092806,12.755141"
     style="fill:#373c48;fill-opacity:1;fill-rule:nonzero;stroke:none;stroke-width:0.133333"
     id="path234" />
  <path
     d="m 40.019973,36.586791 -0.0057,2.09178 c -1.418161,0 -2.215488,0 -3.633347,0 l 0.0058,-2.09178 c 1.418161,0 2.215245,0 3.633166,0"
     style="fill:#4e5463;fill-opacity:1;fill-rule:nonzero;stroke:none;stroke-width:0.133333"
     id="path236" />
  <path
     d="m 61.958065,21.726603 c 0.0041,0.820908 0.01027,1.281123 0.01506,2.102635 L 40.019973,36.586791 c -1.417921,0 -2.215005,0 -3.633166,0 L 14.294,23.83165 c -0.0047,-0.822114 -0.0075,-1.283536 -0.01225,-2.105047 L 36.234628,8.9690493 c 1.418162,0 2.211929,0.0018 3.630031,0.0018 L 61.958065,21.726594"
     style="fill:#596177;fill-opacity:1;fill-rule:nonzero;stroke:none;stroke-width:0.133333"
     id="path238" />
  <path
     d="m 65.882863,32.300092 1.085698,-0.631514 -2.251014,-3.89886 -1.085698,0.630911 2.251014,3.899463"
     style="fill:#cccccc;fill-opacity:1;fill-rule:nonzero;stroke:none;stroke-width:0.133333"
     id="path240" />
  <path
     d="m 64.717547,27.769718 -2.969985,-1.7148 -1.085097,0.630911 2.969384,1.7148 1.085698,-0.630911"
     style="fill:#a0a0a0;fill-opacity:1;fill-rule:nonzero;stroke:none;stroke-width:0.133333"
     id="path242" />
  <path
     d="m 67.164593,33.039575 -4.53e-4,0.313043 1.085698,-0.631515 4.53e-4,-0.312441 -1.085698,0.630913"
     style="fill:#cccccc;fill-opacity:1;fill-rule:nonzero;stroke:none;stroke-width:0.133333"
     id="path244" />
  <path
     d="m 67.164593,33.039575 1.085698,-0.630913 -1.28173,-0.740084 -1.085698,0.631514 1.28173,0.739483"
     style="fill:#a0a0a0;fill-opacity:1;fill-rule:nonzero;stroke:none;stroke-width:0.133333"
     id="path246" />
  <path
     d="m 65.882863,32.300092 -2.251014,-3.899463 -2.969384,-1.7148 -0.0014,0.313043 2.858399,1.649658 2.251013,3.898862 1.393313,0.805226 4.52e-4,-0.313043 -1.28173,-0.739483"
     style="fill:#676767;fill-opacity:1;fill-rule:nonzero;stroke:none;stroke-width:0.133333"
     id="path248" />
  <path
     d="m 63.70242,33.561311 1.085096,-0.630908 -2.251014,-3.899466 -1.085698,0.631514 2.251616,3.89886"
     style="fill:#cccccc;fill-opacity:1;fill-rule:nonzero;stroke:none;stroke-width:0.133333"
     id="path250" />
  <path
     d="m 62.536502,29.030937 -2.969985,-1.714197 -1.085097,0.630308 2.969384,1.715403 1.085698,-0.631514"
     style="fill:#a0a0a0;fill-opacity:1;fill-rule:nonzero;stroke:none;stroke-width:0.133333"
     id="path252" />
  <path
     d="m 64.983543,34.300794 -4.52e-4,0.313043 1.085698,-0.630913 4.52e-4,-0.312437 -1.085698,0.630307"
     style="fill:#cccccc;fill-opacity:1;fill-rule:nonzero;stroke:none;stroke-width:0.133333"
     id="path254" />
  <path
     d="m 64.983543,34.300794 1.085698,-0.630307 -1.281725,-0.740084 -1.085096,0.630908 1.281123,0.739483"
     style="fill:#a0a0a0;fill-opacity:1;fill-rule:nonzero;stroke:none;stroke-width:0.133333"
     id="path256" />
  <path
     d="m 63.70242,33.561311 -2.251616,-3.89886 -2.969384,-1.715403 -0.0014,0.313043 2.858403,1.650261 2.251014,3.899467 1.393312,0.804018 4.53e-4,-0.313043 -1.281124,-0.739483"
     style="fill:#676767;fill-opacity:1;fill-rule:nonzero;stroke:none;stroke-width:0.133333"
     id="path258" />
  <path
     d="m 61.513535,34.835197 1.085092,-0.630908 -2.251014,-3.899467 -1.085698,0.63091 2.25162,3.899465"
     style="fill:#cccccc;fill-opacity:1;fill-rule:nonzero;stroke:none;stroke-width:0.133333"
     id="path260" />
  <path
     d="m 60.347613,30.304822 -2.969985,-1.714196 -1.085097,0.630308 2.969384,1.714798 1.085698,-0.63091"
     style="fill:#a0a0a0;fill-opacity:1;fill-rule:nonzero;stroke:none;stroke-width:0.133333"
     id="path262" />
  <path
     d="m 62.794659,35.575281 -4.53e-4,0.31244 1.085698,-0.63091 4.53e-4,-0.313044 -1.085698,0.631514"
     style="fill:#cccccc;fill-opacity:1;fill-rule:nonzero;stroke:none;stroke-width:0.133333"
     id="path264" />
  <path
     d="m 62.794659,35.575281 1.085698,-0.631514 -1.28173,-0.739478 -1.085092,0.630908 1.281124,0.740084"
     style="fill:#a0a0a0;fill-opacity:1;fill-rule:nonzero;stroke:none;stroke-width:0.133333"
     id="path266" />
  <path
     d="m 61.513535,34.835197 -2.25162,-3.899465 -2.969384,-1.714798 -0.0014,0.313043 2.858399,1.650262 2.251013,3.898862 1.393313,0.80462 4.52e-4,-0.31244 -1.281124,-0.740084"
     style="fill:#676767;fill-opacity:1;fill-rule:nonzero;stroke:none;stroke-width:0.133333"
     id="path268" />
  <path
     d="m 59.342741,36.095211 1.085698,-0.63091 -2.251014,-3.898864 -1.085698,0.630311 2.251014,3.899463"
     style="fill:#cccccc;fill-opacity:1;fill-rule:nonzero;stroke:none;stroke-width:0.133333"
     id="path270" />
  <path
     d="m 58.177425,31.565437 -2.969985,-1.714798 -1.085698,0.630911 2.969985,1.714198 1.085698,-0.630311"
     style="fill:#a0a0a0;fill-opacity:1;fill-rule:nonzero;stroke:none;stroke-width:0.133333"
     id="path272" />
  <path
     d="m 60.624466,36.835301 -0.0014,0.31243 1.085698,-0.63091 0.0014,-0.31304 -1.085698,0.63152"
     style="fill:#cccccc;fill-opacity:1;fill-rule:nonzero;stroke:none;stroke-width:0.133333"
     id="path274" />
  <path
     d="m 60.624466,36.835301 1.085698,-0.63152 -1.281725,-0.73948 -1.085698,0.63091 1.281725,0.74009"
     style="fill:#a0a0a0;fill-opacity:1;fill-rule:nonzero;stroke:none;stroke-width:0.133333"
     id="path276" />
  <path
     d="m 59.342741,36.095211 -2.251014,-3.899463 -2.969985,-1.714198 -4.53e-4,0.312439 2.857801,1.650261 2.251616,3.899461 1.392711,0.80402 0.0014,-0.31243 -1.281726,-0.74009"
     style="fill:#676767;fill-opacity:1;fill-rule:nonzero;stroke:none;stroke-width:0.133333"
     id="path278" />
  <path
     d="m 57.14541,37.356431 1.085698,-0.63091 -2.251013,-3.898865 -1.085698,0.630912 2.251013,3.898863"
     style="fill:#cccccc;fill-opacity:1;fill-rule:nonzero;stroke:none;stroke-width:0.133333"
     id="path280" />
  <path
     d="m 55.980095,32.826656 -2.969986,-1.714195 -1.085399,0.630306 2.969687,1.714801 1.085698,-0.630912"
     style="fill:#a0a0a0;fill-opacity:1;fill-rule:nonzero;stroke:none;stroke-width:0.133333"
     id="path282" />
  <path
     d="m 58.427136,38.096511 -4.53e-4,0.31305 1.085092,-0.63152 0.0014,-0.31244 -1.085698,0.63091"
     style="fill:#cccccc;fill-opacity:1;fill-rule:nonzero;stroke:none;stroke-width:0.133333"
     id="path284" />
  <path
     d="m 58.427136,38.096511 1.085698,-0.63091 -1.281726,-0.74008 -1.085698,0.63091 1.281726,0.74008"
     style="fill:#a0a0a0;fill-opacity:1;fill-rule:nonzero;stroke:none;stroke-width:0.133333"
     id="path286" />
  <path
     d="m 57.14541,37.356431 -2.251013,-3.898863 -2.969687,-1.714801 -0.0014,0.313043 2.858099,1.650261 2.25162,3.89886 1.393313,0.80463 4.52e-4,-0.31305 -1.281725,-0.74008"
     style="fill:#676767;fill-opacity:1;fill-rule:nonzero;stroke:none;stroke-width:0.133333"
     id="path288" />
  <path
     d="m 54.964361,38.637551 1.085698,-0.63091 -2.251616,-3.899463 -1.085155,0.631514 2.251073,3.898859"
     style="fill:#cccccc;fill-opacity:1;fill-rule:nonzero;stroke:none;stroke-width:0.133333"
     id="path290" />
  <path
     d="m 53.798443,34.107178 -2.969564,-1.714195 -1.085454,0.630908 2.969863,1.714801 1.085155,-0.631514"
     style="fill:#a0a0a0;fill-opacity:1;fill-rule:nonzero;stroke:none;stroke-width:0.133333"
     id="path292" />
  <path
     d="m 56.246091,39.377031 -0.0014,0.31244 1.085698,-0.6303 0.0014,-0.31244 -1.085698,0.6303"
     style="fill:#cccccc;fill-opacity:1;fill-rule:nonzero;stroke:none;stroke-width:0.133333"
     id="path294" />
  <path
     d="m 56.246091,39.377031 1.085698,-0.6303 -1.28173,-0.74009 -1.085698,0.63091 1.28173,0.73948"
     style="fill:#a0a0a0;fill-opacity:1;fill-rule:nonzero;stroke:none;stroke-width:0.133333"
     id="path296" />
  <path
     d="m 54.964361,38.637551 -2.251073,-3.898859 -2.969863,-1.714801 -9.05e-4,0.313043 2.858218,1.649659 2.251253,3.899468 1.392711,0.80341 0.0014,-0.31244 -1.28173,-0.73948"
     style="fill:#676767;fill-opacity:1;fill-rule:nonzero;stroke:none;stroke-width:0.133333"
     id="path298" />
  <path
     d="m 52.775476,39.914451 1.085698,-0.63151 -2.251253,-3.89826 -1.085459,0.63031 2.251014,3.89946"
     style="fill:#cccccc;fill-opacity:1;fill-rule:nonzero;stroke:none;stroke-width:0.133333"
     id="path300" />
  <path
     d="m 51.609921,35.384681 -2.969868,-1.715402 -1.085458,0.631515 2.969867,1.714197 1.085459,-0.63031"
     style="fill:#a0a0a0;fill-opacity:1;fill-rule:nonzero;stroke:none;stroke-width:0.133333"
     id="path302" />
  <path
     d="m 54.057201,40.654541 -0.0014,0.31244 1.085698,-0.63091 4.53e-4,-0.31305 -1.085097,0.63152"
     style="fill:#cccccc;fill-opacity:1;fill-rule:nonzero;stroke:none;stroke-width:0.133333"
     id="path304" />
  <path
     d="m 54.057201,40.654541 1.085097,-0.63152 -1.281124,-0.74008 -1.085698,0.63151 1.281725,0.74009"
     style="fill:#a0a0a0;fill-opacity:1;fill-rule:nonzero;stroke:none;stroke-width:0.133333"
     id="path306" />
  <path
     d="m 52.775476,39.914451 -2.251014,-3.89946 -2.969867,-1.714197 -9.05e-4,0.312441 2.858222,1.650256 2.251013,3.89886 1.392888,0.80463 0.0014,-0.31244 -1.281726,-0.74009"
     style="fill:#676767;fill-opacity:1;fill-rule:nonzero;stroke:none;stroke-width:0.133333"
     id="path308" />
  <path
     d="m 50.604804,41.173261 1.085698,-0.63031 -2.251014,-3.89946 -1.085698,0.63091 2.251014,3.89886"
     style="fill:#cccccc;fill-opacity:1;fill-rule:nonzero;stroke:none;stroke-width:0.133333"
     id="path310" />
  <path
     d="m 49.439488,36.643491 -2.969926,-1.714802 -1.085459,0.630912 2.969687,1.7148 1.085698,-0.63091"
     style="fill:#a0a0a0;fill-opacity:1;fill-rule:nonzero;stroke:none;stroke-width:0.133333"
     id="path312" />
  <path
     d="m 51.886529,41.913341 -9.04e-4,0.31305 1.085697,-0.63152 4.53e-4,-0.31244 -1.085576,0.63091"
     style="fill:#cccccc;fill-opacity:1;fill-rule:nonzero;stroke:none;stroke-width:0.133333"
     id="path314" />
  <path
     d="m 51.886529,41.913341 1.085581,-0.63091 -1.281608,-0.73948 -1.085698,0.63031 1.281725,0.74008"
     style="fill:#a0a0a0;fill-opacity:1;fill-rule:nonzero;stroke:none;stroke-width:0.133333"
     id="path316" />
  <path
     d="m 50.604804,41.173261 -2.251014,-3.89886 -2.969687,-1.7148 -9.04e-4,0.31244 2.858222,1.65026 2.251072,3.89886 1.393132,0.80523 9.04e-4,-0.31305 -1.281725,-0.74008"
     style="fill:#676767;fill-opacity:1;fill-rule:nonzero;stroke:none;stroke-width:0.133333"
     id="path318" />
  <path
     d="m 48.436245,42.436291 1.085453,-0.63031 -2.250833,-3.89946 -1.085878,0.6303 2.251258,3.89947"
     style="fill:#cccccc;fill-opacity:1;fill-rule:nonzero;stroke:none;stroke-width:0.133333"
     id="path320" />
  <path
     d="m 47.270865,37.906521 -2.970107,-1.7148 -1.085454,0.63091 2.969683,1.71419 1.085878,-0.6303"
     style="fill:#a0a0a0;fill-opacity:1;fill-rule:nonzero;stroke:none;stroke-width:0.133333"
     id="path322" />
  <path
     d="m 49.71797,43.176371 -0.0014,0.31244 1.085698,-0.63031 9.04e-4,-0.31243 -1.085458,0.6303"
     style="fill:#cccccc;fill-opacity:1;fill-rule:nonzero;stroke:none;stroke-width:0.133333"
     id="path324" />
  <path
     d="m 49.71797,43.176371 1.085458,-0.6303 -1.28173,-0.74009 -1.085453,0.63031 1.281725,0.74008"
     style="fill:#a0a0a0;fill-opacity:1;fill-rule:nonzero;stroke:none;stroke-width:0.133333"
     id="path326" />
  <path
     d="m 48.436245,42.436291 -2.251258,-3.89947 -2.969683,-1.71419 -9.05e-4,0.31244 2.858399,1.65026 2.251258,3.89946 1.392706,0.80402 0.0014,-0.31244 -1.281725,-0.74008"
     style="fill:#676767;fill-opacity:1;fill-rule:nonzero;stroke:none;stroke-width:0.133333"
     id="path328" />
  <path
     d="m 46.23891,43.713791 1.085458,-0.6303 -2.250774,-3.89947 -1.085698,0.63152 2.251014,3.89825"
     style="fill:#cccccc;fill-opacity:1;fill-rule:nonzero;stroke:none;stroke-width:0.133333"
     id="path330" />
  <path
     d="m 45.073594,39.184021 -2.970108,-1.7142 -1.085517,0.63031 2.969927,1.71541 1.085698,-0.63152"
     style="fill:#a0a0a0;fill-opacity:1;fill-rule:nonzero;stroke:none;stroke-width:0.133333"
     id="path332" />
  <path
     d="m 47.520639,44.453881 -9.04e-4,0.31304 1.085698,-0.63091 9.04e-4,-0.31244 -1.085458,0.63031"
     style="fill:#cccccc;fill-opacity:1;fill-rule:nonzero;stroke:none;stroke-width:0.133333"
     id="path334" />
  <path
     d="m 47.520639,44.453881 1.085454,-0.63031 -1.281725,-0.74008 -1.085458,0.6303 1.281729,0.74009"
     style="fill:#a0a0a0;fill-opacity:1;fill-rule:nonzero;stroke:none;stroke-width:0.133333"
     id="path336" />
  <path
     d="m 46.23891,43.713791 -2.251014,-3.89825 -2.969927,-1.71541 -9.05e-4,0.31244 2.858403,1.65087 2.251317,3.89886 1.392706,0.80462 9.05e-4,-0.31304 -1.281725,-0.74009"
     style="fill:#676767;fill-opacity:1;fill-rule:nonzero;stroke:none;stroke-width:0.133333"
     id="path338" />
  <path
     d="m 10.387297,32.300092 -1.0856981,-0.631514 2.2513151,-3.89886 1.085698,0.630911 -2.251315,3.899463"
     style="fill:#cccccc;fill-opacity:1;fill-rule:nonzero;stroke:none;stroke-width:0.133333"
     id="path340" />
  <path
     d="m 11.552914,27.769718 2.969866,-1.7148 1.085457,0.630911 -2.969625,1.7148 -1.085698,-0.630911"
     style="fill:#a0a0a0;fill-opacity:1;fill-rule:nonzero;stroke:none;stroke-width:0.133333"
     id="path342" />
  <path
     d="m 9.1058114,33.039575 7.238e-4,0.313043 -1.0854568,-0.631515 -9.5e-4,-0.312441 1.0856979,0.630913"
     style="fill:#cccccc;fill-opacity:1;fill-rule:nonzero;stroke:none;stroke-width:0.133333"
     id="path344" />
  <path
     d="M 9.1058114,33.039575 8.0201135,32.408662 9.3015989,31.668578 10.387297,32.300092 9.1058114,33.039575"
     style="fill:#a0a0a0;fill-opacity:1;fill-rule:nonzero;stroke:none;stroke-width:0.133333"
     id="path346" />
  <path
     d="m 10.387297,32.300092 2.251315,-3.899463 2.969625,-1.7148 7.24e-4,0.313043 -2.858221,1.649658 -2.251013,3.898862 -1.3931918,0.805226 -7.238e-4,-0.313043 1.2814856,-0.739483"
     style="fill:#676767;fill-opacity:1;fill-rule:nonzero;stroke:none;stroke-width:0.133333"
     id="path348" />
  <path
     d="m 12.568403,33.561311 -1.085456,-0.630908 2.251014,-3.899466 1.085456,0.631514 -2.251014,3.89886"
     style="fill:#cccccc;fill-opacity:1;fill-rule:nonzero;stroke:none;stroke-width:0.133333"
     id="path350" />
  <path
     d="m 13.733961,29.030937 2.969866,-1.714197 1.085456,0.630308 -2.969866,1.715403 -1.085456,-0.631514"
     style="fill:#a0a0a0;fill-opacity:1;fill-rule:nonzero;stroke:none;stroke-width:0.133333"
     id="path352" />
  <path
     d="m 11.286677,34.300794 0.0011,0.313043 -1.085698,-0.630913 -9.05e-4,-0.312437 1.085457,0.630307"
     style="fill:#cccccc;fill-opacity:1;fill-rule:nonzero;stroke:none;stroke-width:0.133333"
     id="path354" />
  <path
     d="m 11.286677,34.300794 -1.085457,-0.630307 1.281727,-0.740084 1.085456,0.630908 -1.281726,0.739483"
     style="fill:#a0a0a0;fill-opacity:1;fill-rule:nonzero;stroke:none;stroke-width:0.133333"
     id="path356" />
  <path
     d="m 12.568403,33.561311 2.251014,-3.89886 2.969866,-1.715403 9.5e-4,0.313043 -2.858461,1.650261 -2.251014,3.899467 -1.39295,0.804018 -0.0011,-0.313043 1.281726,-0.739483"
     style="fill:#676767;fill-opacity:1;fill-rule:nonzero;stroke:none;stroke-width:0.133333"
     id="path358" />
  <path
     d="m 14.77418,34.817708 -1.085457,-0.630311 2.251255,-3.899464 1.085456,0.630912 -2.251254,3.898863"
     style="fill:#cccccc;fill-opacity:1;fill-rule:nonzero;stroke:none;stroke-width:0.133333"
     id="path360" />
  <path
     d="m 15.939978,30.287933 2.969625,-1.714196 1.085517,0.630308 -2.969686,1.7148 -1.085456,-0.630912"
     style="fill:#a0a0a0;fill-opacity:1;fill-rule:nonzero;stroke:none;stroke-width:0.133333"
     id="path362" />
  <path
     d="m 13.492694,35.557791 9.05e-4,0.31244 -1.085698,-0.63031 -6.78e-4,-0.313041 1.085456,0.630911"
     style="fill:#cccccc;fill-opacity:1;fill-rule:nonzero;stroke:none;stroke-width:0.133333"
     id="path364" />
  <path
     d="m 13.492694,35.557791 -1.085456,-0.630911 1.281485,-0.739483 1.085457,0.630311 -1.281486,0.740083"
     style="fill:#a0a0a0;fill-opacity:1;fill-rule:nonzero;stroke:none;stroke-width:0.133333"
     id="path366" />
  <path
     d="m 14.77418,34.817708 2.251254,-3.898863 2.969686,-1.7148 9.05e-4,0.31244 -2.858402,1.650862 -2.251074,3.898864 -1.39295,0.80402 -9.05e-4,-0.31244 1.281486,-0.740083"
     style="fill:#676767;fill-opacity:1;fill-rule:nonzero;stroke:none;stroke-width:0.133333"
     id="path368" />
  <path
     d="m 16.959931,36.095211 -1.085457,-0.63091 2.251014,-3.898864 1.085517,0.630311 -2.251074,3.899463"
     style="fill:#cccccc;fill-opacity:1;fill-rule:nonzero;stroke:none;stroke-width:0.133333"
     id="path370" />
  <path
     d="m 18.125488,31.565437 2.969927,-1.714798 1.085697,0.630911 -2.970107,1.714198 -1.085517,-0.630311"
     style="fill:#a0a0a0;fill-opacity:1;fill-rule:nonzero;stroke:none;stroke-width:0.133333"
     id="path372" />
  <path
     d="m 15.678204,36.835301 9.5e-4,0.31243 -1.085457,-0.63091 -9.5e-4,-0.31304 1.085457,0.63152"
     style="fill:#cccccc;fill-opacity:1;fill-rule:nonzero;stroke:none;stroke-width:0.133333"
     id="path374" />
  <path
     d="m 15.678204,36.835301 -1.085456,-0.63152 1.281726,-0.73948 1.085457,0.63091 -1.281727,0.74009"
     style="fill:#a0a0a0;fill-opacity:1;fill-rule:nonzero;stroke:none;stroke-width:0.133333"
     id="path376" />
  <path
     d="m 16.959931,36.095211 2.251074,-3.899463 2.970107,-1.714198 6.79e-4,0.312439 -2.858401,1.650261 -2.251075,3.899461 -1.39313,0.80402 -9.5e-4,-0.31243 1.281726,-0.74009"
     style="fill:#676767;fill-opacity:1;fill-rule:nonzero;stroke:none;stroke-width:0.133333"
     id="path378" />
  <path
     d="m 19.157504,37.356431 -1.085698,-0.63091 2.251014,-3.898865 1.085456,0.630912 -2.250772,3.898863"
     style="fill:#cccccc;fill-opacity:1;fill-rule:nonzero;stroke:none;stroke-width:0.133333"
     id="path380" />
  <path
     d="m 20.32282,32.826656 2.969625,-1.714195 1.085698,0.630306 -2.969867,1.714801 -1.085456,-0.630912"
     style="fill:#a0a0a0;fill-opacity:1;fill-rule:nonzero;stroke:none;stroke-width:0.133333"
     id="path382" />
  <path
     d="m 17.875536,38.096511 9.49e-4,0.31305 -1.085697,-0.63152 -7.24e-4,-0.31244 1.085456,0.63091"
     style="fill:#cccccc;fill-opacity:1;fill-rule:nonzero;stroke:none;stroke-width:0.133333"
     id="path384" />
  <path
     d="m 17.875536,38.096511 -1.085456,-0.63091 1.281726,-0.74008 1.085698,0.63091 -1.281968,0.74008"
     style="fill:#a0a0a0;fill-opacity:1;fill-rule:nonzero;stroke:none;stroke-width:0.133333"
     id="path386" />
  <path
     d="m 19.157504,37.356431 2.250772,-3.898863 2.969867,-1.714801 9.5e-4,0.313043 -2.858221,1.650261 -2.251496,3.89886 -1.39289,0.80463 -9.5e-4,-0.31305 1.281968,-0.74008"
     style="fill:#676767;fill-opacity:1;fill-rule:nonzero;stroke:none;stroke-width:0.133333"
     id="path388" />
  <path
     d="m 21.354353,38.637551 -1.085456,-0.63091 2.251255,-3.899463 1.085456,0.631514 -2.251255,3.898859"
     style="fill:#cccccc;fill-opacity:1;fill-rule:nonzero;stroke:none;stroke-width:0.133333"
     id="path390" />
  <path
     d="m 22.520152,34.107178 2.969624,-1.714195 1.085457,0.630908 -2.969625,1.714801 -1.085456,-0.631514"
     style="fill:#a0a0a0;fill-opacity:1;fill-rule:nonzero;stroke:none;stroke-width:0.133333"
     id="path392" />
  <path
     d="m 20.072868,39.377031 9.05e-4,0.31244 -1.085698,-0.6303 -9.05e-4,-0.31244 1.085698,0.6303"
     style="fill:#cccccc;fill-opacity:1;fill-rule:nonzero;stroke:none;stroke-width:0.133333"
     id="path394" />
  <path
     d="m 20.072868,39.377031 -1.085698,-0.6303 1.281727,-0.74009 1.085456,0.63091 -1.281485,0.73948"
     style="fill:#a0a0a0;fill-opacity:1;fill-rule:nonzero;stroke:none;stroke-width:0.133333"
     id="path396" />
  <path
     d="m 21.354353,38.637551 2.251255,-3.898859 2.969625,-1.714801 9.5e-4,0.313043 -2.858461,1.649659 -2.250773,3.899468 -1.393191,0.80341 -9.05e-4,-0.31244 1.281486,-0.73948"
     style="fill:#676767;fill-opacity:1;fill-rule:nonzero;stroke:none;stroke-width:0.133333"
     id="path398" />
  <path
     d="m 23.559647,39.914451 -1.085939,-0.63151 2.251255,-3.89826 1.085698,0.63031 -2.251014,3.89946"
     style="fill:#cccccc;fill-opacity:1;fill-rule:nonzero;stroke:none;stroke-width:0.133333"
     id="path400" />
  <path
     d="m 24.724963,35.384681 2.969927,-1.715402 1.085456,0.631515 -2.969685,1.714197 -1.085698,-0.63031"
     style="fill:#a0a0a0;fill-opacity:1;fill-rule:nonzero;stroke:none;stroke-width:0.133333"
     id="path402" />
  <path
     d="m 22.277921,40.654541 7.23e-4,0.31244 -1.085456,-0.63091 -9.5e-4,-0.31305 1.085697,0.63152"
     style="fill:#cccccc;fill-opacity:1;fill-rule:nonzero;stroke:none;stroke-width:0.133333"
     id="path404" />
  <path
     d="m 22.277921,40.654541 -1.085698,-0.63152 1.281485,-0.74008 1.085939,0.63151 -1.281726,0.74009"
     style="fill:#a0a0a0;fill-opacity:1;fill-rule:nonzero;stroke:none;stroke-width:0.133333"
     id="path406" />
  <path
     d="m 23.559647,39.914451 2.251014,-3.89946 2.969685,-1.714197 7.24e-4,0.312441 -2.85822,1.650256 -2.251014,3.89886 -1.393192,0.80463 -7.23e-4,-0.31244 1.281726,-0.74009"
     style="fill:#676767;fill-opacity:1;fill-rule:nonzero;stroke:none;stroke-width:0.133333"
     id="path408" />
  <path
     d="m 25.742141,41.173261 -1.085698,-0.63031 2.251255,-3.89946 1.085457,0.63091 -2.251014,3.89886"
     style="fill:#cccccc;fill-opacity:1;fill-rule:nonzero;stroke:none;stroke-width:0.133333"
     id="path410" />
  <path
     d="m 26.907698,36.643491 2.969625,-1.714802 1.085457,0.630912 -2.969625,1.7148 -1.085457,-0.63091"
     style="fill:#a0a0a0;fill-opacity:1;fill-rule:nonzero;stroke:none;stroke-width:0.133333"
     id="path412" />
  <path
     d="m 24.460414,41.913341 9.05e-4,0.31305 -1.085698,-0.63152 -6.78e-4,-0.31244 1.085457,0.63091"
     style="fill:#cccccc;fill-opacity:1;fill-rule:nonzero;stroke:none;stroke-width:0.133333"
     id="path414" />
  <path
     d="m 24.460414,41.913341 -1.085456,-0.63091 1.281485,-0.73948 1.085698,0.63031 -1.281727,0.74008"
     style="fill:#a0a0a0;fill-opacity:1;fill-rule:nonzero;stroke:none;stroke-width:0.133333"
     id="path416" />
  <path
     d="m 25.742141,41.173261 2.251014,-3.89886 2.969625,-1.7148 0.0012,0.31244 -2.858703,1.65026 -2.251013,3.89886 -1.392951,0.80523 -9.05e-4,-0.31305 1.281727,-0.74008"
     style="fill:#676767;fill-opacity:1;fill-rule:nonzero;stroke:none;stroke-width:0.133333"
     id="path418" />
  <path
     d="m 27.942972,42.436291 -1.085457,-0.63031 2.251254,-3.89946 1.085216,0.6303 -2.251013,3.89947"
     style="fill:#cccccc;fill-opacity:1;fill-rule:nonzero;stroke:none;stroke-width:0.133333"
     id="path420" />
  <path
     d="m 29.108769,37.906521 2.969686,-1.7148 1.085458,0.63091 -2.969928,1.71419 -1.085216,-0.6303"
     style="fill:#a0a0a0;fill-opacity:1;fill-rule:nonzero;stroke:none;stroke-width:0.133333"
     id="path422" />
  <path
     d="m 26.661245,43.176371 0.0012,0.31244 -1.085939,-0.63031 -7.24e-4,-0.31243 1.085456,0.6303"
     style="fill:#cccccc;fill-opacity:1;fill-rule:nonzero;stroke:none;stroke-width:0.133333"
     id="path424" />
  <path
     d="m 26.661245,43.176371 -1.085457,-0.6303 1.281727,-0.74009 1.085457,0.63031 -1.281727,0.74008"
     style="fill:#a0a0a0;fill-opacity:1;fill-rule:nonzero;stroke:none;stroke-width:0.133333"
     id="path426" />
  <path
     d="m 27.942972,42.436291 2.251013,-3.89947 2.969928,-1.71419 9.04e-4,0.31244 -2.858402,1.65026 -2.251074,3.89946 -1.39289,0.80402 -0.0012,-0.31244 1.281727,-0.74008"
     style="fill:#676767;fill-opacity:1;fill-rule:nonzero;stroke:none;stroke-width:0.133333"
     id="path428" />
  <path
     d="m 30.140303,43.713791 -1.085457,-0.6303 2.251014,-3.89947 1.085456,0.63152 -2.251013,3.89825"
     style="fill:#cccccc;fill-opacity:1;fill-rule:nonzero;stroke:none;stroke-width:0.133333"
     id="path430" />
  <path
     d="m 31.30586,39.184021 2.969626,-1.7142 1.085698,0.63031 -2.969868,1.71541 -1.085456,-0.63152"
     style="fill:#a0a0a0;fill-opacity:1;fill-rule:nonzero;stroke:none;stroke-width:0.133333"
     id="path432" />
  <path
     d="m 28.858577,44.453881 9.04e-4,0.31304 -1.085697,-0.63091 -6.79e-4,-0.31244 1.085457,0.63031"
     style="fill:#cccccc;fill-opacity:1;fill-rule:nonzero;stroke:none;stroke-width:0.133333"
     id="path434" />
  <path
     d="m 28.858577,44.453881 -1.085457,-0.63031 1.281726,-0.74008 1.085457,0.6303 -1.281726,0.74009"
     style="fill:#a0a0a0;fill-opacity:1;fill-rule:nonzero;stroke:none;stroke-width:0.133333"
     id="path436" />
  <path
     d="m 30.140303,43.713791 2.251013,-3.89825 2.969868,-1.71541 9.05e-4,0.31244 -2.858462,1.65087 -2.251256,3.89886 -1.39295,0.80462 -9.05e-4,-0.31304 1.281727,-0.74009"
     style="fill:#676767;fill-opacity:1;fill-rule:nonzero;stroke:none;stroke-width:0.133333"
     id="path438" />
</svg>
