<?xml version="1.0" encoding="UTF-8" standalone="no"?>
<svg
   xmlns:dc="http://purl.org/dc/elements/1.1/"
   xmlns:cc="http://creativecommons.org/ns#"
   xmlns:rdf="http://www.w3.org/1999/02/22-rdf-syntax-ns#"
   xmlns:svg="http://www.w3.org/2000/svg"
   xmlns="http://www.w3.org/2000/svg"
   xmlns:sodipodi="http://sodipodi.sourceforge.net/DTD/sodipodi-0.dtd"
   xmlns:inkscape="http://www.inkscape.org/namespaces/inkscape"
   width="346"
   height="285"
   version="1.1"
   id="svg2251"
   sodipodi:docname="leaf-yellow.svg"
   inkscape:version="1.0.1 (3bc2e813f5, 2020-09-07)">
  <metadata
     id="metadata2257">
    <rdf:RDF>
      <cc:Work
         rdf:about="">
        <dc:format>image/svg+xml</dc:format>
        <dc:type
           rdf:resource="http://purl.org/dc/dcmitype/StillImage" />
        <dc:title></dc:title>
      </cc:Work>
    </rdf:RDF>
  </metadata>
  <defs
     id="defs2255" />
  <sodipodi:namedview
     pagecolor="#ffffff"
     bordercolor="#666666"
     borderopacity="1"
     objecttolerance="10"
     gridtolerance="10"
     guidetolerance="10"
     inkscape:pageopacity="0"
     inkscape:pageshadow="2"
     inkscape:window-width="1441"
     inkscape:window-height="895"
     id="namedview2253"
     showgrid="false"
     inkscape:zoom="2.1895434"
     inkscape:cx="173"
     inkscape:cy="142.5"
     inkscape:window-x="0"
     inkscape:window-y="0"
     inkscape:window-maximized="0"
     inkscape:current-layer="svg2251" />
  <path
     d="m 302.4516,66.18766 0.41196,0.682551 0.55332,0.92491 0.30292,0.718901 0.38369,0.92488 0.18993,0.759309 0.22627,0.912764 0.0606,0.763337 c 0.12934,1.425715 -0.0121,2.859487 -0.48869,4.269056 -1.11877,-3.287622 -3.86515,-6.421728 -8.25135,-8.970246 -11.80949,-6.86195 -31.05045,-6.865978 -42.96499,0.01212 -4.47098,2.584867 -7.26989,5.775526 -8.38863,9.119672 -0.38773,-1.130861 -0.58159,-2.281925 -0.58159,-3.428961 l 0.0688,-0.888531 0.0766,-0.803746 0.21809,-0.900647 0.19781,-0.779483 0.37963,-0.904706 0.31909,-0.747192 0.54927,-0.904677 0.43619,-0.714871 0.75525,-0.937027 0.50063,-0.625998 0.98546,-0.965288 0.55333,-0.537154 c 0.38773,-0.34332 0.82795,-0.666406 1.26414,-0.997609 l 0.5493,-0.432134 c 0.65429,-0.464485 1.35299,-0.908735 2.09615,-1.340899 11.91452,-6.874067 31.15547,-6.874067 42.965,-0.01212 0.73504,0.428105 1.42974,0.872386 2.07594,1.332812 l 0.58968,0.468513 c 0.41196,0.310969 0.83604,0.625998 1.20356,0.949113 l 0.61391,0.605824 0.90471,0.888531 0.53715,0.670465 0.70678,0.888531"
     style="fill:#a0a0a0;fill-opacity:1;fill-rule:nonzero;stroke:none;stroke-width:0.133333"
     id="path1024" />
  <path
     d="m 80.873706,194.11736 0.460426,0.75528 0.504832,0.85218 0.327145,0.77143 0.363494,0.87238 0.197801,0.77546 0.214159,0.89256 0.06876,0.78354 c 0.121164,1.42165 -0.0212,2.8514 -0.488688,4.25691 -1.122803,-3.28759 -3.869182,-6.42576 -8.259403,-8.97831 -11.809498,-6.86195 -31.05045,-6.86195 -42.936706,0 -4.479065,2.5889 -7.281998,5.77956 -8.400772,9.11565 -0.387727,-1.13089 -0.58159,-2.2779 -0.58159,-3.42493 l 0.0727,-0.87642 0.06876,-0.81586 0.214159,-0.87239 0.20598,-0.80371 0.371582,-0.87642 0.331173,-0.77951 0.529096,-0.87239 0.452338,-0.74313 0.722959,-0.90065 0.533125,-0.66237 0.973346,-0.94912 0.565446,-0.55735 c 0.391755,-0.33926 0.831977,-0.66641 1.264141,-0.99355 l 0.557358,-0.4362 c 0.654289,-0.46042 1.353015,-0.90873 2.100177,-1.3409 11.890315,-6.86194 31.127209,-6.86194 42.940766,0 0.735076,0.42811 1.429743,0.87239 2.071916,1.33282 l 0.504863,0.39984 c 0.444281,0.33523 0.89259,0.67043 1.288374,1.02181 l 0.613912,0.59777 0.908735,0.89662 0.565445,0.71081 0.674463,0.84815"
     style="fill:#a0a0a0;fill-opacity:1;fill-rule:nonzero;stroke:none;stroke-width:0.133333"
     id="path1026" />
  <path
     d="m -2.8026279,198.09965 c 0.02726,0.68255 0.08482,1.36513 0.177809,2.04768 0.0524,0.39176 0.10087,0.77949 0.173569,1.16721 0.14146,0.74317 0.339261,1.47821 0.561386,2.21732 l 0.274741,0.93702 c 0.359465,1.04202 0.79159897,2.07192 1.31260697,3.09373 l 0.238392,0.39985 c 0.472542,0.88047 0.997579,1.75286 1.58725703,2.61312 l 0.739105,0.9895 c 0.492746,0.65834 1.005667,1.30857 1.571112,1.95075 l 0.981434,1.06625 c 0.581591,0.60582 1.187414,1.20359 1.829587,1.78921 0.37561,0.34329 0.743133,0.68255 1.138948,1.01778 0.7189,0.61391 1.494354,1.21165 2.2859539,1.80535 0.37561,0.27868 0.726988,0.56139 1.114715,0.83604 1.207618,0.84815 2.479847,1.6761 3.844979,2.46773 19.705407,11.45409 50.279287,13.75622 74.49202,5.62204 L 199.21946,191.22558 c 9.89916,-2.19308 19.35,-5.32721 27.90826,-9.37814 l 1.61958,-0.56947 c 1.80938,-1.13492 3.75207,-2.16482 5.66648,-3.26742 1.91034,-1.10663 3.72378,-2.24155 5.42412,-3.40876 l 1.22376,-0.79968 c 7.05178,-4.9597 12.46382,-10.40805 16.31282,-16.14723 l 64.01534,-63.405479 c 0.8118,-0.803715 1.54688,-1.619578 2.23752,-2.443498 l 0.62196,-0.78757 c 0.4564,-0.577532 0.88857,-1.159122 1.28435,-1.748801 l 0.58968,-0.900647 c 0.36349,-0.58159 0.69467,-1.16724 1.00567,-1.756888 l 0.44022,-0.844124 c 0.36349,-0.75525 0.67852,-1.51053 0.95317,-2.269808 l 0.13328,-0.335233 c 0.29897,-0.872386 0.53313,-1.7488 0.7189,-2.625245 l 0.12934,-0.783511 c 0.10905,-0.626028 0.19387,-1.252056 0.24233,-1.878053 l 0.0524,-0.937027 0.0403,-0.791599 0.0242,6.789251 c 0.0151,6.203632 -2.7545,12.45573 -8.44924,18.102002 l -64.02327,63.40145 c -3.84901,5.74321 -9.25698,11.19562 -16.3128,16.15126 l -1.22376,0.79968 c -1.70036,1.16721 -3.50975,2.30213 -5.42415,3.40876 -1.9144,1.10665 -3.85706,2.13249 -5.66242,3.27144 l -1.61958,0.56545 c -8.55825,4.05499 -18.0091,7.18506 -27.90825,9.38217 L 89.54522,234.90545 c -24.220821,8.13821 -54.790642,5.83608 -74.500108,-5.61801 -11.7408579,-6.82157 -17.8556459,-15.8766 -17.8839069,-25.04877 l -0.01515,-6.78928 0.0524,0.65026"
     style="fill:#a0a0a0;fill-opacity:1;fill-rule:nonzero;stroke:none;stroke-width:0.133333"
     id="path1028" />
  <path
     d="m 301.74481,65.299129 0.70679,0.888531 0.41196,0.682551 0.55332,0.92491 0.30292,0.718901 0.38369,0.92488 0.18993,0.759309 0.22627,0.912764 0.0606,0.763337 c 0.12934,1.425715 -0.0121,2.859487 -0.48869,4.269056 -1.11472,3.348174 -3.92171,6.546922 -8.40886,9.139846 -11.89028,6.861951 -31.13124,6.861951 -42.965,-0.01515 -4.3821,-2.544458 -7.12042,-5.678595 -8.23111,-8.962158 -0.38773,-1.13086 -0.58159,-2.281925 -0.58159,-3.428961 l 0.0688,-0.888531 0.0766,-0.803715 0.21809,-0.900677 0.19781,-0.779483 0.37963,-0.904706 0.31909,-0.747163 0.54927,-0.904706 0.43619,-0.714872 0.75525,-0.936996 0.50063,-0.626119 0.98546,-0.965289 0.55333,-0.537153 c 0.38773,-0.34332 0.82795,-0.666406 1.26414,-0.99761 l 0.5493,-0.432133 c 0.65429,-0.460426 1.35299,-0.908736 2.09615,-1.3409 11.91452,-6.874066 31.15547,-6.874066 42.965,-0.01212 0.73504,0.428105 1.42974,0.872386 2.07594,1.332811 l 0.58968,0.468514 c 0.41196,0.310969 0.83604,0.625997 1.20356,0.949113 l 0.61391,0.605824 0.90471,0.888531 z M 80.199212,193.26921 l 0.674494,0.84815 0.460426,0.75528 0.504832,0.85218 0.327145,0.77143 0.363494,0.87238 0.197801,0.77546 0.214159,0.89256 0.06876,0.78354 c 0.121164,1.42165 -0.0212,2.8514 -0.488688,4.25691 -1.118744,3.34414 -3.913619,6.53483 -8.392684,9.11967 -11.910489,6.87813 -31.127208,6.86195 -42.960939,-0.0152 -4.382133,-2.54445 -7.124484,-5.67859 -8.243258,-8.96618 -0.387727,-1.13086 -0.58159,-2.2779 -0.58159,-3.42493 l 0.0727,-0.87642 0.06876,-0.81583 0.214159,-0.87239 0.20598,-0.80374 0.371582,-0.87642 0.331173,-0.77948 0.529096,-0.87239 0.452338,-0.74316 0.722959,-0.90065 0.533125,-0.66237 0.973346,-0.94912 0.565446,-0.55735 c 0.391755,-0.33927 0.831977,-0.66641 1.264141,-0.99355 l 0.557358,-0.4362 c 0.654289,-0.46042 1.353015,-0.90873 2.100177,-1.3409 11.890315,-6.86194 31.127209,-6.86194 42.940766,0 0.735076,0.42814 1.429743,0.87239 2.071916,1.33281 l 0.504863,0.39985 c 0.444281,0.33523 0.89259,0.67046 1.288374,1.02184 l 0.613912,0.59774 0.908735,0.89662 z M 329.79847,76.938996 C 330.1337,67.500267 324.03103,58.110004 311.93476,51.078423 292.25356,39.640476 261.67968,37.338347 237.46694,45.472527 L 127.7927,82.351029 c -9.92339,2.209226 -19.35,5.327217 -27.932488,9.394292 l -1.647839,0.553329 c -1.756888,1.134919 -3.748048,2.164819 -5.66245,3.271446 -1.914402,1.102599 -3.667231,2.241547 -5.428178,3.404728 l -1.195472,0.815832 C 78.898721,104.73418 73.462456,110.1987 69.641739,115.92576 l -64.0476539,63.4176 c -5.90072003,5.84822 -8.614809,12.33859 -8.396713,18.75629 0.02726,0.68255 0.08482,1.36513 0.177809,2.04768 0.0524,0.39176 0.10087,0.77949 0.173569,1.16721 0.14146,0.74317 0.339261,1.47821 0.561386,2.21732 l 0.274741,0.93702 c 0.359465,1.04202 0.79159897,2.07192 1.31260697,3.09373 l 0.238392,0.39985 c 0.472542,0.88047 0.997579,1.75286 1.58725703,2.61312 l 0.739105,0.9895 c 0.492746,0.65834 1.005667,1.30857 1.571112,1.95075 l 0.981434,1.06625 c 0.581591,0.60582 1.187414,1.20359 1.829587,1.78921 0.37561,0.34329 0.743133,0.68255 1.138948,1.01778 0.7189,0.61391 1.494354,1.21165 2.2859539,1.80535 0.37561,0.27868 0.726988,0.56139 1.114715,0.83604 1.207618,0.84815 2.479847,1.6761 3.844979,2.46773 19.705407,11.45409 50.279287,13.75622 74.49202,5.62204 L 199.21946,191.22558 c 9.89916,-2.19308 19.35,-5.32721 27.90826,-9.37814 l 1.61958,-0.56947 c 1.80938,-1.13492 3.75207,-2.16482 5.66648,-3.26742 1.91034,-1.10663 3.72378,-2.24155 5.42412,-3.40876 l 1.22376,-0.79968 c 7.05178,-4.9597 12.46382,-10.40805 16.31282,-16.14723 l 64.01534,-63.405479 c 0.8118,-0.803715 1.54688,-1.619578 2.23752,-2.443498 l 0.62196,-0.78757 c 0.4564,-0.577532 0.88857,-1.159122 1.28435,-1.748801 l 0.58968,-0.900647 c 0.36349,-0.58159 0.69467,-1.16724 1.00567,-1.756888 l 0.44022,-0.844124 c 0.36349,-0.75525 0.67852,-1.51053 0.95317,-2.269808 l 0.13328,-0.335233 c 0.29897,-0.872386 0.53313,-1.7488 0.7189,-2.625245 l 0.12934,-0.783511 c 0.10905,-0.626028 0.19387,-1.252056 0.24233,-1.878053 l 0.0524,-0.937027"
     style="fill:#e0e0e0;fill-opacity:1;fill-rule:nonzero;stroke:none;stroke-width:0.133333"
     id="path1030" />
  <path
     d="m 63.781397,135.1021 c 0.07664,0.8643 0.07664,1.7286 0.222034,2.58484 0.161452,0.99355 0.468514,1.97499 0.718931,2.96451 0.214159,0.84006 0.355406,1.68419 0.634085,2.52425 0.327145,0.99758 0.807775,1.97499 1.231851,2.96451 0.347319,0.8118 0.621969,1.63166 1.0299,2.43541 0.504833,0.99355 1.159122,1.96287 1.752829,2.93621 0.48063,0.78354 0.880473,1.57514 1.421686,2.34657 0.682551,0.98546 1.526675,1.94266 2.310186,2.90795 0.597766,0.73505 1.114715,1.48627 1.769005,2.20923 0.89259,0.98952 1.950751,1.94266 2.944302,2.90392 0.694697,0.67044 1.308578,1.35299 2.047683,2.00728 1.159152,1.02184 2.479847,1.99518 3.764193,2.98065 0.726988,0.55735 1.369161,1.13895 2.140586,1.68825 2.116323,1.51049 4.386162,2.97256 6.805397,4.3821 38.893865,22.59721 102.137805,22.59721 141.278025,0 2.45561,-1.41763 4.75774,-2.89178 6.90638,-4.41443 0.70679,-0.49677 1.29647,-1.03392 1.97096,-1.54687 1.36916,-1.03796 2.77467,-2.06786 4.01055,-3.15029 0.76334,-0.67043 1.39742,-1.37319 2.10827,-2.05574 1.0016,-0.96126 2.0598,-1.90634 2.95236,-2.88778 0.67046,-0.7391 1.20761,-1.50647 1.81747,-2.25769 0.79163,-0.96123 1.63978,-1.9144 2.33042,-2.89986 0.5533,-0.78354 0.96123,-1.58726 1.44991,-2.37889 0.60583,-0.98143 1.26418,-1.94669 1.77307,-2.94024 0.42407,-0.82392 0.71081,-1.66805 1.07028,-2.50408 0.42407,-0.97741 0.9047,-1.94673 1.2399,-2.93622 0.28686,-0.85221 0.43217,-1.71248 0.65429,-2.56869 0.25051,-0.98549 0.56545,-1.96693 0.73105,-2.95642 0.14146,-0.86432 0.14934,-1.73671 0.22628,-2.60504 0.0888,-0.98549 0.23839,-1.97095 0.23839,-2.95642 l 0.0121,-0.14539 0.11723,5.61798 c 0.0403,14.90326 -9.79819,29.83075 -29.49148,41.20408 -39.14428,22.59721 -102.38822,22.59721 -141.278026,0 C 73.373824,167.32785 63.700822,152.63464 63.656416,137.92118 L 63.54343,132.3032 c 0.003,0.937 0.157514,1.86594 0.238391,2.7989"
     style="fill:#a0a0a0;fill-opacity:1;fill-rule:nonzero;stroke:none;stroke-width:0.133333"
     id="path1032" />
  <path
     d="m 263.09328,134.83554 c -0.0766,0.86833 -0.0848,1.74072 -0.22628,2.60504 -0.16569,0.98949 -0.48063,1.97093 -0.73105,2.95642 -0.22203,0.85621 -0.36752,1.71648 -0.65429,2.56869 -0.3352,0.98949 -0.81583,1.95881 -1.2399,2.93622 -0.35947,0.83603 -0.64621,1.68016 -1.07028,2.50408 -0.50889,0.99355 -1.16724,1.95881 -1.77307,2.94024 -0.48868,0.79163 -0.89661,1.59535 -1.44991,2.37889 -0.69064,0.98546 -1.53879,1.93863 -2.33042,2.89986 -0.60986,0.75122 -1.14701,1.51859 -1.81747,2.25769 -0.89256,0.98144 -1.95076,1.92652 -2.95236,2.88778 -0.71085,0.68255 -1.34493,1.38531 -2.10827,2.05574 -1.23588,1.08243 -2.64139,2.11233 -4.01055,3.15029 -0.67449,0.51295 -1.26417,1.0501 -1.97096,1.54687 -2.14864,1.52265 -4.45077,2.9968 -6.90638,4.41443 -39.14022,22.59721 -102.38416,22.59721 -141.278025,0 -2.419235,-1.40954 -4.689074,-2.87161 -6.805397,-4.3821 -0.771425,-0.5493 -1.413598,-1.1309 -2.140586,-1.68825 -1.284346,-0.98547 -2.605041,-1.95881 -3.764193,-2.98065 -0.739105,-0.65429 -1.352986,-1.33684 -2.047683,-2.00728 -0.993551,-0.96126 -2.051712,-1.9144 -2.944302,-2.90392 -0.65429,-0.72296 -1.171239,-1.47418 -1.769005,-2.20923 -0.783511,-0.96529 -1.627635,-1.92249 -2.310186,-2.90795 -0.541213,-0.77143 -0.941056,-1.56303 -1.421686,-2.34657 -0.593707,-0.97334 -1.247996,-1.94266 -1.752829,-2.93621 -0.407931,-0.80375 -0.682581,-1.62361 -1.0299,-2.43541 -0.424076,-0.98952 -0.904706,-1.96693 -1.231851,-2.96451 -0.278679,-0.84006 -0.420048,-1.68419 -0.634085,-2.52425 -0.250508,-0.98952 -0.557358,-1.97096 -0.718931,-2.96451 -0.145397,-0.85624 -0.145397,-1.72054 -0.222034,-2.58484 -1.357045,-15.82007 8.324014,-31.91477 29.257243,-43.998952 39.14425,-22.597214 102.38819,-22.597214 141.27396,0 19.3783,11.264282 29.04318,26.014062 29.01895,40.775972 0,0.98547 -0.14934,1.97093 -0.2384,2.95642"
     style="fill:#cccccc;fill-opacity:1;fill-rule:nonzero;stroke:none;stroke-width:0.133333"
     id="path1034" />
  <path
     d="m 75.796905,127.12541 c 0.06876,0.75931 0.0727,1.51862 0.197802,2.27387 0.141459,0.87641 0.41196,1.73668 0.630056,2.60504 0.189926,0.74313 0.315028,1.48629 0.557358,2.22134 0.290795,0.87644 0.714871,1.74074 1.086453,2.6091 0.302912,0.71487 0.541182,1.43377 0.904676,2.14461 0.440252,0.87239 1.021843,1.72054 1.542851,2.58081 0.424076,0.68658 0.775454,1.38531 1.247996,2.0598 0.605823,0.86833 1.344928,1.70842 2.035567,2.56061 0.521008,0.6462 0.977375,1.30455 1.550908,1.94266 0.791599,0.86836 1.716479,1.70439 2.596953,2.55255 0.605823,0.58967 1.142977,1.19144 1.797266,1.76497 1.017783,0.90065 2.180964,1.75689 3.307796,2.62119 0.638144,0.49274 1.207618,1.00566 1.882112,1.48629 1.865936,1.32876 3.857065,2.6131 5.989561,3.85304 34.20074,19.87504 89.82744,19.87504 124.25033,0 2.15673,-1.24799 4.18018,-2.54446 6.07035,-3.87727 0.62603,-0.44428 1.14301,-0.91279 1.73671,-1.36513 1.20356,-0.91276 2.43944,-1.8215 3.52589,-2.77064 0.67447,-0.58965 1.2278,-1.20759 1.85785,-1.80939 0.88048,-0.84412 1.80536,-1.6761 2.59293,-2.54043 0.5937,-0.65023 1.06222,-1.32069 1.59937,-1.98304 0.69873,-0.84815 1.44186,-1.68419 2.04768,-2.55254 0.48466,-0.68661 0.84816,-1.3934 1.27626,-2.09212 0.53313,-0.86027 1.11472,-1.71245 1.56303,-2.58484 0.37158,-0.72296 0.622,-1.46609 0.94105,-2.20117 0.37158,-0.86027 0.7916,-1.71245 1.08646,-2.58081 0.2505,-0.75122 0.37964,-1.5105 0.5735,-2.26172 0.22627,-0.86433 0.5008,-1.72862 0.6462,-2.60101 0.12934,-0.75931 0.13328,-1.52265 0.20204,-2.29001 0.0766,-0.86836 0.20992,-1.73266 0.20992,-2.60101 l 0.009,-0.12511 0.10087,4.93949 c 0.0363,13.10599 -8.61481,26.23619 -25.9373,36.23633 -34.42695,19.87504 -90.04959,19.87504 -124.25036,0 -16.991226,-9.87492 -25.496987,-22.79513 -25.533336,-35.73552 l -0.10087,-4.93946 c 0.003,0.81986 0.137219,1.63975 0.20598,2.45964"
     style="fill:#a0a0a0;fill-opacity:1;fill-rule:nonzero;stroke:none;stroke-width:0.133333"
     id="path1036" />
  <path
     d="m 251.09391,126.89117 c -0.0688,0.76736 -0.0727,1.5307 -0.20204,2.29001 -0.1454,0.87239 -0.42002,1.73668 -0.6462,2.60101 -0.19386,0.75122 -0.32312,1.5105 -0.5735,2.26172 -0.29474,0.86836 -0.71488,1.72054 -1.08646,2.58081 -0.31905,0.73508 -0.56947,1.47418 -0.94105,2.20117 -0.44831,0.87239 -1.0299,1.72457 -1.56303,2.58484 -0.4281,0.69872 -0.7916,1.40551 -1.27626,2.09212 -0.60582,0.86835 -1.34895,1.70439 -2.04768,2.55254 -0.53715,0.66235 -1.00567,1.33281 -1.59937,1.98304 -0.78757,0.86433 -1.71245,1.69631 -2.59293,2.54043 -0.63005,0.6018 -1.18338,1.21974 -1.85785,1.80939 -1.08645,0.94914 -2.32233,1.85788 -3.52589,2.77064 -0.5937,0.45234 -1.11068,0.92085 -1.73671,1.36513 -1.89017,1.33281 -3.91362,2.62928 -6.07035,3.87727 -34.42289,19.87504 -90.04959,19.87504 -124.25033,0 -2.132496,-1.23994 -4.123625,-2.52428 -5.989561,-3.85304 -0.674494,-0.48063 -1.243968,-0.99355 -1.882112,-1.48629 -1.126832,-0.8643 -2.290013,-1.72457 -3.307796,-2.62119 -0.654289,-0.57353 -1.191443,-1.1753 -1.797266,-1.76497 -0.884502,-0.84816 -1.805354,-1.68419 -2.596953,-2.55255 -0.573533,-0.63811 -1.0299,-1.29646 -1.550908,-1.94266 -0.690639,-0.85219 -1.429744,-1.69228 -2.035567,-2.56061 -0.472542,-0.67449 -0.82392,-1.37322 -1.247996,-2.0598 -0.521008,-0.86027 -1.102599,-1.70842 -1.542851,-2.58081 -0.363494,-0.71084 -0.601764,-1.42974 -0.904676,-2.14461 -0.371582,-0.86836 -0.795658,-1.73266 -1.086453,-2.6091 -0.24233,-0.73505 -0.367523,-1.47821 -0.557358,-2.22134 -0.218096,-0.8643 -0.488687,-1.72863 -0.630056,-2.60504 -0.125103,-0.75525 -0.129344,-1.51456 -0.197802,-2.27387 -1.191473,-13.91374 7.326405,-28.065771 25.735385,-38.695943 34.41882,-19.875067 90.04553,-19.875067 124.24629,0 17.04384,9.907213 25.54152,22.879923 25.52537,35.860693 0,0.86835 -0.13328,1.73265 -0.20992,2.60101"
     style="fill:#676767;fill-opacity:1;fill-rule:nonzero;stroke:none;stroke-width:0.133333"
     id="path1038" />
  <path
     d="m 75.796905,118.67217 c 0.06876,0.75928 0.0727,1.52262 0.197802,2.2779 0.141459,0.87239 0.41196,1.73668 0.630056,2.60504 0.189926,0.7391 0.315028,1.48224 0.557358,2.21731 0.290795,0.87642 0.714871,1.74072 1.086453,2.60907 0.302912,0.71488 0.541182,1.43783 0.904676,2.14462 0.440252,0.87238 1.021843,1.72457 1.542851,2.58081 0.424076,0.69064 0.775454,1.3853 1.247996,2.06382 0.605823,0.86836 1.344928,1.70843 2.035567,2.55658 0.521008,0.64623 0.977375,1.30858 1.550908,1.94269 0.791599,0.87239 1.716479,1.70843 2.596953,2.55658 0.605823,0.58562 1.142977,1.19144 1.797266,1.76494 1.017783,0.89662 2.180964,1.75286 3.307796,2.62122 0.638144,0.48869 1.207618,1.00161 1.882112,1.48627 1.865936,1.32475 3.857065,2.61313 5.989561,3.84901 34.20074,19.87503 89.82744,19.87909 124.25033,0 2.15673,-1.24397 4.18018,-2.54043 6.07035,-3.87727 0.62603,-0.44023 1.14301,-0.91277 1.73671,-1.36108 1.20356,-0.91279 2.43944,-1.82153 3.52589,-2.77064 0.67447,-0.58968 1.2278,-1.21165 1.85785,-1.80938 0.88048,-0.84413 1.80536,-1.67613 2.59293,-2.54043 0.5937,-0.65026 1.06222,-1.32473 1.59937,-1.98308 0.69873,-0.84815 1.44186,-1.68821 2.04768,-2.55251 0.48466,-0.68661 0.84816,-1.39745 1.27626,-2.09212 0.53313,-0.8643 1.11472,-1.71245 1.56303,-2.58484 0.37158,-0.72699 0.622,-1.47015 0.94105,-2.2052 0.37158,-0.86026 0.7916,-1.71248 1.08646,-2.5808 0.2505,-0.7472 0.37964,-1.5065 0.5735,-2.25773 0.22627,-0.86832 0.5008,-1.72859 0.6462,-2.60098 0.12934,-0.76333 0.13328,-1.52667 0.20204,-2.29407 0.0766,-0.8643 0.20992,-1.72859 0.20992,-2.59695 l 0.009,-0.12935 0.10087,4.94352 c 0.0363,13.10599 -8.61481,26.23216 -25.9373,36.23633 -34.42686,19.87504 -90.0495,19.87504 -124.25027,-0.003 -16.991316,-9.87089 -25.497077,-22.79107 -25.533426,-35.73146 l -0.10087,-4.93949 c 0.003,0.81989 0.137219,1.63975 0.20598,2.45561"
     style="fill:#a0a0a0;fill-opacity:1;fill-rule:nonzero;stroke:none;stroke-width:0.133333"
     id="path1040" />
  <path
     d="m 251.09391,118.4379 c -0.0688,0.7674 -0.0727,1.53074 -0.20204,2.29407 -0.1454,0.87239 -0.42002,1.73266 -0.6462,2.60098 -0.19386,0.75123 -0.32312,1.51053 -0.5735,2.25773 -0.29474,0.86832 -0.71488,1.72054 -1.08646,2.5808 -0.31905,0.73505 -0.56947,1.47821 -0.94105,2.2052 -0.44831,0.87239 -1.0299,1.72054 -1.56303,2.58484 -0.4281,0.69467 -0.7916,1.40551 -1.27626,2.09212 -0.60582,0.8643 -1.34895,1.70436 -2.04768,2.55251 -0.53715,0.65835 -1.00567,1.33282 -1.59937,1.98308 -0.78757,0.8643 -1.71245,1.6963 -2.59293,2.54043 -0.63005,0.59773 -1.18338,1.2197 -1.85785,1.80938 -1.08645,0.94911 -2.32233,1.85785 -3.52589,2.77064 -0.5937,0.44831 -1.11068,0.92085 -1.73671,1.36108 -1.89017,1.33684 -3.91362,2.6333 -6.07035,3.87727 -34.42289,19.87909 -90.04959,19.87503 -124.25033,0 -2.132496,-1.23588 -4.123625,-2.52426 -5.989561,-3.84901 -0.674494,-0.48466 -1.243968,-0.99758 -1.882112,-1.48627 -1.126832,-0.86836 -2.290013,-1.7246 -3.307796,-2.62122 -0.654289,-0.5735 -1.191443,-1.17932 -1.797266,-1.76494 -0.884502,-0.84815 -1.805354,-1.68419 -2.596953,-2.55658 -0.573533,-0.63411 -1.0299,-1.29646 -1.550908,-1.94269 -0.690639,-0.84815 -1.429744,-1.68822 -2.035567,-2.55658 -0.472542,-0.67852 -0.82392,-1.37318 -1.247996,-2.06382 -0.521008,-0.85624 -1.102599,-1.70843 -1.542851,-2.58081 -0.363494,-0.70679 -0.601764,-1.42974 -0.904676,-2.14462 -0.371582,-0.86835 -0.795658,-1.73265 -1.086453,-2.60907 -0.24233,-0.73507 -0.367523,-1.47821 -0.557358,-2.21731 -0.218096,-0.86836 -0.488687,-1.73265 -0.630056,-2.60504 -0.125103,-0.75528 -0.129344,-1.51862 -0.197802,-2.2779 -1.191473,-13.9097 7.326405,-28.065797 25.735385,-38.69194 34.41882,-19.879066 90.04553,-19.879066 124.24629,0 17.04384,9.903214 25.54152,22.87589 25.52537,35.86072 0,0.86836 -0.13328,1.73265 -0.20992,2.59695"
     style="fill:#676767;fill-opacity:1;fill-rule:nonzero;stroke:none;stroke-width:0.133333"
     id="path1042" />
  <path
     d="m 80.574823,83.142628 c 0.06058,0.718931 0.06452,1.437831 0.181747,2.152703 0.137219,0.82392 0.391755,1.643811 0.601794,2.463672 0.17781,0.698726 0.294734,1.401481 0.525037,2.096149 0.274741,0.832007 0.674494,1.647839 1.025871,2.467731 0.290796,0.674493 0.51695,1.357044 0.856211,2.027479 0.420047,0.82392 0.965289,1.627666 1.462064,2.443498 0.399843,0.646201 0.726988,1.308578 1.175297,1.950751 0.573503,0.815832 1.272229,1.611489 1.92249,2.415209 0.500804,0.61391 0.928909,1.23588 1.470122,1.83767 0.747192,0.82392 1.623606,1.61552 2.455614,2.41521 0.573503,0.55333 1.078366,1.12683 1.700334,1.66804 0.96123,0.84815 2.063829,1.65996 3.126049,2.47579 0.605824,0.46851 1.142977,0.95317 1.781121,1.40551 1.760916,1.25608 3.647056,2.47582 5.662416,3.64706 32.34292,18.79264 84.93242,18.79264 117.48128,0 2.04366,-1.17933 3.95806,-2.40712 5.74321,-3.67129 0.58968,-0.41599 1.07836,-0.86027 1.63978,-1.28435 1.14298,-0.86833 2.30616,-1.72457 3.33203,-2.62118 0.63811,-0.55736 1.16318,-1.14298 1.75689,-1.71246 0.83197,-0.79565 1.71245,-1.58322 2.45558,-2.40312 0.56142,-0.61388 1.00567,-1.24799 1.51456,-1.86996 0.65429,-0.80372 1.3611,-1.599374 1.93461,-2.415206 0.46042,-0.65026 0.79968,-1.320695 1.20761,-1.979043 0.50081,-0.815832 1.05008,-1.619548 1.47415,-2.443468 0.35544,-0.68661 0.59371,-1.389365 0.89259,-2.084032 0.34735,-0.811804 0.75123,-1.619579 1.02588,-2.43947 0.23839,-0.710813 0.35943,-1.425684 0.54118,-2.136527 0.21416,-0.819891 0.4766,-1.635723 0.61391,-2.459643 0.11723,-0.718901 0.1251,-1.445889 0.18568,-2.164819 0.0766,-0.819861 0.1978,-1.639752 0.1978,-2.459644 l 0.0121,-0.121164 0.0969,33.631286 c 0.0324,12.39112 -8.14629,24.80241 -24.52776,34.26135 -32.54889,18.79264 -85.14242,18.79264 -117.48128,0 C 88.551306,138.89859 80.51,126.68116 80.47365,114.44755 L 80.38066,80.820325 c 0,0.775454 0.129344,1.550908 0.193864,2.322303"
     style="fill:#a0a0a0;fill-opacity:1;fill-rule:nonzero;stroke:none;stroke-width:0.133333"
     id="path1044" />
  <path
     d="m 246.32002,82.924532 c -0.0606,0.71893 -0.0688,1.445918 -0.18568,2.164819 -0.13722,0.82392 -0.39984,1.639752 -0.61388,2.459643 -0.17781,0.710843 -0.30291,1.425714 -0.54121,2.136527 -0.27474,0.819891 -0.67853,1.627666 -1.02588,2.43947 -0.29897,0.694667 -0.53715,1.397422 -0.89255,2.084032 -0.42408,0.82392 -0.97338,1.627636 -1.47419,2.443468 -0.40793,0.658348 -0.74719,1.328783 -1.20761,1.979043 -0.57351,0.815832 -1.28029,1.611486 -1.93458,2.415206 -0.50889,0.62197 -0.95317,1.25608 -1.51456,1.86996 -0.74316,0.8199 -1.6236,1.60747 -2.45561,2.40312 -0.59371,0.56948 -1.11875,1.1551 -1.75689,1.71246 -1.02587,0.89661 -2.18905,1.75285 -3.33203,2.62118 -0.56139,0.42408 -1.0501,0.86836 -1.63975,1.28435 -1.78518,1.26417 -3.69958,2.49196 -5.74321,3.67129 -32.54889,18.79264 -85.13839,18.79264 -117.48128,0 -2.01539,-1.17124 -3.9015,-2.39098 -5.662445,-3.64706 -0.638114,-0.45234 -1.175297,-0.937 -1.781121,-1.40551 -1.06219,-0.81583 -2.164789,-1.62764 -3.126049,-2.47579 -0.621968,-0.54121 -1.126831,-1.11471 -1.700334,-1.66804 -0.832008,-0.79969 -1.708422,-1.59129 -2.455615,-2.41521 -0.541182,-0.60179 -0.969317,-1.22376 -1.470121,-1.83767 -0.650261,-0.80372 -1.348957,-1.599377 -1.92249,-2.415209 -0.448309,-0.642173 -0.775454,-1.30455 -1.175297,-1.950751 -0.496776,-0.815832 -1.042017,-1.619578 -1.462034,-2.443498 -0.339261,-0.670435 -0.565445,-1.352986 -0.856241,-2.027479 -0.351377,-0.819892 -0.751221,-1.635724 -1.025871,-2.467731 -0.230213,-0.694668 -0.347318,-1.397423 -0.525037,-2.096149 -0.209917,-0.819861 -0.464454,-1.639752 -0.601794,-2.463672 -0.117227,-0.714872 -0.121165,-1.433772 -0.181747,-2.152703 -1.130861,-13.154426 6.922562,-26.539095 24.329866,-36.587677 32.55293,-18.792643 85.14243,-18.792643 117.48534,0 16.1149,9.366031 24.14812,21.635955 24.12792,33.909937 0,0.819892 -0.12117,1.639783 -0.1978,2.459644"
     style="fill:#cccccc;fill-opacity:1;fill-rule:nonzero;stroke:none;stroke-width:0.133333"
     id="path1046" />
  <path
     d="m 245.62133,82.338912 c 0,0 -0.13722,0.799687 -0.38773,2.302129 -0.14933,0.646202 -0.23021,1.708422 -0.54524,2.641391 -0.33926,1.025871 -0.73105,2.201168 -1.16724,3.521863 -0.13722,0.541182 -0.60176,1.276258 -0.90874,1.954781 -0.34329,0.674493 -0.69869,1.373189 -1.06624,2.108265 l -0.2908,0.573503 -0.33117,0.464485 -0.77143,1.110656 c -0.50889,0.726988 -1.03796,1.47418 -1.5832,2.253663 -0.46851,0.605824 -1.29646,1.441862 -1.96286,2.189052 -0.54122,0.54121 -1.43784,1.63169 -2.06386,2.16076 -0.79563,0.70276 -1.61149,1.42974 -2.44753,2.16885 l -1.30452,1.1753 c -0.24627,0.22627 -0.89662,0.6664 -1.33687,0.99355 -2.10827,1.5065 -3.60665,2.71814 -6.034,4.03478 -1.12683,0.65835 -2.27384,1.32878 -3.43702,2.00731 -1.14704,0.53715 -2.31022,1.08239 -3.4936,1.63572 -5.02428,2.4435 -10.12128,3.99035 -15.77967,5.86034 -5.6503,1.55091 -11.57526,2.92007 -17.70619,3.67532 -6.10267,0.92085 -12.39515,1.1753 -18.65936,1.23991 -3.13414,0.10905 -6.2723,-0.0363 -9.39835,-0.0688 -3.10991,-0.2705 -6.23595,-0.33118 -9.29333,-0.75928 -3.06144,-0.39179 -6.11479,-0.72699 -9.06715,-1.36513 -2.98874,-0.49678 -5.8886,-1.19953 -8.72386,-1.95884 -5.67051,-1.50647 -11.02598,-3.32394 -16.01394,-5.33125 -2.35462,-1.16721 -4.89103,-2.22537 -6.93871,-3.38855 -1.12277,-0.66641 -2.22943,-1.31667 -3.31182,-1.95481 l -1.48224,-0.87642 -1.478211,-1.07836 c -0.949144,-0.68661 -1.874024,-1.36513 -2.77873,-2.02345 -0.735046,-0.46852 -1.744772,-1.54688 -2.407119,-2.0396 -0.803746,-0.69872 -1.591316,-1.38128 -2.350595,-2.04365 -0.682581,-0.74719 -1.344928,-1.47012 -1.983072,-2.17288 -0.609852,-0.71487 -1.421655,-1.470151 -1.805354,-2.08809 -0.504863,-0.726989 -0.997579,-1.429744 -1.466092,-2.104207 -0.484659,-0.78757 -0.973347,-1.247996 -1.280317,-1.99116 -0.339261,-0.674463 -0.658318,-1.316636 -0.965259,-1.926518 -1.409569,-2.5404 -1.720538,-4.543676 -2.326362,-6.013798 -0.266562,-1.466093 -0.407931,-2.249634 -0.407931,-2.249634 l -0.432164,0.0524 c 0,0 0.0727,0.811803 0.214158,2.326362 0.181747,0.739104 0.399844,1.647839 0.658349,2.722176 0.133281,0.537154 0.278679,1.110687 0.436193,1.728627 0.238391,0.577531 0.492716,1.195471 0.759278,1.845732 0.5493,1.324723 1.102599,2.802933 2.051742,4.228647 0.872386,1.482238 1.789179,3.093729 3.0897,4.580029 0.609852,0.77545 1.243937,1.57514 1.898227,2.39503 0.743163,0.7391 1.506501,1.50244 2.285983,2.28595 1.530704,1.64381 3.356262,3.06144 5.274693,4.56388 3.824773,3.00489 8.392683,5.61801 13.360433,8.13418 5.06872,2.29001 10.52113,4.47504 16.37744,6.05421 2.92007,0.83603 5.90072,1.60746 8.97425,2.16482 3.04123,0.70275 6.17537,1.10259 9.32968,1.5509 3.14222,0.48869 6.35711,0.60986 9.56395,0.93297 3.21086,0.0848 6.44596,0.28262 9.677,0.2181 6.46214,-0.1454 12.93636,-0.52101 19.22078,-1.56303 6.30459,-0.8845 12.4032,-2.38694 18.2191,-4.08325 5.74321,-1.90228 11.28852,-3.9742 16.16743,-6.60753 1.23182,-0.65023 2.44753,-1.2924 3.64706,-1.92246 1.13086,-0.72699 2.2496,-1.44186 3.34414,-2.14867 2.24155,-1.31261 4.21653,-2.9968 6.10265,-4.47098 1.95883,-1.46203 3.46531,-3.26739 5.08488,-4.76177 1.4661,-1.68419 2.76256,-3.31992 3.94594,-4.91523 0.98547,-1.700365 2.06383,-3.222981 2.77467,-4.786005 0.63812,-1.5792 1.33684,-2.996827 1.75689,-4.361929 0.33926,-1.377249 0.6462,-2.605041 0.91277,-3.67129 0.24233,-1.114715 0.21416,-2.007305 0.311,-2.798905 0.12116,-1.506501 0.18174,-2.310216 0.18174,-2.310216 l -0.43216,-0.0212"
     style="fill:#ffffff;fill-opacity:1;fill-rule:nonzero;stroke:none;stroke-width:0.133333"
     id="path1048" />
</svg>
